{
    "asset" : {
        "generator" : "Khronos glTF Blender I/O v1.0.5",
        "version" : "2.0"
    },
    "scene" : 0,
    "scenes" : [
        {
            "name" : "Scene",
            "nodes" : [
                0,
                1,
                36
            ]
        }
    ],
    "nodes" : [
        {
            "name" : "Light",
            "rotation" : [
                0.16907575726509094,
                0.7558803558349609,
                -0.27217137813568115,
                0.570947527885437
            ],
            "translation" : [
                4.076245307922363,
                5.903861999511719,
                -1.0054539442062378
            ]
        },
        {
            "name" : "Camera",
            "rotation" : [
                0.483536034822464,
                0.33687159419059753,
                -0.20870360732078552,
                0.7804827094078064
            ],
            "translation" : [
                7.358891487121582,
                4.958309173583984,
                6.925790786743164
            ]
        },
        {
            "name" : "Camera.001",
            "rotation" : [
                0.483536034822464,
                -0.20870360732078552,
                -0.33687159419059753,
                0.7804827094078064
            ],
            "translation" : [
                7.358891487121582,
                6.925790786743164,
                -4.958309173583984
            ]
        },
        {
            "name" : "Light.001",
            "rotation" : [
                0.16907577216625214,
                -0.27217140793800354,
                -0.7558803558349609,
                0.5709474682807922
            ],
            "translation" : [
                4.076245307922363,
                -1.0054539442062378,
                -5.903861999511719
            ]
        },
        {
            "name" : "Camera.002",
            "rotation" : [
                0.483536034822464,
                -0.33687159419059753,
                0.20870360732078552,
                0.7804827094078064
            ],
            "translation" : [
                7.358891487121582,
                -4.958309173583984,
                -6.925790786743164
            ]
        },
        {
            "name" : "Camera.003",
            "rotation" : [
                0.8937963247299194,
                -0.09062900394201279,
                0.3857799768447876,
                0.20997236669063568
            ],
            "translation" : [
                7.358891487121582,
                -4.958308696746826,
                -6.925792217254639
            ]
        },
        {
            "name" : "Camera.004",
            "rotation" : [
                -0.7804826498031616,
                -0.2087034434080124,
                -0.33687177300453186,
                0.4835362136363983
            ],
            "translation" : [
                7.358891487121582,
                -4.958308219909668,
                -6.925793647766113
            ]
        },
        {
            "name" : "Camera.005",
            "rotation" : [
                -0.7804826498031616,
                -0.2087034434080124,
                -0.33687177300453186,
                0.4835362136363983
            ],
            "translation" : [
                7.358891487121582,
                -4.958308219909668,
                -6.925793647766113
            ]
        },
        {
            "name" : "Camera.006",
            "rotation" : [
                -0.20997296273708344,
                -0.3857799470424652,
                -0.09062869846820831,
                0.8937962055206299
            ],
            "translation" : [
                7.358891487121582,
                -4.95830774307251,
                -6.925795078277588
            ]
        },
        {
            "name" : "Camera.007",
            "rotation" : [
                -0.7804826498031616,
                -0.2087034434080124,
                -0.33687177300453186,
                0.4835362136363983
            ],
            "translation" : [
                7.358891487121582,
                -4.958308219909668,
                -6.925793647766113
            ]
        },
        {
            "name" : "Camera.008",
            "rotation" : [
                -0.7804826498031616,
                -0.2087034434080124,
                -0.33687177300453186,
                0.4835362136363983
            ],
            "translation" : [
                7.358891487121582,
                -4.958308219909668,
                -6.925793647766113
            ]
        },
        {
            "name" : "Camera.009",
            "rotation" : [
                -0.7804826498031616,
                -0.2087034434080124,
                -0.33687177300453186,
                0.4835362136363983
            ],
            "translation" : [
                7.358891487121582,
                -4.958308219909668,
                -6.925793647766113
            ]
        },
        {
            "name" : "Camera.010",
            "rotation" : [
                -0.20997296273708344,
                -0.3857799470424652,
                -0.09062869846820831,
                0.8937962055206299
            ],
            "translation" : [
                7.358891487121582,
                -4.95830774307251,
                -6.925795078277588
            ]
        },
        {
            "name" : "Camera.011",
            "rotation" : [
                -0.7804826498031616,
                -0.2087034434080124,
                -0.33687177300453186,
                0.4835362136363983
            ],
            "translation" : [
                7.358891487121582,
                -4.958308219909668,
                -6.925793647766113
            ]
        },
        {
            "name" : "Light.002",
            "rotation" : [
                0.16907575726509094,
                -0.7558803558349609,
                0.2721714377403259,
                0.5709474682807922
            ],
            "translation" : [
                4.076245307922363,
                -5.903861999511719,
                1.0054539442062378
            ]
        },
        {
            "name" : "Light.003",
            "rotation" : [
                0.5232754349708557,
                -0.34203392267227173,
                0.7269424200057983,
                0.2841660678386688
            ],
            "translation" : [
                4.12216854095459,
                -5.903862476348877,
                0.6267490386962891
            ]
        },
        {
            "name" : "Light.004",
            "rotation" : [
                -0.5709477066993713,
                -0.2721712589263916,
                -0.7558803558349609,
                0.16907550394535065
            ],
            "translation" : [
                4.076245307922363,
                -5.903862953186035,
                1.0054525136947632
            ]
        },
        {
            "name" : "Light.005",
            "rotation" : [
                -0.5709477066993713,
                -0.2721712589263916,
                -0.7558803558349609,
                0.16907550394535065
            ],
            "translation" : [
                4.076245307922363,
                -5.903862953186035,
                1.0054525136947632
            ]
        },
        {
            "name" : "Light.006",
            "rotation" : [
                -0.2841665744781494,
                -0.726942241191864,
                -0.34203413128852844,
                0.5232753157615662
            ],
            "translation" : [
                4.076245307922363,
                -5.903863430023193,
                1.0054517984390259
            ]
        },
        {
            "name" : "Light.007",
            "rotation" : [
                -0.5709477066993713,
                -0.2721712589263916,
                -0.7558803558349609,
                0.16907550394535065
            ],
            "translation" : [
                4.076245307922363,
                -5.903862953186035,
                1.0054525136947632
            ]
        },
        {
            "name" : "Light.008",
            "rotation" : [
                -0.5709477066993713,
                -0.2721712589263916,
                -0.7558803558349609,
                0.16907550394535065
            ],
            "translation" : [
                4.076245307922363,
                -5.903862953186035,
                1.0054525136947632
            ]
        },
        {
            "name" : "Light.009",
            "rotation" : [
                -0.5709477066993713,
                -0.2721712589263916,
                -0.7558803558349609,
                0.16907550394535065
            ],
            "translation" : [
                4.076245307922363,
                -5.903862953186035,
                1.0054525136947632
            ]
        },
        {
            "name" : "Light.010",
            "rotation" : [
                -0.2841665744781494,
                -0.726942241191864,
                -0.34203413128852844,
                0.5232753157615662
            ],
            "translation" : [
                4.076245307922363,
                -5.903863430023193,
                1.0054517984390259
            ]
        },
        {
            "name" : "Light.011",
            "rotation" : [
                -0.5709477066993713,
                -0.2721712589263916,
                -0.7558803558349609,
                0.16907550394535065
            ],
            "translation" : [
                4.076245307922363,
                -5.903862953186035,
                1.0054525136947632
            ]
        },
        {
            "name" : "Node",
            "translation" : [
                -0.9703099727630615,
                2.776634454727173,
                -0.25708478689193726
            ]
        },
        {
            "name" : "Node.001",
            "translation" : [
                -0.9042116403579712,
                2.9871819019317627,
                -0.6845377683639526
            ]
        },
        {
            "name" : "Node.002",
            "rotation" : [
                1,
                0,
                0,
                -1.3435885648505064e-07
            ]
        },
        {
            "name" : "Node.003",
            "rotation" : [
                1,
                0,
                0,
                -1.3435885648505064e-07
            ],
            "translation" : [
                4.11012077331543,
                0,
                -0.3787042796611786
            ]
        },
        {
            "name" : "Node.004",
            "rotation" : [
                1,
                0,
                0,
                -1.3435885648505064e-07
            ]
        },
        {
            "name" : "Node.005",
            "rotation" : [
                -0.7071065902709961,
                0,
                0,
                0.7071069478988647
            ],
            "translation" : [
                -1.2026138305664062,
                2.847177743911743,
                2.8418467044830322
            ]
        },
        {
            "mesh" : 0,
            "name" : "Object_0.003",
            "rotation" : [
                0.004567009396851063,
                -0.001629453501664102,
                0.000287330592982471,
                0.9999881982803345
            ],
            "translation" : [
                0.03175583481788635,
                0.07236643880605698,
                0.108642578125
            ]
        },
        {
            "children" : [
                30
            ],
            "name" : "Node.006",
            "rotation" : [
                1,
                0,
                0,
                -1.3435885648505064e-07
            ],
            "translation" : [
                -1.205265998840332,
                2.137270450592041,
                0.7609289288520813
            ]
        },
        {
            "name" : "Node.007",
            "rotation" : [
                -0.7071065902709961,
                0,
                0,
                0.7071069478988647
            ],
            "translation" : [
                -1.2026138305664062,
                0.7297152876853943,
                2.5489137172698975
            ]
        },
        {
            "name" : "Node.008",
            "rotation" : [
                -0.7071065902709961,
                0,
                0,
                0.7071069478988647
            ],
            "translation" : [
                -1.2026138305664062,
                0.783231258392334,
                -0.8755592107772827
            ]
        },
        {
            "name" : "Node.009",
            "rotation" : [
                1,
                0,
                0,
                -1.3435885648505064e-07
            ]
        },
        {
            "children" : [
                4,
                5,
                6,
                7,
                8,
                9,
                10,
                11,
                12,
                13,
                14,
                15,
                16,
                17,
                18,
                19,
                20,
                21,
                22,
                23,
                24,
                25,
                26,
                27,
                28,
                29,
                31,
                32,
                33,
                34
            ],
            "name" : "Yup2Zup.001",
            "rotation" : [
                0.7071068286895752,
                0,
                0,
                0.7071068286895752
            ]
        },
        {
            "children" : [
                2,
                3,
                35
            ],
            "name" : "Yup2Zup",
            "rotation" : [
                0.7071067690849304,
                0,
                0,
                0.7071067690849304
            ]
        }
    ],
    "animations" : [
        {
            "channels" : [
                {
                    "sampler" : 0,
                    "target" : {
                        "node" : 30,
                        "path" : "rotation"
                    }
                }
            ],
            "name" : "Object_0.003Action_Object_0.003_Object_0.003",
            "samplers" : [
                {
                    "input" : 15,
                    "interpolation" : "LINEAR",
                    "output" : 16
                }
            ]
        }
    ],
    "materials" : [
        {
            "name" : "palette.006",
            "pbrMetallicRoughness" : {
                "baseColorTexture" : {
                    "index" : 0,
                    "texCoord" : 0
                },
                "metallicFactor" : 0.5,
                "roughnessFactor" : 0.5
            }
        },
        {
            "name" : "palette.001",
            "pbrMetallicRoughness" : {
                "baseColorTexture" : {
                    "index" : 1,
                    "texCoord" : 0
                },
                "metallicFactor" : 0.5,
                "roughnessFactor" : 0.5
            }
        },
        {
            "name" : "palette.004",
            "pbrMetallicRoughness" : {
                "baseColorTexture" : {
                    "index" : 2,
                    "texCoord" : 0
                },
                "metallicFactor" : 0.5,
                "roughnessFactor" : 0.5
            }
        },
        {
            "name" : "palette.009",
            "pbrMetallicRoughness" : {
                "baseColorTexture" : {
                    "index" : 3,
                    "texCoord" : 0
                },
                "metallicFactor" : 0.5,
                "roughnessFactor" : 0.5
            }
        }
    ],
    "meshes" : [
        {
            "name" : "Mesh_0.006",
            "primitives" : [
                {
                    "attributes" : {
                        "POSITION" : 0,
                        "NORMAL" : 1,
                        "TEXCOORD_0" : 2
                    },
                    "indices" : 3,
                    "material" : 0
                },
                {
                    "attributes" : {
                        "POSITION" : 4,
                        "NORMAL" : 5,
                        "TEXCOORD_0" : 6
                    },
                    "indices" : 7,
                    "material" : 1
                },
                {
                    "attributes" : {
                        "POSITION" : 8,
                        "NORMAL" : 9,
                        "TEXCOORD_0" : 10
                    },
                    "indices" : 3,
                    "material" : 2
                },
                {
                    "attributes" : {
                        "POSITION" : 11,
                        "NORMAL" : 12,
                        "TEXCOORD_0" : 13
                    },
                    "indices" : 14,
                    "material" : 3
                }
            ]
        }
    ],
    "textures" : [
        {
            "source" : 0
        },
        {
            "source" : 0
        },
        {
            "source" : 0
        },
        {
            "source" : 1
        }
    ],
    "images" : [
        {
            "bufferView" : 4,
            "mimeType" : "image/png",
            "name" : "Image_0"
        },
        {
            "bufferView" : 16,
            "mimeType" : "image/png",
            "name" : "Image_1"
        }
    ],
    "accessors" : [
        {
            "bufferView" : 0,
            "componentType" : 5126,
            "count" : 180,
            "max" : [
                0.4000000059604645,
                2.4000000953674316,
                0
            ],
            "min" : [
                0,
                2,
                -0.4000000059604645
            ],
            "type" : "VEC3"
        },
        {
            "bufferView" : 1,
            "componentType" : 5126,
            "count" : 180,
            "type" : "VEC3"
        },
        {
            "bufferView" : 2,
            "componentType" : 5126,
            "count" : 180,
            "type" : "VEC2"
        },
        {
            "bufferView" : 3,
            "componentType" : 5123,
            "count" : 180,
            "type" : "SCALAR"
        },
        {
            "bufferView" : 5,
            "componentType" : 5126,
            "count" : 1800,
            "max" : [
                2.175593852996826,
                3.787612199783325,
                1.3226491212844849
            ],
            "min" : [
                0.2705146372318268,
                1.0787978172302246,
                -0.09985065460205078
            ],
            "type" : "VEC3"
        },
        {
            "bufferView" : 6,
            "componentType" : 5126,
            "count" : 1800,
            "type" : "VEC3"
        },
        {
            "bufferView" : 7,
            "componentType" : 5126,
            "count" : 1800,
            "type" : "VEC2"
        },
        {
            "bufferView" : 8,
            "componentType" : 5123,
            "count" : 1800,
            "type" : "SCALAR"
        },
        {
            "bufferView" : 9,
            "componentType" : 5126,
            "count" : 180,
            "max" : [
                2.3437585830688477,
                2.4177286624908447,
                -0.0005641132593154907
            ],
            "min" : [
                1.9351401329040527,
                2.0009045600891113,
                -0.42256829142570496
            ],
            "type" : "VEC3"
        },
        {
            "bufferView" : 10,
            "componentType" : 5126,
            "count" : 180,
            "type" : "VEC3"
        },
        {
            "bufferView" : 11,
            "componentType" : 5126,
            "count" : 180,
            "type" : "VEC2"
        },
        {
            "bufferView" : 12,
            "componentType" : 5126,
            "count" : 1332,
            "max" : [
                2.015155553817749,
                3.8363382816314697,
                0.059927552938461304
            ],
            "min" : [
                0.3115672767162323,
                1.8315017223358154,
                -0.9560705423355103
            ],
            "type" : "VEC3"
        },
        {
            "bufferView" : 13,
            "componentType" : 5126,
            "count" : 1332,
            "type" : "VEC3"
        },
        {
            "bufferView" : 14,
            "componentType" : 5126,
            "count" : 1332,
            "type" : "VEC2"
        },
        {
            "bufferView" : 15,
            "componentType" : 5123,
            "count" : 1332,
            "type" : "SCALAR"
        },
        {
            "bufferView" : 17,
            "componentType" : 5126,
            "count" : 49,
            "max" : [
                2
            ],
            "min" : [
                0
            ],
            "type" : "SCALAR"
        },
        {
            "bufferView" : 18,
            "componentType" : 5126,
            "count" : 49,
            "type" : "VEC4"
        }
    ],
    "bufferViews" : [
        {
            "buffer" : 0,
            "byteLength" : 2160,
            "byteOffset" : 0
        },
        {
            "buffer" : 0,
            "byteLength" : 2160,
            "byteOffset" : 2160
        },
        {
            "buffer" : 0,
            "byteLength" : 1440,
            "byteOffset" : 4320
        },
        {
            "buffer" : 0,
            "byteLength" : 360,
            "byteOffset" : 5760
        },
        {
            "buffer" : 0,
            "byteLength" : 986,
            "byteOffset" : 6120
        },
        {
            "buffer" : 0,
            "byteLength" : 21600,
            "byteOffset" : 7108
        },
        {
            "buffer" : 0,
            "byteLength" : 21600,
            "byteOffset" : 28708
        },
        {
            "buffer" : 0,
            "byteLength" : 14400,
            "byteOffset" : 50308
        },
        {
            "buffer" : 0,
            "byteLength" : 3600,
            "byteOffset" : 64708
        },
        {
            "buffer" : 0,
            "byteLength" : 2160,
            "byteOffset" : 68308
        },
        {
            "buffer" : 0,
            "byteLength" : 2160,
            "byteOffset" : 70468
        },
        {
            "buffer" : 0,
            "byteLength" : 1440,
            "byteOffset" : 72628
        },
        {
            "buffer" : 0,
            "byteLength" : 15984,
            "byteOffset" : 74068
        },
        {
            "buffer" : 0,
            "byteLength" : 15984,
            "byteOffset" : 90052
        },
        {
            "buffer" : 0,
            "byteLength" : 10656,
            "byteOffset" : 106036
        },
        {
            "buffer" : 0,
            "byteLength" : 2664,
            "byteOffset" : 116692
        },
        {
            "buffer" : 0,
            "byteLength" : 985,
            "byteOffset" : 119356
        },
        {
            "buffer" : 0,
            "byteLength" : 196,
            "byteOffset" : 120344
        },
        {
            "buffer" : 0,
            "byteLength" : 784,
            "byteOffset" : 120540
        }
    ],
    "buffers" : [
        {
            "byteLength" : 121324,
            "uri" : "data:application/octet-stream;base64,"
        }
    ]
}
