{
    "asset" : {
        "generator" : "Khronos glTF Blender I/O v1.0.5",
        "version" : "2.0"
    },
    "scene" : 0,
    "scenes" : [
        {
            "name" : "Scene",
            "nodes" : [
                0,
                1,
                2,
                4,
                6
            ]
        }
    ],
    "nodes" : [
        {
            "name" : "Light",
            "rotation" : [
                0.16907575726509094,
                0.7558803558349609,
                -0.27217137813568115,
                0.570947527885437
            ],
            "translation" : [
                4.076245307922363,
                5.903861999511719,
                -1.0054539442062378
            ]
        },
        {
            "name" : "Camera",
            "rotation" : [
                0.483536034822464,
                0.33687159419059753,
                -0.20870360732078552,
                0.7804827094078064
            ],
            "translation" : [
                7.358891487121582,
                4.958309173583984,
                6.925790786743164
            ]
        },
        {
            "name" : "Node",
            "rotation" : [
                0.7071068286895752,
                0,
                0,
                0.7071067094802856
            ],
            "translation" : [
                -1.649819254875183,
                -0.5511206984519958,
                3.809298276901245
            ]
        },
        {
            "mesh" : 0,
            "name" : "Object_0.001",
            "translation" : [
                -1.8386399745941162,
                0.677511990070343,
                1.007539987564087
            ]
        },
        {
            "children" : [
                3
            ],
            "name" : "Node.001",
            "rotation" : [
                0.7071068286895752,
                0,
                0,
                0.7071067094802856
            ]
        },
        {
            "mesh" : 1,
            "name" : "Object_0",
            "translation" : [
                -1.8386399745941162,
                0.677511990070343,
                1.0175399780273438
            ]
        },
        {
            "children" : [
                5
            ],
            "name" : "Node.002",
            "rotation" : [
                0.7071068286895752,
                0,
                0,
                0.7071067094802856
            ]
        }
    ],
    "materials" : [
        {
            "name" : "palette.001",
            "pbrMetallicRoughness" : {
                "baseColorTexture" : {
                    "index" : 0,
                    "texCoord" : 0
                },
                "metallicFactor" : 0.5,
                "roughnessFactor" : 0.5
            }
        },
        {
            "name" : "palette.002",
            "pbrMetallicRoughness" : {
                "baseColorTexture" : {
                    "index" : 1,
                    "texCoord" : 0
                },
                "metallicFactor" : 0.5,
                "roughnessFactor" : 0.5
            }
        }
    ],
    "meshes" : [
        {
            "name" : "Mesh_0.001",
            "primitives" : [
                {
                    "attributes" : {
                        "POSITION" : 0,
                        "NORMAL" : 1,
                        "TEXCOORD_0" : 2
                    },
                    "indices" : 3,
                    "material" : 0
                }
            ]
        },
        {
            "name" : "Mesh_0.002",
            "primitives" : [
                {
                    "attributes" : {
                        "POSITION" : 4,
                        "NORMAL" : 5,
                        "TEXCOORD_0" : 6
                    },
                    "indices" : 7,
                    "material" : 1
                }
            ]
        }
    ],
    "textures" : [
        {
            "source" : 0
        },
        {
            "source" : 0
        }
    ],
    "images" : [
        {
            "bufferView" : 4,
            "mimeType" : "image/png",
            "name" : "Image_0"
        }
    ],
    "accessors" : [
        {
            "bufferView" : 0,
            "componentType" : 5126,
            "count" : 4842,
            "max" : [
                3.799999952316284,
                -1.100000023841858,
                -0.699999988079071
            ],
            "min" : [
                1.2999999523162842,
                -7.199999809265137,
                -1.600000023841858
            ],
            "type" : "VEC3"
        },
        {
            "bufferView" : 1,
            "componentType" : 5126,
            "count" : 4842,
            "type" : "VEC3"
        },
        {
            "bufferView" : 2,
            "componentType" : 5126,
            "count" : 4842,
            "type" : "VEC2"
        },
        {
            "bufferView" : 3,
            "componentType" : 5123,
            "count" : 4842,
            "type" : "SCALAR"
        },
        {
            "bufferView" : 5,
            "componentType" : 5126,
            "count" : 4962,
            "max" : [
                3.799999952316284,
                -1.100000023841858,
                -0.699999988079071
            ],
            "min" : [
                1.2999999523162842,
                -7.199999809265137,
                -1.600000023841858
            ],
            "type" : "VEC3"
        },
        {
            "bufferView" : 6,
            "componentType" : 5126,
            "count" : 4962,
            "type" : "VEC3"
        },
        {
            "bufferView" : 7,
            "componentType" : 5126,
            "count" : 4962,
            "type" : "VEC2"
        },
        {
            "bufferView" : 8,
            "componentType" : 5123,
            "count" : 4962,
            "type" : "SCALAR"
        }
    ],
    "bufferViews" : [
        {
            "buffer" : 0,
            "byteLength" : 58104,
            "byteOffset" : 0
        },
        {
            "buffer" : 0,
            "byteLength" : 58104,
            "byteOffset" : 58104
        },
        {
            "buffer" : 0,
            "byteLength" : 38736,
            "byteOffset" : 116208
        },
        {
            "buffer" : 0,
            "byteLength" : 9684,
            "byteOffset" : 154944
        },
        {
            "buffer" : 0,
            "byteLength" : 991,
            "byteOffset" : 164628
        },
        {
            "buffer" : 0,
            "byteLength" : 59544,
            "byteOffset" : 165620
        },
        {
            "buffer" : 0,
            "byteLength" : 59544,
            "byteOffset" : 225164
        },
        {
            "buffer" : 0,
            "byteLength" : 39696,
            "byteOffset" : 284708
        },
        {
            "buffer" : 0,
            "byteLength" : 9924,
            "byteOffset" : 324404
        }
    ],
    "buffers" : [
        {
            "byteLength" : 334328,
            "uri" : "data:application/octet-stream;base64,"
        }
    ]
}
