{
    "asset" : {
        "generator" : "Khronos glTF Blender I/O v1.0.5",
        "version" : "2.0"
    },
    "scene" : 0,
    "scenes" : [
        {
            "name" : "Scene",
            "nodes" : [
                0,
                1,
                2,
                3,
                4,
                5,
                6,
                7,
                8,
                9,
                10,
                11,
                12,
                13,
                14,
                16,
                17,
                18,
                20,
                21,
                22,
                24,
                25,
                26,
                28,
                29,
                30,
                31,
                32,
                33,
                34,
                35,
                36,
                37
            ]
        }
    ],
    "nodes" : [
        {
            "name" : "Light.004",
            "rotation" : [
                0.5232754945755005,
                0.34203392267227173,
                -0.7269423604011536,
                0.284166157245636
            ],
            "translation" : [
                4.076245307922363,
                5.903862476348877,
                -1.0054532289505005
            ]
        },
        {
            "name" : "Camera.004",
            "rotation" : [
                0.8937963247299194,
                0.09062855690717697,
                -0.3857799172401428,
                0.20997287333011627
            ],
            "translation" : [
                7.358891487121582,
                4.958308696746826,
                6.925792217254639
            ]
        },
        {
            "name" : "Light.005",
            "rotation" : [
                0.5232754945755005,
                0.34203392267227173,
                -0.7269423604011536,
                0.284166157245636
            ],
            "translation" : [
                4.076245307922363,
                5.903862476348877,
                -1.0054532289505005
            ]
        },
        {
            "name" : "Camera.005",
            "rotation" : [
                0.8937963247299194,
                0.09062855690717697,
                -0.3857799172401428,
                0.20997287333011627
            ],
            "translation" : [
                7.358891487121582,
                4.958308696746826,
                6.925792217254639
            ]
        },
        {
            "name" : "Node.004",
            "rotation" : [
                1,
                0,
                0,
                -1.3435885648505064e-07
            ],
            "translation" : [
                -0.5831285119056702,
                -2.6460649967193604,
                1.051730990409851
            ]
        },
        {
            "name" : "Light.006",
            "rotation" : [
                0.5232754945755005,
                0.34203392267227173,
                -0.7269423604011536,
                0.284166157245636
            ],
            "translation" : [
                4.076245307922363,
                5.903862476348877,
                -1.0054532289505005
            ]
        },
        {
            "name" : "Camera.006",
            "rotation" : [
                0.8937963247299194,
                0.09062855690717697,
                -0.3857799172401428,
                0.20997287333011627
            ],
            "translation" : [
                7.358891487121582,
                4.958308696746826,
                6.925792217254639
            ]
        },
        {
            "name" : "Node.005",
            "rotation" : [
                0.9967368245124817,
                0.05609065666794777,
                -0.05145318806171417,
                0.026874002069234848
            ],
            "translation" : [
                -0.4737957715988159,
                -2.043856143951416,
                0.8719712495803833
            ]
        },
        {
            "name" : "Light.007",
            "rotation" : [
                0.5232754945755005,
                0.34203392267227173,
                -0.7269423604011536,
                0.284166157245636
            ],
            "translation" : [
                4.076245307922363,
                5.903862476348877,
                -1.0054532289505005
            ]
        },
        {
            "name" : "Camera.007",
            "rotation" : [
                0.8937963247299194,
                0.09062855690717697,
                -0.3857799172401428,
                0.20997287333011627
            ],
            "translation" : [
                7.358891487121582,
                4.958308696746826,
                6.925792217254639
            ]
        },
        {
            "name" : "Node.006",
            "rotation" : [
                0.8546592593193054,
                -0.45213404297828674,
                0.25012093782424927,
                -0.05071503669023514
            ],
            "scale" : [
                0.6480574011802673,
                0.6480573415756226,
                0.6480573415756226
            ],
            "translation" : [
                -1.8088459968566895,
                0.20582757890224457,
                -0.2740834653377533
            ]
        },
        {
            "name" : "Light.008",
            "rotation" : [
                0.5232754945755005,
                0.34203392267227173,
                -0.7269423604011536,
                0.284166157245636
            ],
            "translation" : [
                4.076245307922363,
                5.903862476348877,
                -1.0054532289505005
            ]
        },
        {
            "name" : "Camera.008",
            "rotation" : [
                0.8937963247299194,
                0.09062855690717697,
                -0.3857799172401428,
                0.20997287333011627
            ],
            "translation" : [
                7.358891487121582,
                4.958308696746826,
                6.925792217254639
            ]
        },
        {
            "name" : "Light.009",
            "rotation" : [
                0.5232754945755005,
                0.34203392267227173,
                -0.7269423604011536,
                0.284166157245636
            ],
            "translation" : [
                4.076245307922363,
                5.903862476348877,
                -1.0054532289505005
            ]
        },
        {
            "name" : "Camera.009",
            "rotation" : [
                0.8937963247299194,
                0.09062855690717697,
                -0.3857799172401428,
                0.20997287333011627
            ],
            "translation" : [
                7.358891487121582,
                4.958308696746826,
                6.925792217254639
            ]
        },
        {
            "mesh" : 0,
            "name" : "Object_0",
            "scale" : [
                1.6939730644226074,
                1.6939730644226074,
                1.6939730644226074
            ],
            "translation" : [
                -0.3676595687866211,
                1.7676554918289185,
                -0.34647488594055176
            ]
        },
        {
            "children" : [
                15
            ],
            "name" : "Node",
            "rotation" : [
                1,
                0,
                0,
                -1.3435885648505064e-07
            ],
            "translation" : [
                -0.5570660829544067,
                -2.637486457824707,
                0.5190868973731995
            ]
        },
        {
            "name" : "Light.010",
            "rotation" : [
                0.5232754945755005,
                0.34203392267227173,
                -0.7269423604011536,
                0.284166157245636
            ],
            "translation" : [
                4.076245307922363,
                5.903862476348877,
                -1.0054532289505005
            ]
        },
        {
            "name" : "Camera.010",
            "rotation" : [
                0.8937963247299194,
                0.09062855690717697,
                -0.3857799172401428,
                0.20997287333011627
            ],
            "translation" : [
                7.358891487121582,
                4.958308696746826,
                6.925792217254639
            ]
        },
        {
            "mesh" : 1,
            "name" : "Object_0.001",
            "scale" : [
                0.5781044363975525,
                0.5781044363975525,
                0.5781044363975525
            ],
            "translation" : [
                0,
                0.6765231490135193,
                0.4006466865539551
            ]
        },
        {
            "children" : [
                19
            ],
            "name" : "Node.001",
            "rotation" : [
                1,
                0,
                0,
                -1.3435885648505064e-07
            ],
            "translation" : [
                -0.7560184597969055,
                0.049651384353637695,
                0.7361230254173279
            ]
        },
        {
            "name" : "Light.011",
            "rotation" : [
                0.5232754945755005,
                0.34203392267227173,
                -0.7269423604011536,
                0.284166157245636
            ],
            "translation" : [
                4.076245307922363,
                5.903862476348877,
                -1.0054532289505005
            ]
        },
        {
            "name" : "Camera.011",
            "rotation" : [
                0.8937963247299194,
                0.09062855690717697,
                -0.3857799172401428,
                0.20997287333011627
            ],
            "translation" : [
                7.358891487121582,
                4.958308696746826,
                6.925792217254639
            ]
        },
        {
            "mesh" : 2,
            "name" : "Object_0.002",
            "translation" : [
                -0.1290869414806366,
                0.18802346289157867,
                0
            ]
        },
        {
            "children" : [
                23
            ],
            "name" : "Node.002",
            "rotation" : [
                0.8848715424537659,
                -0.46583518385887146,
                0,
                -1.1889032691669854e-07
            ],
            "scale" : [
                0.6323093771934509,
                0.6323093771934509,
                0.6323093771934509
            ],
            "translation" : [
                -1.1995996236801147,
                0.43679121136665344,
                0.5784772038459778
            ]
        },
        {
            "name" : "Light.012",
            "rotation" : [
                0.5232754945755005,
                0.34203392267227173,
                -0.7269423604011536,
                0.284166157245636
            ],
            "translation" : [
                4.076245307922363,
                5.903862476348877,
                -1.0054532289505005
            ]
        },
        {
            "name" : "Camera.012",
            "rotation" : [
                0.8937963247299194,
                0.09062855690717697,
                -0.3857799172401428,
                0.20997287333011627
            ],
            "translation" : [
                7.358891487121582,
                4.958308696746826,
                6.925792217254639
            ]
        },
        {
            "mesh" : 3,
            "name" : "Object_0.003",
            "rotation" : [
                0.18041735887527466,
                0,
                0,
                0.9835901856422424
            ],
            "scale" : [
                0.4952029585838318,
                0.4952029585838318,
                0.4952029585838318
            ],
            "translation" : [
                0.2823304831981659,
                0.3036164939403534,
                0.5961865186691284
            ]
        },
        {
            "children" : [
                27
            ],
            "name" : "Node.007",
            "rotation" : [
                1,
                0,
                0,
                -1.3435885648505064e-07
            ],
            "translation" : [
                -0.7560184597969055,
                0.012305259704589844,
                0.7361230254173279
            ]
        },
        {
            "name" : "Light",
            "rotation" : [
                0.16907575726509094,
                0.7558803558349609,
                -0.27217137813568115,
                0.570947527885437
            ],
            "translation" : [
                4.12216854095459,
                5.903861999511719,
                -0.6267497539520264
            ]
        },
        {
            "name" : "Camera",
            "rotation" : [
                0.483536034822464,
                0.33687159419059753,
                -0.20870360732078552,
                0.7804827094078064
            ],
            "translation" : [
                7.358891487121582,
                4.958309173583984,
                6.925790786743164
            ]
        },
        {
            "name" : "Light.001",
            "rotation" : [
                0.5232754945755005,
                0.34203392267227173,
                -0.7269423604011536,
                0.284166157245636
            ],
            "translation" : [
                4.076245307922363,
                5.903862476348877,
                -1.0054532289505005
            ]
        },
        {
            "name" : "Camera.001",
            "rotation" : [
                0.8937963247299194,
                0.09062855690717697,
                -0.3857799172401428,
                0.20997287333011627
            ],
            "translation" : [
                7.358891487121582,
                4.958308696746826,
                6.925792217254639
            ]
        },
        {
            "name" : "Light.002",
            "rotation" : [
                -0.5709477066993713,
                0.2721712291240692,
                0.7558802962303162,
                0.16907566785812378
            ],
            "translation" : [
                4.076245307922363,
                5.903862953186035,
                -1.0054525136947632
            ]
        },
        {
            "name" : "Camera.002",
            "rotation" : [
                -0.7804825901985168,
                0.20870345830917358,
                0.33687177300453186,
                0.4835361838340759
            ],
            "translation" : [
                7.358891487121582,
                4.958308219909668,
                6.925793647766113
            ]
        },
        {
            "name" : "Light.003",
            "rotation" : [
                0.5232754945755005,
                0.34203392267227173,
                -0.7269423604011536,
                0.284166157245636
            ],
            "translation" : [
                4.076245307922363,
                5.903862476348877,
                -1.0054532289505005
            ]
        },
        {
            "name" : "Camera.003",
            "rotation" : [
                0.8937963247299194,
                0.09062855690717697,
                -0.3857799172401428,
                0.20997287333011627
            ],
            "translation" : [
                7.358891487121582,
                4.958308696746826,
                6.925792217254639
            ]
        },
        {
            "name" : "Node.003",
            "rotation" : [
                0.7071068286895752,
                0,
                0,
                0.7071067094802856
            ],
            "translation" : [
                4.11012077331543,
                0,
                0.3787042200565338
            ]
        }
    ],
    "materials" : [
        {
            "name" : "palette",
            "pbrMetallicRoughness" : {
                "baseColorTexture" : {
                    "index" : 0,
                    "texCoord" : 0
                },
                "metallicFactor" : 0.5,
                "roughnessFactor" : 0.5
            }
        },
        {
            "name" : "palette.003",
            "pbrMetallicRoughness" : {
                "baseColorTexture" : {
                    "index" : 1,
                    "texCoord" : 0
                },
                "metallicFactor" : 0.5,
                "roughnessFactor" : 0.5
            }
        },
        {
            "name" : "palette.004",
            "pbrMetallicRoughness" : {
                "baseColorTexture" : {
                    "index" : 2,
                    "texCoord" : 0
                },
                "metallicFactor" : 0.5,
                "roughnessFactor" : 0.5
            }
        },
        {
            "name" : "palette.005",
            "pbrMetallicRoughness" : {
                "baseColorTexture" : {
                    "index" : 3,
                    "texCoord" : 0
                },
                "metallicFactor" : 0.5,
                "roughnessFactor" : 0.5
            }
        }
    ],
    "meshes" : [
        {
            "name" : "Mesh_0",
            "primitives" : [
                {
                    "attributes" : {
                        "POSITION" : 0,
                        "NORMAL" : 1,
                        "TEXCOORD_0" : 2
                    },
                    "indices" : 3,
                    "material" : 0
                }
            ]
        },
        {
            "name" : "Mesh_0.001",
            "primitives" : [
                {
                    "attributes" : {
                        "POSITION" : 4,
                        "NORMAL" : 5,
                        "TEXCOORD_0" : 6
                    },
                    "indices" : 7,
                    "material" : 1
                }
            ]
        },
        {
            "name" : "Mesh_0.002",
            "primitives" : [
                {
                    "attributes" : {
                        "POSITION" : 8,
                        "NORMAL" : 9,
                        "TEXCOORD_0" : 10
                    },
                    "indices" : 7,
                    "material" : 2
                }
            ]
        },
        {
            "name" : "Mesh_0.003",
            "primitives" : [
                {
                    "attributes" : {
                        "POSITION" : 11,
                        "NORMAL" : 12,
                        "TEXCOORD_0" : 13
                    },
                    "indices" : 7,
                    "material" : 3
                }
            ]
        }
    ],
    "textures" : [
        {
            "source" : 0
        },
        {
            "source" : 1
        },
        {
            "source" : 1
        },
        {
            "source" : 1
        }
    ],
    "images" : [
        {
            "bufferView" : 4,
            "mimeType" : "image/png",
            "name" : "Image_0"
        },
        {
            "bufferView" : 9,
            "mimeType" : "image/png",
            "name" : "Image_0"
        }
    ],
    "accessors" : [
        {
            "bufferView" : 0,
            "componentType" : 5126,
            "count" : 924,
            "max" : [
                1.100000023841858,
                -2,
                0.8999999761581421
            ],
            "min" : [
                0,
                -3.299999952316284,
                0.10000000149011612
            ],
            "type" : "VEC3"
        },
        {
            "bufferView" : 1,
            "componentType" : 5126,
            "count" : 924,
            "type" : "VEC3"
        },
        {
            "bufferView" : 2,
            "componentType" : 5126,
            "count" : 924,
            "type" : "VEC2"
        },
        {
            "bufferView" : 3,
            "componentType" : 5123,
            "count" : 924,
            "type" : "SCALAR"
        },
        {
            "bufferView" : 5,
            "componentType" : 5126,
            "count" : 660,
            "max" : [
                1.2000000476837158,
                -2,
                1.2000000476837158
            ],
            "min" : [
                0.30000001192092896,
                -3.200000047683716,
                0.30000001192092896
            ],
            "type" : "VEC3"
        },
        {
            "bufferView" : 6,
            "componentType" : 5126,
            "count" : 660,
            "type" : "VEC3"
        },
        {
            "bufferView" : 7,
            "componentType" : 5126,
            "count" : 660,
            "type" : "VEC2"
        },
        {
            "bufferView" : 8,
            "componentType" : 5123,
            "count" : 660,
            "type" : "SCALAR"
        },
        {
            "bufferView" : 10,
            "componentType" : 5126,
            "count" : 660,
            "max" : [
                1.2000000476837158,
                -2,
                1.2000000476837158
            ],
            "min" : [
                0.30000001192092896,
                -3.200000047683716,
                0.30000001192092896
            ],
            "type" : "VEC3"
        },
        {
            "bufferView" : 11,
            "componentType" : 5126,
            "count" : 660,
            "type" : "VEC3"
        },
        {
            "bufferView" : 12,
            "componentType" : 5126,
            "count" : 660,
            "type" : "VEC2"
        },
        {
            "bufferView" : 13,
            "componentType" : 5126,
            "count" : 660,
            "max" : [
                1.2000000476837158,
                -2,
                1.2000000476837158
            ],
            "min" : [
                0.30000001192092896,
                -3.200000047683716,
                0.30000001192092896
            ],
            "type" : "VEC3"
        },
        {
            "bufferView" : 14,
            "componentType" : 5126,
            "count" : 660,
            "type" : "VEC3"
        },
        {
            "bufferView" : 15,
            "componentType" : 5126,
            "count" : 660,
            "type" : "VEC2"
        }
    ],
    "bufferViews" : [
        {
            "buffer" : 0,
            "byteLength" : 11088,
            "byteOffset" : 0
        },
        {
            "buffer" : 0,
            "byteLength" : 11088,
            "byteOffset" : 11088
        },
        {
            "buffer" : 0,
            "byteLength" : 7392,
            "byteOffset" : 22176
        },
        {
            "buffer" : 0,
            "byteLength" : 1848,
            "byteOffset" : 29568
        },
        {
            "buffer" : 0,
            "byteLength" : 985,
            "byteOffset" : 31416
        },
        {
            "buffer" : 0,
            "byteLength" : 7920,
            "byteOffset" : 32404
        },
        {
            "buffer" : 0,
            "byteLength" : 7920,
            "byteOffset" : 40324
        },
        {
            "buffer" : 0,
            "byteLength" : 5280,
            "byteOffset" : 48244
        },
        {
            "buffer" : 0,
            "byteLength" : 1320,
            "byteOffset" : 53524
        },
        {
            "buffer" : 0,
            "byteLength" : 985,
            "byteOffset" : 54844
        },
        {
            "buffer" : 0,
            "byteLength" : 7920,
            "byteOffset" : 55832
        },
        {
            "buffer" : 0,
            "byteLength" : 7920,
            "byteOffset" : 63752
        },
        {
            "buffer" : 0,
            "byteLength" : 5280,
            "byteOffset" : 71672
        },
        {
            "buffer" : 0,
            "byteLength" : 7920,
            "byteOffset" : 76952
        },
        {
            "buffer" : 0,
            "byteLength" : 7920,
            "byteOffset" : 84872
        },
        {
            "buffer" : 0,
            "byteLength" : 5280,
            "byteOffset" : 92792
        }
    ],
    "buffers" : [
        {
            "byteLength" : 98072,
            "uri" : "data:application/octet-stream;base64,"
        }
    ]
}
