# MagicaVoxel @ Ephtracy

# group
o 

# material
mtllib Plastic2.mtl
usemtl palette

# normals
vn -1 0 0
vn 1 0 0
vn 0 0 1
vn 0 0 -1
vn 0 -1 0
vn 0 1 0

# texcoords
vt 0.306641 0.5
vt 0.634766 0.5
vt 0.716797 0.5
vt 0.728516 0.5
vt 0.771484 0.5
vt 0.919922 0.5
vt 0.935547 0.5
vt 0.958984 0.5

# verts
v 8.3 0.7 -5.6
v 8.3 0.7 -5.7
v 8.3 1.2 -5.6
v 8.3 1.2 -5.7
v 8.3 1.3 -5.6
v 8.3 1.3 -5.7
v 8.4 0.8 -5.7
v 8.4 0.8 -5.8
v 8.4 0.8 -6.5
v 8.4 0.8 -6.6
v 8.4 0.9 -5.8
v 8.4 0.9 -6.5
v 8.4 1 -5.7
v 8.4 1 -5.8
v 8.4 1 -6.5
v 8.4 1 -6.6
v 9.3 1.2 -5.8
v 9.3 1.2 -6.5
v 9.3 1.3 -5.9
v 9.3 1.3 -6.4
v 9.3 1.4 -5.9
v 9.3 1.4 -6.4
v 9.3 1.5 -5.8
v 9.3 1.5 -6.5
v 9.4 1 -5.7
v 9.4 1 -5.8
v 9.4 1 -6.5
v 9.4 1 -6.6
v 9.4 1.1 -5.8
v 9.4 1.1 -6.5
v 9.4 1.2 -5.8
v 9.4 1.2 -6.5
v 9.4 1.3 -5.7
v 9.4 1.3 -5.8
v 9.4 1.3 -6.5
v 9.4 1.3 -6.6
v 8.4 0.7 -5.6
v 8.4 0.7 -5.7
v 8.4 0.8 -5.7
v 8.4 1 -5.7
v 8.4 1.2 -5.6
v 8.4 1.2 -5.7
v 8.4 1.3 -5.6
v 8.4 1.3 -5.7
v 9.4 1.4 -5.8
v 9.4 1.4 -5.9
v 9.4 1.4 -6.4
v 9.4 1.4 -6.5
v 9.4 1.5 -5.8
v 9.4 1.5 -6.5
v 10 0.8 -5.7
v 10 0.8 -5.8
v 10 0.8 -6.5
v 10 0.8 -6.6
v 10 0.9 -5.7
v 10 0.9 -5.8
v 10 0.9 -6.5
v 10 0.9 -6.6
v 10 1.1 -5.8
v 10 1.1 -6.5
v 10 1.3 -5.7
v 10 1.3 -5.8
v 10 1.3 -6.5
v 10 1.3 -6.6
v 10 1.4 -5.8
v 10 1.4 -6.5
v 8.3 0.7 -5.6
v 8.3 1.2 -5.6
v 8.3 1.3 -5.6
v 8.4 0.7 -5.6
v 8.4 1.2 -5.6
v 8.4 1.3 -5.6
v 8.4 0.8 -5.7
v 8.4 1 -5.7
v 9.1 0.8 -5.7
v 9.1 0.9 -5.7
v 9.1 1 -5.7
v 9.4 1 -5.7
v 9.4 1.3 -5.7
v 9.5 1 -5.7
v 9.5 1.2 -5.7
v 9.9 1 -5.7
v 9.9 1.2 -5.7
v 10 0.8 -5.7
v 10 0.9 -5.7
v 10 1.3 -5.7
v 9.3 1.2 -5.8
v 9.3 1.5 -5.8
v 9.4 1.2 -5.8
v 9.4 1.3 -5.8
v 9.4 1.4 -5.8
v 9.4 1.5 -5.8
v 10 1.3 -5.8
v 10 1.4 -5.8
v 8.4 0.9 -6.5
v 8.4 1 -6.5
v 8.5 0.9 -6.5
v 8.6 0.9 -6.5
v 8.7 0.9 -6.5
v 8.8 0.9 -6.5
v 8.9 0.9 -6.5
v 9 0.9 -6.5
v 9.1 0.9 -6.5
v 9.1 1 -6.5
v 9.2 0.9 -6.5
v 9.4 0.9 -6.5
v 9.4 1 -6.5
v 9.4 1.1 -6.5
v 9.5 1 -6.5
v 9.5 1.1 -6.5
v 9.9 0.9 -6.5
v 9.9 1 -6.5
v 9.9 1.1 -6.5
v 10 0.9 -6.5
v 10 1.1 -6.5
v 8.3 0.7 -5.7
v 8.3 1.2 -5.7
v 8.3 1.3 -5.7
v 8.4 0.7 -5.7
v 8.4 0.8 -5.7
v 8.4 1 -5.7
v 8.4 1.2 -5.7
v 8.4 1.3 -5.7
v 8.4 0.9 -5.8
v 8.4 1 -5.8
v 8.5 0.9 -5.8
v 8.6 0.9 -5.8
v 8.7 0.9 -5.8
v 8.8 0.9 -5.8
v 8.9 0.9 -5.8
v 9 0.9 -5.8
v 9.1 0.9 -5.8
v 9.1 1 -5.8
v 9.2 0.9 -5.8
v 9.4 0.9 -5.8
v 9.4 1 -5.8
v 9.4 1.1 -5.8
v 9.5 1 -5.8
v 9.5 1.1 -5.8
v 9.9 0.9 -5.8
v 9.9 1 -5.8
v 9.9 1.1 -5.8
v 10 0.9 -5.8
v 10 1.1 -5.8
v 9.3 1.2 -6.5
v 9.3 1.5 -6.5
v 9.4 1.2 -6.5
v 9.4 1.3 -6.5
v 9.4 1.4 -6.5
v 9.4 1.5 -6.5
v 10 1.3 -6.5
v 10 1.4 -6.5
v 8.4 0.8 -6.6
v 8.4 1 -6.6
v 9.1 0.8 -6.6
v 9.1 0.9 -6.6
v 9.1 1 -6.6
v 9.4 1 -6.6
v 9.4 1.3 -6.6
v 9.5 1 -6.6
v 9.5 1.2 -6.6
v 9.9 1 -6.6
v 9.9 1.2 -6.6
v 10 0.8 -6.6
v 10 0.9 -6.6
v 10 1.3 -6.6
v 8.3 0.7 -5.6
v 8.4 0.7 -5.6
v 8.3 0.7 -5.7
v 8.4 0.7 -5.7
v 8.4 0.8 -5.7
v 9.1 0.8 -5.7
v 10 0.8 -5.7
v 8.4 0.8 -5.8
v 8.5 0.8 -5.8
v 8.6 0.8 -5.8
v 8.7 0.8 -5.8
v 8.8 0.8 -5.8
v 8.9 0.8 -5.8
v 9 0.8 -5.8
v 9.1 0.8 -5.8
v 9.2 0.8 -5.8
v 9.4 0.8 -5.8
v 9.9 0.8 -5.8
v 10 0.8 -5.8
v 8.4 0.8 -6.5
v 8.5 0.8 -6.5
v 8.6 0.8 -6.5
v 8.7 0.8 -6.5
v 8.8 0.8 -6.5
v 8.9 0.8 -6.5
v 9 0.8 -6.5
v 9.1 0.8 -6.5
v 9.2 0.8 -6.5
v 9.4 0.8 -6.5
v 9.9 0.8 -6.5
v 10 0.8 -6.5
v 8.4 0.8 -6.6
v 9.1 0.8 -6.6
v 10 0.8 -6.6
v 9.4 1.1 -5.8
v 9.5 1.1 -5.8
v 9.9 1.1 -5.8
v 10 1.1 -5.8
v 9.4 1.1 -6.5
v 9.5 1.1 -6.5
v 9.9 1.1 -6.5
v 10 1.1 -6.5
v 9.3 1.2 -5.8
v 9.4 1.2 -5.8
v 9.3 1.2 -6.5
v 9.4 1.2 -6.5
v 8.4 0.9 -5.8
v 8.5 0.9 -5.8
v 8.6 0.9 -5.8
v 8.7 0.9 -5.8
v 8.8 0.9 -5.8
v 8.9 0.9 -5.8
v 9 0.9 -5.8
v 9.1 0.9 -5.8
v 9.2 0.9 -5.8
v 9.4 0.9 -5.8
v 9.9 0.9 -5.8
v 10 0.9 -5.8
v 8.4 0.9 -6.5
v 8.5 0.9 -6.5
v 8.6 0.9 -6.5
v 8.7 0.9 -6.5
v 8.8 0.9 -6.5
v 8.9 0.9 -6.5
v 9 0.9 -6.5
v 9.1 0.9 -6.5
v 9.2 0.9 -6.5
v 9.4 0.9 -6.5
v 9.9 0.9 -6.5
v 10 0.9 -6.5
v 8.4 1 -5.7
v 9.1 1 -5.7
v 9.4 1 -5.7
v 8.4 1 -5.8
v 9.1 1 -5.8
v 9.4 1 -5.8
v 8.4 1 -6.5
v 9.1 1 -6.5
v 9.4 1 -6.5
v 8.4 1 -6.6
v 9.1 1 -6.6
v 9.4 1 -6.6
v 8.3 1.3 -5.6
v 8.4 1.3 -5.6
v 8.3 1.3 -5.7
v 8.4 1.3 -5.7
v 9.4 1.3 -5.7
v 10 1.3 -5.7
v 9.4 1.3 -5.8
v 10 1.3 -5.8
v 9.4 1.3 -6.5
v 10 1.3 -6.5
v 9.4 1.3 -6.6
v 10 1.3 -6.6
v 9.4 1.4 -5.8
v 10 1.4 -5.8
v 9.4 1.4 -5.9
v 9.5 1.4 -5.9
v 9.6 1.4 -5.9
v 9.9 1.4 -5.9
v 9.7 1.4 -6.1
v 9.9 1.4 -6.1
v 9.7 1.4 -6.2
v 9.8 1.4 -6.2
v 9.6 1.4 -6.3
v 9.8 1.4 -6.3
v 9.4 1.4 -6.4
v 9.5 1.4 -6.4
v 9.9 1.4 -6.4
v 9.4 1.4 -6.5
v 10 1.4 -6.5
v 9.3 1.5 -5.8
v 9.4 1.5 -5.8
v 9.3 1.5 -6.5
v 9.4 1.5 -6.5

# faces
f 3/7/1 2/7/1 1/7/1
f 4/7/1 2/7/1 3/7/1
f 5/3/1 4/3/1 3/3/1
f 6/3/1 4/3/1 5/3/1
f 11/2/1 8/2/1 7/2/1
f 11/8/1 9/8/1 8/8/1
f 12/2/1 10/2/1 9/2/1
f 12/8/1 9/8/1 11/8/1
f 13/2/1 11/2/1 7/2/1
f 14/2/1 11/2/1 13/2/1
f 15/2/1 10/2/1 12/2/1
f 16/2/1 10/2/1 15/2/1
f 19/5/1 18/5/1 17/5/1
f 20/5/1 18/5/1 19/5/1
f 21/5/1 19/5/1 17/5/1
f 21/4/1 20/4/1 19/4/1
f 22/5/1 18/5/1 20/5/1
f 22/4/1 20/4/1 21/4/1
f 23/5/1 21/5/1 17/5/1
f 23/5/1 22/5/1 21/5/1
f 24/5/1 18/5/1 22/5/1
f 24/5/1 22/5/1 23/5/1
f 29/4/1 26/4/1 25/4/1
f 30/4/1 28/4/1 27/4/1
f 31/4/1 29/4/1 25/4/1
f 31/4/1 30/4/1 29/4/1
f 32/4/1 28/4/1 30/4/1
f 32/4/1 30/4/1 31/4/1
f 33/4/1 31/4/1 25/4/1
f 34/4/1 31/4/1 33/4/1
f 35/4/1 28/4/1 32/4/1
f 36/4/1 28/4/1 35/4/1
f 37/7/2 38/7/2 39/7/2
f 37/7/2 39/7/2 40/7/2
f 37/7/2 40/7/2 41/7/2
f 41/7/2 40/7/2 42/7/2
f 41/3/2 42/3/2 43/3/2
f 43/3/2 42/3/2 44/3/2
f 45/5/2 46/5/2 49/5/2
f 47/5/2 48/5/2 49/5/2
f 46/5/2 47/5/2 49/5/2
f 49/5/2 48/5/2 50/5/2
f 51/5/2 52/5/2 55/5/2
f 52/8/2 53/8/2 56/8/2
f 55/5/2 52/5/2 56/5/2
f 53/5/2 54/5/2 57/5/2
f 56/8/2 53/8/2 57/8/2
f 57/5/2 54/5/2 58/5/2
f 55/4/2 56/4/2 59/4/2
f 57/4/2 58/4/2 60/4/2
f 55/4/2 59/4/2 61/4/2
f 59/4/2 60/4/2 61/4/2
f 61/4/2 60/4/2 62/4/2
f 60/4/2 58/4/2 63/4/2
f 62/4/2 60/4/2 63/4/2
f 63/4/2 58/4/2 64/4/2
f 62/5/2 63/5/2 65/5/2
f 65/5/2 63/5/2 66/5/2
f 70/7/3 68/7/3 67/7/3
f 71/3/3 69/3/3 68/3/3
f 71/7/3 68/7/3 70/7/3
f 72/3/3 69/3/3 71/3/3
f 75/2/3 74/2/3 73/2/3
f 76/2/3 74/2/3 75/2/3
f 77/2/3 74/2/3 76/2/3
f 78/4/3 77/4/3 76/4/3
f 80/4/3 78/4/3 76/4/3
f 80/4/3 79/4/3 78/4/3
f 81/4/3 79/4/3 80/4/3
f 82/4/3 80/4/3 76/4/3
f 82/5/3 81/5/3 80/5/3
f 83/4/3 79/4/3 81/4/3
f 83/5/3 81/5/3 82/5/3
f 84/5/3 76/5/3 75/5/3
f 85/4/3 82/4/3 76/4/3
f 85/5/3 76/5/3 84/5/3
f 85/4/3 83/4/3 82/4/3
f 86/4/3 79/4/3 83/4/3
f 86/4/3 83/4/3 85/4/3
f 89/5/3 88/5/3 87/5/3
f 90/5/3 88/5/3 89/5/3
f 91/5/3 88/5/3 90/5/3
f 92/5/3 88/5/3 91/5/3
f 93/5/3 91/5/3 90/5/3
f 94/5/3 91/5/3 93/5/3
f 97/2/3 96/2/3 95/2/3
f 98/2/3 96/2/3 97/2/3
f 99/2/3 96/2/3 98/2/3
f 100/2/3 96/2/3 99/2/3
f 101/2/3 96/2/3 100/2/3
f 102/2/3 96/2/3 101/2/3
f 103/2/3 96/2/3 102/2/3
f 104/2/3 96/2/3 103/2/3
f 105/4/3 104/4/3 103/4/3
f 106/4/3 104/4/3 105/4/3
f 107/4/3 104/4/3 106/4/3
f 109/4/3 107/4/3 106/4/3
f 109/4/3 108/4/3 107/4/3
f 110/4/3 108/4/3 109/4/3
f 111/4/3 109/4/3 106/4/3
f 112/5/3 110/5/3 109/5/3
f 112/4/3 109/4/3 111/4/3
f 113/5/3 110/5/3 112/5/3
f 114/4/3 112/4/3 111/4/3
f 114/4/3 113/4/3 112/4/3
f 115/4/3 113/4/3 114/4/3
f 116/7/4 117/7/4 119/7/4
f 119/7/4 117/7/4 120/7/4
f 120/7/4 117/7/4 121/7/4
f 117/3/4 118/3/4 122/3/4
f 121/7/4 117/7/4 122/7/4
f 122/3/4 118/3/4 123/3/4
f 124/2/4 125/2/4 126/2/4
f 126/2/4 125/2/4 127/2/4
f 127/2/4 125/2/4 128/2/4
f 128/2/4 125/2/4 129/2/4
f 129/2/4 125/2/4 130/2/4
f 130/2/4 125/2/4 131/2/4
f 131/2/4 125/2/4 132/2/4
f 132/2/4 125/2/4 133/2/4
f 132/4/4 133/4/4 134/4/4
f 134/4/4 133/4/4 135/4/4
f 135/4/4 133/4/4 136/4/4
f 135/4/4 136/4/4 138/4/4
f 136/4/4 137/4/4 138/4/4
f 138/4/4 137/4/4 139/4/4
f 135/4/4 138/4/4 140/4/4
f 138/5/4 139/5/4 141/5/4
f 140/4/4 138/4/4 141/4/4
f 141/5/4 139/5/4 142/5/4
f 140/4/4 141/4/4 143/4/4
f 141/4/4 142/4/4 143/4/4
f 143/4/4 142/4/4 144/4/4
f 145/5/4 146/5/4 147/5/4
f 147/5/4 146/5/4 148/5/4
f 148/5/4 146/5/4 149/5/4
f 149/5/4 146/5/4 150/5/4
f 148/5/4 149/5/4 151/5/4
f 151/5/4 149/5/4 152/5/4
f 153/2/4 154/2/4 155/2/4
f 155/2/4 154/2/4 156/2/4
f 156/2/4 154/2/4 157/2/4
f 156/4/4 157/4/4 158/4/4
f 156/4/4 158/4/4 160/4/4
f 158/4/4 159/4/4 160/4/4
f 160/4/4 159/4/4 161/4/4
f 156/4/4 160/4/4 162/4/4
f 160/5/4 161/5/4 162/5/4
f 161/4/4 159/4/4 163/4/4
f 162/5/4 161/5/4 163/5/4
f 155/5/4 156/5/4 164/5/4
f 156/4/4 162/4/4 165/4/4
f 164/5/4 156/5/4 165/5/4
f 162/4/4 163/4/4 165/4/4
f 163/4/4 159/4/4 166/4/4
f 165/4/4 163/4/4 166/4/4
f 169/7/5 168/7/5 167/7/5
f 170/7/5 168/7/5 169/7/5
f 174/2/5 172/2/5 171/2/5
f 175/2/5 172/2/5 174/2/5
f 176/2/5 172/2/5 175/2/5
f 177/2/5 172/2/5 176/2/5
f 178/2/5 172/2/5 177/2/5
f 179/2/5 172/2/5 178/2/5
f 180/2/5 172/2/5 179/2/5
f 181/5/5 173/5/5 172/5/5
f 181/2/5 172/2/5 180/2/5
f 182/5/5 173/5/5 181/5/5
f 183/5/5 173/5/5 182/5/5
f 184/5/5 173/5/5 183/5/5
f 185/5/5 173/5/5 184/5/5
f 186/8/5 175/8/5 174/8/5
f 187/6/5 176/6/5 175/6/5
f 187/8/5 175/8/5 186/8/5
f 188/8/5 177/8/5 176/8/5
f 188/6/5 176/6/5 187/6/5
f 189/6/5 178/6/5 177/6/5
f 189/8/5 177/8/5 188/8/5
f 190/8/5 179/8/5 178/8/5
f 190/6/5 178/6/5 189/6/5
f 191/6/5 180/6/5 179/6/5
f 191/8/5 179/8/5 190/8/5
f 192/8/5 181/8/5 180/8/5
f 192/6/5 180/6/5 191/6/5
f 193/6/5 182/6/5 181/6/5
f 193/8/5 181/8/5 192/8/5
f 194/8/5 183/8/5 182/8/5
f 194/6/5 182/6/5 193/6/5
f 195/6/5 184/6/5 183/6/5
f 195/8/5 183/8/5 194/8/5
f 196/8/5 185/8/5 184/8/5
f 196/6/5 184/6/5 195/6/5
f 197/8/5 185/8/5 196/8/5
f 198/2/5 190/2/5 189/2/5
f 198/2/5 187/2/5 186/2/5
f 198/2/5 188/2/5 187/2/5
f 198/2/5 189/2/5 188/2/5
f 198/2/5 191/2/5 190/2/5
f 198/2/5 192/2/5 191/2/5
f 198/2/5 193/2/5 192/2/5
f 199/5/5 197/5/5 196/5/5
f 199/2/5 193/2/5 198/2/5
f 199/5/5 196/5/5 195/5/5
f 199/5/5 194/5/5 193/5/5
f 199/5/5 195/5/5 194/5/5
f 200/5/5 197/5/5 199/5/5
f 205/4/5 202/4/5 201/4/5
f 206/1/5 203/1/5 202/1/5
f 206/4/5 202/4/5 205/4/5
f 207/4/5 204/4/5 203/4/5
f 207/1/5 203/1/5 206/1/5
f 208/4/5 204/4/5 207/4/5
f 211/5/5 210/5/5 209/5/5
f 212/5/5 210/5/5 211/5/5
f 213/8/6 214/8/6 225/8/6
f 214/6/6 215/6/6 226/6/6
f 225/8/6 214/8/6 226/8/6
f 215/8/6 216/8/6 227/8/6
f 226/6/6 215/6/6 227/6/6
f 216/6/6 217/6/6 228/6/6
f 227/8/6 216/8/6 228/8/6
f 217/8/6 218/8/6 229/8/6
f 228/6/6 217/6/6 229/6/6
f 218/6/6 219/6/6 230/6/6
f 229/8/6 218/8/6 230/8/6
f 219/8/6 220/8/6 231/8/6
f 230/6/6 219/6/6 231/6/6
f 220/6/6 221/6/6 232/6/6
f 231/8/6 220/8/6 232/8/6
f 221/8/6 222/8/6 233/8/6
f 232/6/6 221/6/6 233/6/6
f 222/6/6 223/6/6 234/6/6
f 233/8/6 222/8/6 234/8/6
f 223/8/6 224/8/6 235/8/6
f 234/6/6 223/6/6 235/6/6
f 235/8/6 224/8/6 236/8/6
f 237/2/6 238/2/6 240/2/6
f 238/4/6 239/4/6 241/4/6
f 240/2/6 238/2/6 241/2/6
f 241/4/6 239/4/6 242/4/6
f 243/2/6 244/2/6 246/2/6
f 244/4/6 245/4/6 247/4/6
f 246/2/6 244/2/6 247/2/6
f 247/4/6 245/4/6 248/4/6
f 249/3/6 250/3/6 251/3/6
f 251/3/6 250/3/6 252/3/6
f 253/4/6 254/4/6 255/4/6
f 255/4/6 254/4/6 256/4/6
f 257/4/6 258/4/6 259/4/6
f 259/4/6 258/4/6 260/4/6
f 261/5/6 262/5/6 263/5/6
f 263/5/6 262/5/6 264/5/6
f 264/5/6 262/5/6 265/5/6
f 265/5/6 262/5/6 266/5/6
f 265/4/6 266/4/6 267/4/6
f 266/5/6 262/5/6 268/5/6
f 267/4/6 266/4/6 268/4/6
f 265/4/6 267/4/6 269/4/6
f 267/8/6 268/8/6 269/8/6
f 269/8/6 268/8/6 270/8/6
f 264/8/6 265/8/6 271/8/6
f 265/4/6 269/4/6 271/4/6
f 269/4/6 270/4/6 271/4/6
f 270/8/6 268/8/6 272/8/6
f 271/4/6 270/4/6 272/4/6
f 263/4/6 264/4/6 273/4/6
f 264/8/6 271/8/6 274/8/6
f 273/4/6 264/4/6 274/4/6
f 271/8/6 272/8/6 274/8/6
f 272/8/6 268/8/6 275/8/6
f 274/8/6 272/8/6 275/8/6
f 268/5/6 262/5/6 275/5/6
f 273/5/6 274/5/6 276/5/6
f 274/5/6 275/5/6 276/5/6
f 275/5/6 262/5/6 277/5/6
f 276/5/6 275/5/6 277/5/6
f 278/5/6 279/5/6 280/5/6
f 280/5/6 279/5/6 281/5/6
