{
    "asset" : {
        "generator" : "Khronos glTF Blender I/O v1.0.5",
        "version" : "2.0"
    },
    "scene" : 0,
    "scenes" : [
        {
            "name" : "Scene",
            "nodes" : [
                0,
                1,
                17
            ]
        }
    ],
    "nodes" : [
        {
            "name" : "Light",
            "rotation" : [
                0.16907575726509094,
                0.7558803558349609,
                -0.27217137813568115,
                0.570947527885437
            ],
            "translation" : [
                4.076245307922363,
                5.903861999511719,
                -1.0054539442062378
            ]
        },
        {
            "name" : "Camera",
            "rotation" : [
                0.483536034822464,
                0.33687159419059753,
                -0.20870360732078552,
                0.7804827094078064
            ],
            "translation" : [
                7.358891487121582,
                4.958309173583984,
                6.925790786743164
            ]
        },
        {
            "name" : "Camera.001",
            "rotation" : [
                0.483536034822464,
                -0.20870360732078552,
                -0.33687159419059753,
                0.7804827094078064
            ],
            "translation" : [
                7.358891487121582,
                6.925790786743164,
                -4.958309173583984
            ]
        },
        {
            "name" : "Light.001",
            "rotation" : [
                0.16907577216625214,
                -0.27217140793800354,
                -0.7558803558349609,
                0.5709474682807922
            ],
            "translation" : [
                4.076245307922363,
                -1.0054539442062378,
                -5.903861999511719
            ]
        },
        {
            "name" : "Camera.002",
            "rotation" : [
                0.483536034822464,
                -0.33687159419059753,
                0.20870360732078552,
                0.7804827094078064
            ],
            "translation" : [
                7.358891487121582,
                -4.958309173583984,
                -6.925790786743164
            ]
        },
        {
            "name" : "Camera.003",
            "rotation" : [
                0.8937963247299194,
                -0.09062900394201279,
                0.3857799768447876,
                0.20997236669063568
            ],
            "translation" : [
                7.358891487121582,
                -4.958308696746826,
                -6.925792217254639
            ]
        },
        {
            "name" : "Light.002",
            "rotation" : [
                0.16907575726509094,
                -0.7558803558349609,
                0.2721714377403259,
                0.5709474682807922
            ],
            "translation" : [
                4.076245307922363,
                -5.903861999511719,
                1.0054539442062378
            ]
        },
        {
            "name" : "Light.003",
            "rotation" : [
                0.5232754349708557,
                -0.34203392267227173,
                0.7269424200057983,
                0.2841660678386688
            ],
            "translation" : [
                4.12216854095459,
                -5.903862476348877,
                1.286503553390503
            ]
        },
        {
            "mesh" : 0,
            "name" : "Object_0",
            "translation" : [
                0,
                0,
                -0.5141274929046631
            ]
        },
        {
            "children" : [
                8
            ],
            "name" : "Node",
            "translation" : [
                -0.9703099727630615,
                2.776634454727173,
                0.40266987681388855
            ]
        },
        {
            "name" : "Node.002",
            "rotation" : [
                1,
                0,
                0,
                -1.3435885648505064e-07
            ],
            "translation" : [
                -1.1172446012496948,
                1.9825098514556885,
                1.2864054441452026
            ]
        },
        {
            "name" : "Node.003",
            "rotation" : [
                1,
                0,
                0,
                -1.3435885648505064e-07
            ],
            "translation" : [
                4.11012077331543,
                0,
                0.2810507118701935
            ]
        },
        {
            "name" : "Node.012",
            "translation" : [
                -0.5371710658073425,
                2.675908088684082,
                -3.501598358154297
            ]
        },
        {
            "name" : "Node.013",
            "translation" : [
                -0.7560184597969055,
                0.3717884123325348,
                -1.6695306301116943
            ]
        },
        {
            "name" : "Node.014",
            "rotation" : [
                -0.219415083527565,
                0,
                0,
                0.9756316542625427
            ],
            "translation" : [
                -0.5328333973884583,
                0.8885008692741394,
                -2.8255252838134766
            ]
        },
        {
            "name" : "Node.015",
            "rotation" : [
                0.8106034994125366,
                0,
                0,
                0.5855955481529236
            ],
            "scale" : [
                0.8105095028877258,
                0.8105095624923706,
                0.8105095624923706
            ],
            "translation" : [
                -0.2954784631729126,
                -1.3304283618927002,
                -2.8963334560394287
            ]
        },
        {
            "children" : [
                4,
                5,
                6,
                7,
                9,
                10,
                11,
                12,
                13,
                14,
                15
            ],
            "name" : "Yup2Zup.001",
            "rotation" : [
                0.7071068286895752,
                0,
                0,
                0.7071068286895752
            ]
        },
        {
            "children" : [
                2,
                3,
                16
            ],
            "name" : "Yup2Zup",
            "rotation" : [
                0.7071067690849304,
                0,
                0,
                0.7071067690849304
            ]
        }
    ],
    "animations" : [
        {
            "channels" : [
                {
                    "sampler" : 0,
                    "target" : {
                        "node" : 8,
                        "path" : "rotation"
                    }
                }
            ],
            "name" : "Object_0Action_Object_0_Object_0",
            "samplers" : [
                {
                    "input" : 25,
                    "interpolation" : "LINEAR",
                    "output" : 26
                }
            ]
        }
    ],
    "materials" : [
        {
            "name" : "palette",
            "pbrMetallicRoughness" : {
                "baseColorTexture" : {
                    "index" : 0,
                    "texCoord" : 0
                },
                "metallicFactor" : 0.5,
                "roughnessFactor" : 0.5
            }
        },
        {
            "name" : "palette.005",
            "pbrMetallicRoughness" : {
                "baseColorTexture" : {
                    "index" : 1,
                    "texCoord" : 0
                },
                "metallicFactor" : 0.5,
                "roughnessFactor" : 0.5
            }
        },
        {
            "name" : "palette.008",
            "pbrMetallicRoughness" : {
                "baseColorTexture" : {
                    "index" : 2,
                    "texCoord" : 0
                },
                "metallicFactor" : 0.5,
                "roughnessFactor" : 0.5
            }
        },
        {
            "name" : "palette.009",
            "pbrMetallicRoughness" : {
                "baseColorTexture" : {
                    "index" : 3,
                    "texCoord" : 0
                },
                "metallicFactor" : 0.5,
                "roughnessFactor" : 0.5
            }
        },
        {
            "name" : "palette.010",
            "pbrMetallicRoughness" : {
                "baseColorTexture" : {
                    "index" : 4,
                    "texCoord" : 0
                },
                "metallicFactor" : 0.5,
                "roughnessFactor" : 0.5
            }
        },
        {
            "name" : "palette.011",
            "pbrMetallicRoughness" : {
                "baseColorTexture" : {
                    "index" : 5,
                    "texCoord" : 0
                },
                "metallicFactor" : 0.5,
                "roughnessFactor" : 0.5
            }
        },
        {
            "name" : "palette.003",
            "pbrMetallicRoughness" : {
                "baseColorTexture" : {
                    "index" : 6,
                    "texCoord" : 0
                },
                "metallicFactor" : 0.5,
                "roughnessFactor" : 0.5
            }
        }
    ],
    "meshes" : [
        {
            "name" : "Mesh_0",
            "primitives" : [
                {
                    "attributes" : {
                        "POSITION" : 0,
                        "NORMAL" : 1,
                        "TEXCOORD_0" : 2
                    },
                    "indices" : 3,
                    "material" : 0
                },
                {
                    "attributes" : {
                        "POSITION" : 4,
                        "NORMAL" : 5,
                        "TEXCOORD_0" : 6
                    },
                    "indices" : 7,
                    "material" : 1
                },
                {
                    "attributes" : {
                        "POSITION" : 8,
                        "NORMAL" : 9,
                        "TEXCOORD_0" : 10
                    },
                    "indices" : 11,
                    "material" : 2
                },
                {
                    "attributes" : {
                        "POSITION" : 12,
                        "NORMAL" : 13,
                        "TEXCOORD_0" : 14
                    },
                    "indices" : 15,
                    "material" : 3
                },
                {
                    "attributes" : {
                        "POSITION" : 16,
                        "NORMAL" : 17,
                        "TEXCOORD_0" : 18
                    },
                    "indices" : 15,
                    "material" : 4
                },
                {
                    "attributes" : {
                        "POSITION" : 19,
                        "NORMAL" : 20,
                        "TEXCOORD_0" : 21
                    },
                    "indices" : 15,
                    "material" : 5
                },
                {
                    "attributes" : {
                        "POSITION" : 22,
                        "NORMAL" : 23,
                        "TEXCOORD_0" : 24
                    },
                    "indices" : 7,
                    "material" : 6
                }
            ]
        }
    ],
    "textures" : [
        {
            "source" : 0
        },
        {
            "source" : 0
        },
        {
            "source" : 1
        },
        {
            "source" : 2
        },
        {
            "source" : 2
        },
        {
            "source" : 2
        },
        {
            "source" : 0
        }
    ],
    "images" : [
        {
            "bufferView" : 4,
            "mimeType" : "image/png",
            "name" : "Image_0"
        },
        {
            "bufferView" : 13,
            "mimeType" : "image/png",
            "name" : "Image_1"
        },
        {
            "bufferView" : 18,
            "mimeType" : "image/png",
            "name" : "Image_2"
        }
    ],
    "accessors" : [
        {
            "bufferView" : 0,
            "componentType" : 5126,
            "count" : 2712,
            "max" : [
                1.9788662195205688,
                -1.6612060070037842,
                1.6009217500686646
            ],
            "min" : [
                0.07886626571416855,
                -4.461206436157227,
                0.10092173516750336
            ],
            "type" : "VEC3"
        },
        {
            "bufferView" : 1,
            "componentType" : 5126,
            "count" : 2712,
            "type" : "VEC3"
        },
        {
            "bufferView" : 2,
            "componentType" : 5126,
            "count" : 2712,
            "type" : "VEC2"
        },
        {
            "bufferView" : 3,
            "componentType" : 5123,
            "count" : 2712,
            "type" : "SCALAR"
        },
        {
            "bufferView" : 5,
            "componentType" : 5126,
            "count" : 180,
            "max" : [
                0.4733150899410248,
                -2.60709285736084,
                0.03565838932991028
            ],
            "min" : [
                0.0733150839805603,
                -3.0070929527282715,
                -0.36434176564216614
            ],
            "type" : "VEC3"
        },
        {
            "bufferView" : 6,
            "componentType" : 5126,
            "count" : 180,
            "type" : "VEC3"
        },
        {
            "bufferView" : 7,
            "componentType" : 5126,
            "count" : 180,
            "type" : "VEC2"
        },
        {
            "bufferView" : 8,
            "componentType" : 5123,
            "count" : 180,
            "type" : "SCALAR"
        },
        {
            "bufferView" : 9,
            "componentType" : 5126,
            "count" : 912,
            "max" : [
                1.8730261325836182,
                -1.663416862487793,
                -0.19841480255126953
            ],
            "min" : [
                0.03484088182449341,
                -3.835817575454712,
                -1.5352766513824463
            ],
            "type" : "VEC3"
        },
        {
            "bufferView" : 10,
            "componentType" : 5126,
            "count" : 912,
            "type" : "VEC3"
        },
        {
            "bufferView" : 11,
            "componentType" : 5126,
            "count" : 912,
            "type" : "VEC2"
        },
        {
            "bufferView" : 12,
            "componentType" : 5123,
            "count" : 912,
            "type" : "SCALAR"
        },
        {
            "bufferView" : 14,
            "componentType" : 5126,
            "count" : 900,
            "max" : [
                1.2615762948989868,
                -3.3495943546295166,
                -0.451343834400177
            ],
            "min" : [
                0.2110435664653778,
                -4.257649898529053,
                -1.2130310535430908
            ],
            "type" : "VEC3"
        },
        {
            "bufferView" : 15,
            "componentType" : 5126,
            "count" : 900,
            "type" : "VEC3"
        },
        {
            "bufferView" : 16,
            "componentType" : 5126,
            "count" : 900,
            "type" : "VEC2"
        },
        {
            "bufferView" : 17,
            "componentType" : 5123,
            "count" : 900,
            "type" : "SCALAR"
        },
        {
            "bufferView" : 19,
            "componentType" : 5126,
            "count" : 900,
            "max" : [
                1.6374766826629639,
                -3.4957265853881836,
                -0.5592665672302246
            ],
            "min" : [
                0.7374765872955322,
                -4.066536903381348,
                -1.4154229164123535
            ],
            "type" : "VEC3"
        },
        {
            "bufferView" : 20,
            "componentType" : 5126,
            "count" : 900,
            "type" : "VEC3"
        },
        {
            "bufferView" : 21,
            "componentType" : 5126,
            "count" : 900,
            "type" : "VEC2"
        },
        {
            "bufferView" : 22,
            "componentType" : 5126,
            "count" : 900,
            "max" : [
                1.6474429368972778,
                -3.5175113677978516,
                -0.44109857082366943
            ],
            "min" : [
                0.9179843664169312,
                -4.235501289367676,
                -0.8501789569854736
            ],
            "type" : "VEC3"
        },
        {
            "bufferView" : 23,
            "componentType" : 5126,
            "count" : 900,
            "type" : "VEC3"
        },
        {
            "bufferView" : 24,
            "componentType" : 5126,
            "count" : 900,
            "type" : "VEC2"
        },
        {
            "bufferView" : 25,
            "componentType" : 5126,
            "count" : 180,
            "max" : [
                1.9555457830429077,
                -2.5922863483428955,
                0.029450595378875732
            ],
            "min" : [
                1.5555458068847656,
                -2.992286443710327,
                -0.3705495595932007
            ],
            "type" : "VEC3"
        },
        {
            "bufferView" : 26,
            "componentType" : 5126,
            "count" : 180,
            "type" : "VEC3"
        },
        {
            "bufferView" : 27,
            "componentType" : 5126,
            "count" : 180,
            "type" : "VEC2"
        },
        {
            "bufferView" : 28,
            "componentType" : 5126,
            "count" : 48,
            "max" : [
                2
            ],
            "min" : [
                0.041666666666666664
            ],
            "type" : "SCALAR"
        },
        {
            "bufferView" : 29,
            "componentType" : 5126,
            "count" : 48,
            "type" : "VEC4"
        }
    ],
    "bufferViews" : [
        {
            "buffer" : 0,
            "byteLength" : 32544,
            "byteOffset" : 0
        },
        {
            "buffer" : 0,
            "byteLength" : 32544,
            "byteOffset" : 32544
        },
        {
            "buffer" : 0,
            "byteLength" : 21696,
            "byteOffset" : 65088
        },
        {
            "buffer" : 0,
            "byteLength" : 5424,
            "byteOffset" : 86784
        },
        {
            "buffer" : 0,
            "byteLength" : 985,
            "byteOffset" : 92208
        },
        {
            "buffer" : 0,
            "byteLength" : 2160,
            "byteOffset" : 93196
        },
        {
            "buffer" : 0,
            "byteLength" : 2160,
            "byteOffset" : 95356
        },
        {
            "buffer" : 0,
            "byteLength" : 1440,
            "byteOffset" : 97516
        },
        {
            "buffer" : 0,
            "byteLength" : 360,
            "byteOffset" : 98956
        },
        {
            "buffer" : 0,
            "byteLength" : 10944,
            "byteOffset" : 99316
        },
        {
            "buffer" : 0,
            "byteLength" : 10944,
            "byteOffset" : 110260
        },
        {
            "buffer" : 0,
            "byteLength" : 7296,
            "byteOffset" : 121204
        },
        {
            "buffer" : 0,
            "byteLength" : 1824,
            "byteOffset" : 128500
        },
        {
            "buffer" : 0,
            "byteLength" : 985,
            "byteOffset" : 130324
        },
        {
            "buffer" : 0,
            "byteLength" : 10800,
            "byteOffset" : 131312
        },
        {
            "buffer" : 0,
            "byteLength" : 10800,
            "byteOffset" : 142112
        },
        {
            "buffer" : 0,
            "byteLength" : 7200,
            "byteOffset" : 152912
        },
        {
            "buffer" : 0,
            "byteLength" : 1800,
            "byteOffset" : 160112
        },
        {
            "buffer" : 0,
            "byteLength" : 985,
            "byteOffset" : 161912
        },
        {
            "buffer" : 0,
            "byteLength" : 10800,
            "byteOffset" : 162900
        },
        {
            "buffer" : 0,
            "byteLength" : 10800,
            "byteOffset" : 173700
        },
        {
            "buffer" : 0,
            "byteLength" : 7200,
            "byteOffset" : 184500
        },
        {
            "buffer" : 0,
            "byteLength" : 10800,
            "byteOffset" : 191700
        },
        {
            "buffer" : 0,
            "byteLength" : 10800,
            "byteOffset" : 202500
        },
        {
            "buffer" : 0,
            "byteLength" : 7200,
            "byteOffset" : 213300
        },
        {
            "buffer" : 0,
            "byteLength" : 2160,
            "byteOffset" : 220500
        },
        {
            "buffer" : 0,
            "byteLength" : 2160,
            "byteOffset" : 222660
        },
        {
            "buffer" : 0,
            "byteLength" : 1440,
            "byteOffset" : 224820
        },
        {
            "buffer" : 0,
            "byteLength" : 192,
            "byteOffset" : 226260
        },
        {
            "buffer" : 0,
            "byteLength" : 768,
            "byteOffset" : 226452
        }
    ],
    "buffers" : [
        {
            "byteLength" : 227220,
            "uri" : "data:application/octet-stream;base64,"
        }
    ]
}
