{
    "asset" : {
        "generator" : "Khronos glTF Blender I/O v1.0.5",
        "version" : "2.0"
    },
    "scene" : 0,
    "scenes" : [
        {
            "name" : "Scene",
            "nodes" : [
                0,
                1,
                20
            ]
        }
    ],
    "nodes" : [
        {
            "name" : "Light",
            "rotation" : [
                0.16907575726509094,
                0.7558803558349609,
                -0.27217137813568115,
                0.570947527885437
            ],
            "translation" : [
                4.076245307922363,
                5.903861999511719,
                -1.0054539442062378
            ]
        },
        {
            "name" : "Camera",
            "rotation" : [
                0.483536034822464,
                0.33687159419059753,
                -0.20870360732078552,
                0.7804827094078064
            ],
            "translation" : [
                7.358891487121582,
                4.958309173583984,
                6.925790786743164
            ]
        },
        {
            "name" : "Camera.001",
            "rotation" : [
                0.483536034822464,
                -0.20870360732078552,
                -0.33687159419059753,
                0.7804827094078064
            ],
            "translation" : [
                7.358891487121582,
                6.925790786743164,
                -4.958309173583984
            ]
        },
        {
            "name" : "Light.001",
            "rotation" : [
                0.16907577216625214,
                -0.27217140793800354,
                -0.7558803558349609,
                0.5709474682807922
            ],
            "translation" : [
                4.076245307922363,
                -1.0054539442062378,
                -5.903861999511719
            ]
        },
        {
            "name" : "Camera.002",
            "rotation" : [
                0.483536034822464,
                -0.33687159419059753,
                0.20870360732078552,
                0.7804827094078064
            ],
            "translation" : [
                7.358891487121582,
                -4.958309173583984,
                -6.925790786743164
            ]
        },
        {
            "name" : "Camera.003",
            "rotation" : [
                0.8937963247299194,
                -0.09062900394201279,
                0.3857799768447876,
                0.20997236669063568
            ],
            "translation" : [
                7.358891487121582,
                -4.958308696746826,
                -6.925792217254639
            ]
        },
        {
            "name" : "Light.002",
            "rotation" : [
                0.16907575726509094,
                -0.7558803558349609,
                0.2721714377403259,
                0.5709474682807922
            ],
            "translation" : [
                4.076245307922363,
                -5.903861999511719,
                1.0054539442062378
            ]
        },
        {
            "name" : "Light.003",
            "rotation" : [
                0.5232754349708557,
                -0.34203392267227173,
                0.7269424200057983,
                0.2841660678386688
            ],
            "translation" : [
                4.076245307922363,
                -5.903862476348877,
                1.0054532289505005
            ]
        },
        {
            "name" : "Light.004",
            "rotation" : [
                -0.5709477066993713,
                -0.2721712589263916,
                -0.7558803558349609,
                0.16907550394535065
            ],
            "translation" : [
                4.12216854095459,
                -5.903862953186035,
                1.7035207748413086
            ]
        },
        {
            "name" : "Light.043",
            "rotation" : [
                -0.2841665744781494,
                -0.726942241191864,
                -0.34203413128852844,
                0.5232753157615662
            ],
            "translation" : [
                4.076245307922363,
                -5.903863430023193,
                1.0054517984390259
            ]
        },
        {
            "mesh" : 0,
            "name" : "Object_0.000",
            "translation" : [
                0,
                0,
                -0.4213794469833374
            ]
        },
        {
            "children" : [
                10
            ],
            "name" : "Node.001",
            "rotation" : [
                1,
                0,
                0,
                -1.3435885648505064e-07
            ],
            "translation" : [
                -0.9042116403579712,
                3.1161561012268066,
                -0.04866758733987808
            ]
        },
        {
            "name" : "Node.004",
            "translation" : [
                -0.9028120636940002,
                2.174119234085083,
                -0.46637338399887085
            ]
        },
        {
            "name" : "Node.005",
            "translation" : [
                2.1447763442993164,
                0,
                0
            ]
        },
        {
            "name" : "Node.008",
            "rotation" : [
                0.7071068286895752,
                0,
                0,
                0.7071067094802856
            ],
            "translation" : [
                -0.5831285119056702,
                2.6460673809051514,
                -5.54090690612793
            ]
        },
        {
            "name" : "Node.009",
            "rotation" : [
                0.6857974529266357,
                -0.07604500651359558,
                -0.003279399825260043,
                0.72380131483078
            ],
            "translation" : [
                -0.4737957715988159,
                2.043858289718628,
                -5.361147403717041
            ]
        },
        {
            "name" : "Node.010",
            "rotation" : [
                0.640195369720459,
                0.4965694844722748,
                0.14284424483776093,
                0.5684753656387329
            ],
            "scale" : [
                0.6480578780174255,
                0.6480579972267151,
                0.6480578780174255
            ],
            "translation" : [
                -1.8088459968566895,
                -0.2058265656232834,
                -4.215094089508057
            ]
        },
        {
            "name" : "Node.011",
            "rotation" : [
                0.7309837341308594,
                -0.5591928362846375,
                -0.3627561330795288,
                0.14619889855384827
            ],
            "scale" : [
                0.6296964883804321,
                0.6296964883804321,
                0.6296965479850769
            ],
            "translation" : [
                -0.8119235634803772,
                -1.2556815147399902,
                -3.5861518383026123
            ]
        },
        {
            "name" : "Node.012",
            "rotation" : [
                0.7071068286895752,
                0,
                0,
                0.7071067094802856
            ],
            "translation" : [
                -0.5570660829544067,
                2.637488603591919,
                -5.008262634277344
            ]
        },
        {
            "children" : [
                4,
                5,
                6,
                7,
                8,
                9,
                11,
                12,
                13,
                14,
                15,
                16,
                17,
                18
            ],
            "name" : "Yup2Zup.001",
            "rotation" : [
                0.7071068286895752,
                0,
                0,
                0.7071068286895752
            ]
        },
        {
            "children" : [
                2,
                3,
                19
            ],
            "name" : "Yup2Zup",
            "rotation" : [
                0.7071067690849304,
                0,
                0,
                0.7071067690849304
            ]
        }
    ],
    "animations" : [
        {
            "channels" : [
                {
                    "sampler" : 0,
                    "target" : {
                        "node" : 10,
                        "path" : "rotation"
                    }
                }
            ],
            "name" : "Object_0.000Action_Object_0.000_Object_0.000",
            "samplers" : [
                {
                    "input" : 25,
                    "interpolation" : "LINEAR",
                    "output" : 26
                }
            ]
        }
    ],
    "materials" : [
        {
            "name" : "palette.008",
            "pbrMetallicRoughness" : {
                "baseColorTexture" : {
                    "index" : 0,
                    "texCoord" : 0
                },
                "metallicFactor" : 0.5,
                "roughnessFactor" : 0.5
            }
        },
        {
            "name" : "palette.001",
            "pbrMetallicRoughness" : {
                "baseColorTexture" : {
                    "index" : 1,
                    "texCoord" : 0
                },
                "metallicFactor" : 0.5,
                "roughnessFactor" : 0.5
            }
        },
        {
            "name" : "palette.002",
            "pbrMetallicRoughness" : {
                "baseColorTexture" : {
                    "index" : 2,
                    "texCoord" : 0
                },
                "metallicFactor" : 0.5,
                "roughnessFactor" : 0.5
            }
        },
        {
            "name" : "palette.006",
            "pbrMetallicRoughness" : {
                "baseColorTexture" : {
                    "index" : 3,
                    "texCoord" : 0
                },
                "metallicFactor" : 0.5,
                "roughnessFactor" : 0.5
            }
        },
        {
            "name" : "palette.007",
            "pbrMetallicRoughness" : {
                "baseColorTexture" : {
                    "index" : 4,
                    "texCoord" : 0
                },
                "metallicFactor" : 0.5,
                "roughnessFactor" : 0.5
            }
        },
        {
            "name" : "palette.009",
            "pbrMetallicRoughness" : {
                "baseColorTexture" : {
                    "index" : 5,
                    "texCoord" : 0
                },
                "metallicFactor" : 0.5,
                "roughnessFactor" : 0.5
            }
        },
        {
            "name" : "palette.010",
            "pbrMetallicRoughness" : {
                "baseColorTexture" : {
                    "index" : 6,
                    "texCoord" : 0
                },
                "metallicFactor" : 0.5,
                "roughnessFactor" : 0.5
            }
        }
    ],
    "meshes" : [
        {
            "name" : "Mesh_0.008",
            "primitives" : [
                {
                    "attributes" : {
                        "POSITION" : 0,
                        "NORMAL" : 1,
                        "TEXCOORD_0" : 2
                    },
                    "indices" : 3,
                    "material" : 0
                },
                {
                    "attributes" : {
                        "POSITION" : 4,
                        "NORMAL" : 5,
                        "TEXCOORD_0" : 6
                    },
                    "indices" : 7,
                    "material" : 1
                },
                {
                    "attributes" : {
                        "POSITION" : 8,
                        "NORMAL" : 9,
                        "TEXCOORD_0" : 10
                    },
                    "indices" : 11,
                    "material" : 2
                },
                {
                    "attributes" : {
                        "POSITION" : 12,
                        "NORMAL" : 13,
                        "TEXCOORD_0" : 14
                    },
                    "indices" : 11,
                    "material" : 3
                },
                {
                    "attributes" : {
                        "POSITION" : 15,
                        "NORMAL" : 16,
                        "TEXCOORD_0" : 17
                    },
                    "indices" : 11,
                    "material" : 4
                },
                {
                    "attributes" : {
                        "POSITION" : 18,
                        "NORMAL" : 19,
                        "TEXCOORD_0" : 20
                    },
                    "indices" : 21,
                    "material" : 5
                },
                {
                    "attributes" : {
                        "POSITION" : 22,
                        "NORMAL" : 23,
                        "TEXCOORD_0" : 24
                    },
                    "indices" : 21,
                    "material" : 6
                }
            ]
        }
    ],
    "textures" : [
        {
            "source" : 0
        },
        {
            "source" : 1
        },
        {
            "source" : 2
        },
        {
            "source" : 2
        },
        {
            "source" : 2
        },
        {
            "source" : 0
        },
        {
            "source" : 0
        }
    ],
    "images" : [
        {
            "bufferView" : 4,
            "mimeType" : "image/png",
            "name" : "Image_0"
        },
        {
            "bufferView" : 9,
            "mimeType" : "image/png",
            "name" : "Image_1"
        },
        {
            "bufferView" : 14,
            "mimeType" : "image/png",
            "name" : "Image_2"
        }
    ],
    "accessors" : [
        {
            "bufferView" : 0,
            "componentType" : 5126,
            "count" : 1800,
            "max" : [
                1.899999976158142,
                4.699999809265137,
                0
            ],
            "min" : [
                0,
                2,
                -1.399999976158142
            ],
            "type" : "VEC3"
        },
        {
            "bufferView" : 1,
            "componentType" : 5126,
            "count" : 1800,
            "type" : "VEC3"
        },
        {
            "bufferView" : 2,
            "componentType" : 5126,
            "count" : 1800,
            "type" : "VEC2"
        },
        {
            "bufferView" : 3,
            "componentType" : 5123,
            "count" : 1800,
            "type" : "SCALAR"
        },
        {
            "bufferView" : 5,
            "componentType" : 5126,
            "count" : 840,
            "max" : [
                1.8574280738830566,
                4.2174601554870605,
                1.621968388557434
            ],
            "min" : [
                -0.014806747436523438,
                2.0048184394836426,
                0.26034319400787354
            ],
            "type" : "VEC3"
        },
        {
            "bufferView" : 6,
            "componentType" : 5126,
            "count" : 840,
            "type" : "VEC3"
        },
        {
            "bufferView" : 7,
            "componentType" : 5126,
            "count" : 840,
            "type" : "VEC2"
        },
        {
            "bufferView" : 8,
            "componentType" : 5123,
            "count" : 840,
            "type" : "SCALAR"
        },
        {
            "bufferView" : 10,
            "componentType" : 5126,
            "count" : 396,
            "max" : [
                0.9033568501472473,
                4.373693943023682,
                1.2179272174835205
            ],
            "min" : [
                0.23641261458396912,
                2.9785313606262207,
                0.6171162724494934
            ],
            "type" : "VEC3"
        },
        {
            "bufferView" : 11,
            "componentType" : 5126,
            "count" : 396,
            "type" : "VEC3"
        },
        {
            "bufferView" : 12,
            "componentType" : 5126,
            "count" : 396,
            "type" : "VEC2"
        },
        {
            "bufferView" : 13,
            "componentType" : 5123,
            "count" : 396,
            "type" : "SCALAR"
        },
        {
            "bufferView" : 15,
            "componentType" : 5126,
            "count" : 396,
            "max" : [
                1.5477831363677979,
                4.446069240570068,
                1.3400986194610596
            ],
            "min" : [
                0.3714538812637329,
                3.451040744781494,
                0.4682771563529968
            ],
            "type" : "VEC3"
        },
        {
            "bufferView" : 16,
            "componentType" : 5126,
            "count" : 396,
            "type" : "VEC3"
        },
        {
            "bufferView" : 17,
            "componentType" : 5126,
            "count" : 396,
            "type" : "VEC2"
        },
        {
            "bufferView" : 18,
            "componentType" : 5126,
            "count" : 396,
            "max" : [
                1.538785457611084,
                4.090399742126465,
                1.3741281032562256
            ],
            "min" : [
                0.3850276470184326,
                3.414243459701538,
                0.5056122541427612
            ],
            "type" : "VEC3"
        },
        {
            "bufferView" : 19,
            "componentType" : 5126,
            "count" : 396,
            "type" : "VEC3"
        },
        {
            "bufferView" : 20,
            "componentType" : 5126,
            "count" : 396,
            "type" : "VEC2"
        },
        {
            "bufferView" : 21,
            "componentType" : 5126,
            "count" : 180,
            "max" : [
                0.4013995826244354,
                3.3420374393463135,
                0.41770654916763306
            ],
            "min" : [
                0.0013995766639709473,
                2.9420371055603027,
                0.017706364393234253
            ],
            "type" : "VEC3"
        },
        {
            "bufferView" : 22,
            "componentType" : 5126,
            "count" : 180,
            "type" : "VEC3"
        },
        {
            "bufferView" : 23,
            "componentType" : 5126,
            "count" : 180,
            "type" : "VEC2"
        },
        {
            "bufferView" : 24,
            "componentType" : 5123,
            "count" : 180,
            "type" : "SCALAR"
        },
        {
            "bufferView" : 25,
            "componentType" : 5126,
            "count" : 180,
            "max" : [
                1.9175703525543213,
                3.3420376777648926,
                0.44431281089782715
            ],
            "min" : [
                1.5175703763961792,
                2.942037343978882,
                0.044312626123428345
            ],
            "type" : "VEC3"
        },
        {
            "bufferView" : 26,
            "componentType" : 5126,
            "count" : 180,
            "type" : "VEC3"
        },
        {
            "bufferView" : 27,
            "componentType" : 5126,
            "count" : 180,
            "type" : "VEC2"
        },
        {
            "bufferView" : 28,
            "componentType" : 5126,
            "count" : 49,
            "max" : [
                2
            ],
            "min" : [
                0
            ],
            "type" : "SCALAR"
        },
        {
            "bufferView" : 29,
            "componentType" : 5126,
            "count" : 49,
            "type" : "VEC4"
        }
    ],
    "bufferViews" : [
        {
            "buffer" : 0,
            "byteLength" : 21600,
            "byteOffset" : 0
        },
        {
            "buffer" : 0,
            "byteLength" : 21600,
            "byteOffset" : 21600
        },
        {
            "buffer" : 0,
            "byteLength" : 14400,
            "byteOffset" : 43200
        },
        {
            "buffer" : 0,
            "byteLength" : 3600,
            "byteOffset" : 57600
        },
        {
            "buffer" : 0,
            "byteLength" : 986,
            "byteOffset" : 61200
        },
        {
            "buffer" : 0,
            "byteLength" : 10080,
            "byteOffset" : 62188
        },
        {
            "buffer" : 0,
            "byteLength" : 10080,
            "byteOffset" : 72268
        },
        {
            "buffer" : 0,
            "byteLength" : 6720,
            "byteOffset" : 82348
        },
        {
            "buffer" : 0,
            "byteLength" : 1680,
            "byteOffset" : 89068
        },
        {
            "buffer" : 0,
            "byteLength" : 985,
            "byteOffset" : 90748
        },
        {
            "buffer" : 0,
            "byteLength" : 4752,
            "byteOffset" : 91736
        },
        {
            "buffer" : 0,
            "byteLength" : 4752,
            "byteOffset" : 96488
        },
        {
            "buffer" : 0,
            "byteLength" : 3168,
            "byteOffset" : 101240
        },
        {
            "buffer" : 0,
            "byteLength" : 792,
            "byteOffset" : 104408
        },
        {
            "buffer" : 0,
            "byteLength" : 985,
            "byteOffset" : 105200
        },
        {
            "buffer" : 0,
            "byteLength" : 4752,
            "byteOffset" : 106188
        },
        {
            "buffer" : 0,
            "byteLength" : 4752,
            "byteOffset" : 110940
        },
        {
            "buffer" : 0,
            "byteLength" : 3168,
            "byteOffset" : 115692
        },
        {
            "buffer" : 0,
            "byteLength" : 4752,
            "byteOffset" : 118860
        },
        {
            "buffer" : 0,
            "byteLength" : 4752,
            "byteOffset" : 123612
        },
        {
            "buffer" : 0,
            "byteLength" : 3168,
            "byteOffset" : 128364
        },
        {
            "buffer" : 0,
            "byteLength" : 2160,
            "byteOffset" : 131532
        },
        {
            "buffer" : 0,
            "byteLength" : 2160,
            "byteOffset" : 133692
        },
        {
            "buffer" : 0,
            "byteLength" : 1440,
            "byteOffset" : 135852
        },
        {
            "buffer" : 0,
            "byteLength" : 360,
            "byteOffset" : 137292
        },
        {
            "buffer" : 0,
            "byteLength" : 2160,
            "byteOffset" : 137652
        },
        {
            "buffer" : 0,
            "byteLength" : 2160,
            "byteOffset" : 139812
        },
        {
            "buffer" : 0,
            "byteLength" : 1440,
            "byteOffset" : 141972
        },
        {
            "buffer" : 0,
            "byteLength" : 196,
            "byteOffset" : 143412
        },
        {
            "buffer" : 0,
            "byteLength" : 784,
            "byteOffset" : 143608
        }
    ],
    "buffers" : [
        {
            "byteLength" : 144392,
            "uri" : "data:application/octet-stream;base64,"
        }
    ]
}
