{
    "asset" : {
        "generator" : "Khronos glTF Blender I/O v1.0.5",
        "version" : "2.0"
    },
    "scene" : 0,
    "scenes" : [
        {
            "name" : "Scene",
            "nodes" : [
                0,
                1,
                13
            ]
        }
    ],
    "nodes" : [
        {
            "name" : "Light",
            "rotation" : [
                0.16907575726509094,
                0.7558803558349609,
                -0.27217137813568115,
                0.570947527885437
            ],
            "translation" : [
                4.076245307922363,
                5.903861999511719,
                -1.0054539442062378
            ]
        },
        {
            "name" : "Camera",
            "rotation" : [
                0.483536034822464,
                0.33687159419059753,
                -0.20870360732078552,
                0.7804827094078064
            ],
            "translation" : [
                7.358891487121582,
                4.958309173583984,
                6.925790786743164
            ]
        },
        {
            "name" : "Camera.001",
            "rotation" : [
                0.483536034822464,
                -0.20870360732078552,
                -0.33687159419059753,
                0.7804827094078064
            ],
            "translation" : [
                7.358891487121582,
                6.925790786743164,
                -4.958309173583984
            ]
        },
        {
            "name" : "Light.001",
            "rotation" : [
                0.16907577216625214,
                -0.27217140793800354,
                -0.7558803558349609,
                0.5709474682807922
            ],
            "translation" : [
                4.076245307922363,
                -1.0054539442062378,
                -5.903861999511719
            ]
        },
        {
            "name" : "Camera.002",
            "rotation" : [
                0.483536034822464,
                -0.33687159419059753,
                0.20870360732078552,
                0.7804827094078064
            ],
            "translation" : [
                7.358891487121582,
                -4.958309173583984,
                -6.925790786743164
            ]
        },
        {
            "name" : "Camera.003",
            "rotation" : [
                0.8937963247299194,
                -0.09062900394201279,
                0.3857799768447876,
                0.20997236669063568
            ],
            "translation" : [
                7.358891487121582,
                -4.958308696746826,
                -6.925792217254639
            ]
        },
        {
            "name" : "Camera.004",
            "rotation" : [
                -0.7804826498031616,
                -0.2087034434080124,
                -0.33687177300453186,
                0.4835362136363983
            ],
            "translation" : [
                7.358891487121582,
                -4.958308219909668,
                -6.925793647766113
            ]
        },
        {
            "name" : "Light.002",
            "rotation" : [
                0.16907575726509094,
                -0.7558803558349609,
                0.2721714377403259,
                0.5709474682807922
            ],
            "translation" : [
                4.076245307922363,
                -5.903861999511719,
                1.0054539442062378
            ]
        },
        {
            "name" : "Light.003",
            "rotation" : [
                0.5232754349708557,
                -0.34203392267227173,
                0.7269424200057983,
                0.2841660678386688
            ],
            "translation" : [
                4.076245307922363,
                -5.903862476348877,
                1.0054532289505005
            ]
        },
        {
            "name" : "Light.004",
            "rotation" : [
                -0.5709477066993713,
                -0.2721712589263916,
                -0.7558803558349609,
                0.16907550394535065
            ],
            "translation" : [
                4.076245307922363,
                -5.903862953186035,
                1.0054525136947632
            ]
        },
        {
            "mesh" : 0,
            "name" : "Object_0"
        },
        {
            "children" : [
                10
            ],
            "name" : "Node",
            "rotation" : [
                -0.7071065902709961,
                0,
                0,
                0.7071069478988647
            ],
            "translation" : [
                -0.8466101288795471,
                3.156787872314453,
                -0.6879613399505615
            ]
        },
        {
            "children" : [
                4,
                5,
                6,
                7,
                8,
                9,
                11
            ],
            "name" : "Yup2Zup.001",
            "rotation" : [
                0.7071068286895752,
                0,
                0,
                0.7071068286895752
            ]
        },
        {
            "children" : [
                2,
                3,
                12
            ],
            "name" : "Yup2Zup",
            "rotation" : [
                0.7071067690849304,
                0,
                0,
                0.7071067690849304
            ]
        }
    ],
    "animations" : [
        {
            "channels" : [
                {
                    "sampler" : 0,
                    "target" : {
                        "node" : 10,
                        "path" : "translation"
                    }
                },
                {
                    "sampler" : 1,
                    "target" : {
                        "node" : 10,
                        "path" : "rotation"
                    }
                }
            ],
            "name" : "Object_0Action_Object_0_Object_0",
            "samplers" : [
                {
                    "input" : 4,
                    "interpolation" : "LINEAR",
                    "output" : 5
                },
                {
                    "input" : 6,
                    "interpolation" : "LINEAR",
                    "output" : 7
                }
            ]
        }
    ],
    "materials" : [
        {
            "name" : "palette",
            "pbrMetallicRoughness" : {
                "baseColorTexture" : {
                    "index" : 0,
                    "texCoord" : 0
                },
                "metallicFactor" : 0.5,
                "roughnessFactor" : 0.5
            }
        }
    ],
    "meshes" : [
        {
            "name" : "Mesh_0",
            "primitives" : [
                {
                    "attributes" : {
                        "POSITION" : 0,
                        "NORMAL" : 1,
                        "TEXCOORD_0" : 2
                    },
                    "indices" : 3,
                    "material" : 0
                }
            ]
        }
    ],
    "textures" : [
        {
            "source" : 0
        }
    ],
    "images" : [
        {
            "bufferView" : 4,
            "mimeType" : "image/png",
            "name" : "Image_0"
        }
    ],
    "accessors" : [
        {
            "bufferView" : 0,
            "componentType" : 5126,
            "count" : 1128,
            "max" : [
                1.7000000476837158,
                0,
                -2
            ],
            "min" : [
                0,
                -1.399999976158142,
                -4.699999809265137
            ],
            "type" : "VEC3"
        },
        {
            "bufferView" : 1,
            "componentType" : 5126,
            "count" : 1128,
            "type" : "VEC3"
        },
        {
            "bufferView" : 2,
            "componentType" : 5126,
            "count" : 1128,
            "type" : "VEC2"
        },
        {
            "bufferView" : 3,
            "componentType" : 5123,
            "count" : 1128,
            "type" : "SCALAR"
        },
        {
            "bufferView" : 5,
            "componentType" : 5126,
            "count" : 47,
            "max" : [
                1.9583333333333333
            ],
            "min" : [
                0.041666666666666664
            ],
            "type" : "SCALAR"
        },
        {
            "bufferView" : 6,
            "componentType" : 5126,
            "count" : 47,
            "type" : "VEC3"
        },
        {
            "bufferView" : 7,
            "componentType" : 5126,
            "count" : 48,
            "max" : [
                2
            ],
            "min" : [
                0.041666666666666664
            ],
            "type" : "SCALAR"
        },
        {
            "bufferView" : 8,
            "componentType" : 5126,
            "count" : 48,
            "type" : "VEC4"
        }
    ],
    "bufferViews" : [
        {
            "buffer" : 0,
            "byteLength" : 13536,
            "byteOffset" : 0
        },
        {
            "buffer" : 0,
            "byteLength" : 13536,
            "byteOffset" : 13536
        },
        {
            "buffer" : 0,
            "byteLength" : 9024,
            "byteOffset" : 27072
        },
        {
            "buffer" : 0,
            "byteLength" : 2256,
            "byteOffset" : 36096
        },
        {
            "buffer" : 0,
            "byteLength" : 984,
            "byteOffset" : 38352
        },
        {
            "buffer" : 0,
            "byteLength" : 188,
            "byteOffset" : 39336
        },
        {
            "buffer" : 0,
            "byteLength" : 564,
            "byteOffset" : 39524
        },
        {
            "buffer" : 0,
            "byteLength" : 192,
            "byteOffset" : 40088
        },
        {
            "buffer" : 0,
            "byteLength" : 768,
            "byteOffset" : 40280
        }
    ],
    "buffers" : [
        {
            "byteLength" : 41048,
            "uri" : "data:application/octet-stream;base64,"
        }
    ]
}
