{
    "asset" : {
        "generator" : "Khronos glTF Blender I/O v1.0.5",
        "version" : "2.0"
    },
    "scene" : 0,
    "scenes" : [
        {
            "name" : "Scene",
            "nodes" : [
                0,
                1,
                38
            ]
        }
    ],
    "nodes" : [
        {
            "name" : "Light",
            "rotation" : [
                0.16907575726509094,
                0.7558803558349609,
                -0.27217137813568115,
                0.570947527885437
            ],
            "translation" : [
                4.076245307922363,
                5.903861999511719,
                -1.0054539442062378
            ]
        },
        {
            "name" : "Camera",
            "rotation" : [
                0.483536034822464,
                0.33687159419059753,
                -0.20870360732078552,
                0.7804827094078064
            ],
            "translation" : [
                7.358891487121582,
                4.958309173583984,
                6.925790786743164
            ]
        },
        {
            "name" : "Camera.001",
            "rotation" : [
                0.483536034822464,
                -0.20870360732078552,
                -0.33687159419059753,
                0.7804827094078064
            ],
            "translation" : [
                7.358891487121582,
                6.925790786743164,
                -4.958309173583984
            ]
        },
        {
            "name" : "Light.001",
            "rotation" : [
                0.16907577216625214,
                -0.27217140793800354,
                -0.7558803558349609,
                0.5709474682807922
            ],
            "translation" : [
                4.076245307922363,
                -1.0054539442062378,
                -5.903861999511719
            ]
        },
        {
            "name" : "Camera.002",
            "rotation" : [
                0.483536034822464,
                -0.33687159419059753,
                0.20870360732078552,
                0.7804827094078064
            ],
            "translation" : [
                7.358891487121582,
                -4.958309173583984,
                -6.925790786743164
            ]
        },
        {
            "name" : "Camera.003",
            "rotation" : [
                0.8937963247299194,
                -0.09062900394201279,
                0.3857799768447876,
                0.20997236669063568
            ],
            "translation" : [
                7.358891487121582,
                -4.958308696746826,
                -6.925792217254639
            ]
        },
        {
            "name" : "Camera.004",
            "rotation" : [
                -0.7804826498031616,
                -0.2087034434080124,
                -0.33687177300453186,
                0.4835362136363983
            ],
            "translation" : [
                7.358891487121582,
                -4.958308219909668,
                -6.925793647766113
            ]
        },
        {
            "name" : "Camera.005",
            "rotation" : [
                -0.7804826498031616,
                -0.2087034434080124,
                -0.33687177300453186,
                0.4835362136363983
            ],
            "translation" : [
                7.358891487121582,
                -4.958308219909668,
                -6.925793647766113
            ]
        },
        {
            "name" : "Camera.006",
            "rotation" : [
                -0.20997296273708344,
                -0.3857799470424652,
                -0.09062869846820831,
                0.8937962055206299
            ],
            "translation" : [
                7.358891487121582,
                -4.95830774307251,
                -6.925795078277588
            ]
        },
        {
            "name" : "Camera.007",
            "rotation" : [
                -0.7804826498031616,
                -0.2087034434080124,
                -0.33687177300453186,
                0.4835362136363983
            ],
            "translation" : [
                7.358891487121582,
                -4.958308219909668,
                -6.925793647766113
            ]
        },
        {
            "name" : "Camera.008",
            "rotation" : [
                -0.20997296273708344,
                -0.3857799470424652,
                -0.09062869846820831,
                0.8937962055206299
            ],
            "translation" : [
                7.358891487121582,
                -4.95830774307251,
                -6.925795078277588
            ]
        },
        {
            "name" : "Camera.009",
            "rotation" : [
                -0.7804826498031616,
                -0.2087034434080124,
                -0.33687177300453186,
                0.4835362136363983
            ],
            "translation" : [
                7.358891487121582,
                -4.958308219909668,
                -6.925793647766113
            ]
        },
        {
            "name" : "Camera.010",
            "rotation" : [
                -0.7804826498031616,
                -0.2087034434080124,
                -0.33687177300453186,
                0.4835362136363983
            ],
            "translation" : [
                7.358891487121582,
                -4.958308219909668,
                -6.925793647766113
            ]
        },
        {
            "name" : "Camera.011",
            "rotation" : [
                -0.20997296273708344,
                -0.3857799470424652,
                -0.09062869846820831,
                0.8937962055206299
            ],
            "translation" : [
                7.358891487121582,
                -4.95830774307251,
                -6.925795078277588
            ]
        },
        {
            "name" : "Camera.012",
            "rotation" : [
                -0.7804826498031616,
                -0.2087034434080124,
                -0.33687177300453186,
                0.4835362136363983
            ],
            "translation" : [
                7.358891487121582,
                -4.958308219909668,
                -6.925793647766113
            ]
        },
        {
            "name" : "Light.002",
            "rotation" : [
                0.16907575726509094,
                -0.7558803558349609,
                0.2721714377403259,
                0.5709474682807922
            ],
            "translation" : [
                4.076245307922363,
                -5.903861999511719,
                1.0054539442062378
            ]
        },
        {
            "name" : "Light.003",
            "rotation" : [
                0.5232754349708557,
                -0.34203392267227173,
                0.7269424200057983,
                0.2841660678386688
            ],
            "translation" : [
                4.12216854095459,
                -5.903862476348877,
                0.6267490386962891
            ]
        },
        {
            "name" : "Light.004",
            "rotation" : [
                -0.5709477066993713,
                -0.2721712589263916,
                -0.7558803558349609,
                0.16907550394535065
            ],
            "translation" : [
                4.076245307922363,
                -5.903862953186035,
                1.0054525136947632
            ]
        },
        {
            "name" : "Light.005",
            "rotation" : [
                -0.5709477066993713,
                -0.2721712589263916,
                -0.7558803558349609,
                0.16907550394535065
            ],
            "translation" : [
                4.076245307922363,
                -5.903862953186035,
                1.0054525136947632
            ]
        },
        {
            "name" : "Light.006",
            "rotation" : [
                -0.2841665744781494,
                -0.726942241191864,
                -0.34203413128852844,
                0.5232753157615662
            ],
            "translation" : [
                4.076245307922363,
                -5.903863430023193,
                1.0054517984390259
            ]
        },
        {
            "name" : "Light.007",
            "rotation" : [
                -0.5709477066993713,
                -0.2721712589263916,
                -0.7558803558349609,
                0.16907550394535065
            ],
            "translation" : [
                4.076245307922363,
                -5.903862953186035,
                1.0054525136947632
            ]
        },
        {
            "name" : "Light.008",
            "rotation" : [
                -0.2841665744781494,
                -0.726942241191864,
                -0.34203413128852844,
                0.5232753157615662
            ],
            "translation" : [
                4.076245307922363,
                -5.903863430023193,
                1.0054517984390259
            ]
        },
        {
            "name" : "Light.009",
            "rotation" : [
                -0.5709477066993713,
                -0.2721712589263916,
                -0.7558803558349609,
                0.16907550394535065
            ],
            "translation" : [
                4.076245307922363,
                -5.903862953186035,
                1.0054525136947632
            ]
        },
        {
            "name" : "Light.010",
            "rotation" : [
                -0.5709477066993713,
                -0.2721712589263916,
                -0.7558803558349609,
                0.16907550394535065
            ],
            "translation" : [
                4.076245307922363,
                -5.903862953186035,
                1.0054525136947632
            ]
        },
        {
            "name" : "Light.011",
            "rotation" : [
                -0.2841665744781494,
                -0.726942241191864,
                -0.34203413128852844,
                0.5232753157615662
            ],
            "translation" : [
                4.076245307922363,
                -5.903863430023193,
                1.0054517984390259
            ]
        },
        {
            "name" : "Light.012",
            "rotation" : [
                -0.5709477066993713,
                -0.2721712589263916,
                -0.7558803558349609,
                0.16907550394535065
            ],
            "translation" : [
                4.076245307922363,
                -5.903862953186035,
                1.0054525136947632
            ]
        },
        {
            "name" : "Node",
            "translation" : [
                -0.9703099727630615,
                2.776634454727173,
                -0.25708478689193726
            ]
        },
        {
            "name" : "Node.001",
            "translation" : [
                -0.9042116403579712,
                2.9871819019317627,
                -0.6845377683639526
            ]
        },
        {
            "name" : "Node.002",
            "rotation" : [
                1,
                0,
                0,
                -1.3435885648505064e-07
            ]
        },
        {
            "name" : "Node.003",
            "rotation" : [
                1,
                0,
                0,
                -1.3435885648505064e-07
            ],
            "translation" : [
                4.11012077331543,
                0,
                -0.3787042796611786
            ]
        },
        {
            "mesh" : 0,
            "name" : "Object_0.001",
            "rotation" : [
                0.007391705643385649,
                -0.004508284851908684,
                -0.0008814032189548016,
                0.9999622106552124
            ]
        },
        {
            "children" : [
                30
            ],
            "name" : "Node.004",
            "translation" : [
                -0.8466101288795471,
                3.1567883491516113,
                -0.6879609823226929
            ]
        },
        {
            "name" : "Node.005",
            "rotation" : [
                1,
                0,
                0,
                -1.3435885648505064e-07
            ],
            "translation" : [
                0.5926421284675598,
                2.184006929397583,
                -1.055608868598938
            ]
        },
        {
            "name" : "Node.006",
            "rotation" : [
                1,
                0,
                0,
                -1.3435885648505064e-07
            ],
            "translation" : [
                -1.824592113494873,
                2.0139904022216797,
                0
            ]
        },
        {
            "name" : "Node.007",
            "rotation" : [
                -0.7071065902709961,
                0,
                0,
                0.7071069478988647
            ],
            "translation" : [
                -1.2026138305664062,
                2.8471782207489014,
                0.8741469383239746
            ]
        },
        {
            "name" : "Node.008",
            "rotation" : [
                -0.7071065902709961,
                0,
                0,
                0.7071069478988647
            ],
            "scale" : [
                1,
                1.2562912702560425,
                1
            ],
            "translation" : [
                -0.6142038702964783,
                2.8471782207489014,
                0.14551405608654022
            ]
        },
        {
            "name" : "Node.009",
            "rotation" : [
                1,
                0,
                0,
                -1.3435885648505064e-07
            ]
        },
        {
            "children" : [
                4,
                5,
                6,
                7,
                8,
                9,
                10,
                11,
                12,
                13,
                14,
                15,
                16,
                17,
                18,
                19,
                20,
                21,
                22,
                23,
                24,
                25,
                26,
                27,
                28,
                29,
                31,
                32,
                33,
                34,
                35,
                36
            ],
            "name" : "Yup2Zup.001",
            "rotation" : [
                0.7071068286895752,
                0,
                0,
                0.7071068286895752
            ]
        },
        {
            "children" : [
                2,
                3,
                37
            ],
            "name" : "Yup2Zup",
            "rotation" : [
                0.7071067690849304,
                0,
                0,
                0.7071067690849304
            ]
        }
    ],
    "animations" : [
        {
            "channels" : [
                {
                    "sampler" : 0,
                    "target" : {
                        "node" : 30,
                        "path" : "rotation"
                    }
                }
            ],
            "name" : "Object_0.001Action_Object_0.001_Object_0.001",
            "samplers" : [
                {
                    "input" : 15,
                    "interpolation" : "LINEAR",
                    "output" : 16
                }
            ]
        }
    ],
    "materials" : [
        {
            "name" : "palette.004",
            "pbrMetallicRoughness" : {
                "baseColorTexture" : {
                    "index" : 0,
                    "texCoord" : 0
                },
                "metallicFactor" : 0.5,
                "roughnessFactor" : 0.5
            }
        },
        {
            "name" : "palette.001",
            "pbrMetallicRoughness" : {
                "baseColorTexture" : {
                    "index" : 1,
                    "texCoord" : 0
                },
                "metallicFactor" : 0.5,
                "roughnessFactor" : 0.5
            }
        },
        {
            "name" : "palette.006",
            "pbrMetallicRoughness" : {
                "baseColorTexture" : {
                    "index" : 2,
                    "texCoord" : 0
                },
                "metallicFactor" : 0.5,
                "roughnessFactor" : 0.5
            }
        },
        {
            "name" : "palette.008",
            "pbrMetallicRoughness" : {
                "baseColorTexture" : {
                    "index" : 3,
                    "texCoord" : 0
                },
                "metallicFactor" : 0.5,
                "roughnessFactor" : 0.5
            }
        }
    ],
    "meshes" : [
        {
            "name" : "Mesh_0.001",
            "primitives" : [
                {
                    "attributes" : {
                        "POSITION" : 0,
                        "NORMAL" : 1,
                        "TEXCOORD_0" : 2
                    },
                    "indices" : 3,
                    "material" : 0
                },
                {
                    "attributes" : {
                        "POSITION" : 4,
                        "NORMAL" : 5,
                        "TEXCOORD_0" : 6
                    },
                    "indices" : 7,
                    "material" : 1
                },
                {
                    "attributes" : {
                        "POSITION" : 8,
                        "NORMAL" : 9,
                        "TEXCOORD_0" : 10
                    },
                    "indices" : 11,
                    "material" : 2
                },
                {
                    "attributes" : {
                        "POSITION" : 12,
                        "NORMAL" : 13,
                        "TEXCOORD_0" : 14
                    },
                    "indices" : 7,
                    "material" : 3
                }
            ]
        }
    ],
    "textures" : [
        {
            "source" : 0
        },
        {
            "source" : 0
        },
        {
            "source" : 1
        },
        {
            "source" : 0
        }
    ],
    "images" : [
        {
            "bufferView" : 4,
            "mimeType" : "image/png",
            "name" : "Image_0"
        },
        {
            "bufferView" : 13,
            "mimeType" : "image/png",
            "name" : "Image_1"
        }
    ],
    "accessors" : [
        {
            "bufferView" : 0,
            "componentType" : 5126,
            "count" : 1128,
            "max" : [
                1.7000000476837158,
                -2,
                1.399999976158142
            ],
            "min" : [
                0,
                -4.699999809265137,
                0
            ],
            "type" : "VEC3"
        },
        {
            "bufferView" : 1,
            "componentType" : 5126,
            "count" : 1128,
            "type" : "VEC3"
        },
        {
            "bufferView" : 2,
            "componentType" : 5126,
            "count" : 1128,
            "type" : "VEC2"
        },
        {
            "bufferView" : 3,
            "componentType" : 5123,
            "count" : 1128,
            "type" : "SCALAR"
        },
        {
            "bufferView" : 5,
            "componentType" : 5126,
            "count" : 180,
            "max" : [
                0.06279942393302917,
                -2.8499152660369873,
                1.8299390077590942
            ],
            "min" : [
                -0.34350723028182983,
                -3.25106143951416,
                1.4245588779449463
            ],
            "type" : "VEC3"
        },
        {
            "bufferView" : 6,
            "componentType" : 5126,
            "count" : 180,
            "type" : "VEC3"
        },
        {
            "bufferView" : 7,
            "componentType" : 5126,
            "count" : 180,
            "type" : "VEC2"
        },
        {
            "bufferView" : 8,
            "componentType" : 5123,
            "count" : 180,
            "type" : "SCALAR"
        },
        {
            "bufferView" : 9,
            "componentType" : 5126,
            "count" : 1260,
            "max" : [
                1.6784257888793945,
                -2.7796473503112793,
                2.303431510925293
            ],
            "min" : [
                0.0648215115070343,
                -4.781858921051025,
                1.3821107149124146
            ],
            "type" : "VEC3"
        },
        {
            "bufferView" : 10,
            "componentType" : 5126,
            "count" : 1260,
            "type" : "VEC3"
        },
        {
            "bufferView" : 11,
            "componentType" : 5126,
            "count" : 1260,
            "type" : "VEC2"
        },
        {
            "bufferView" : 12,
            "componentType" : 5123,
            "count" : 1260,
            "type" : "SCALAR"
        },
        {
            "bufferView" : 14,
            "componentType" : 5126,
            "count" : 180,
            "max" : [
                2.051663875579834,
                -3.2048895359039307,
                1.6624830961227417
            ],
            "min" : [
                1.6473476886749268,
                -3.6114401817321777,
                1.2530211210250854
            ],
            "type" : "VEC3"
        },
        {
            "bufferView" : 15,
            "componentType" : 5126,
            "count" : 180,
            "type" : "VEC3"
        },
        {
            "bufferView" : 16,
            "componentType" : 5126,
            "count" : 180,
            "type" : "VEC2"
        },
        {
            "bufferView" : 17,
            "componentType" : 5126,
            "count" : 49,
            "max" : [
                2
            ],
            "min" : [
                0
            ],
            "type" : "SCALAR"
        },
        {
            "bufferView" : 18,
            "componentType" : 5126,
            "count" : 49,
            "type" : "VEC4"
        }
    ],
    "bufferViews" : [
        {
            "buffer" : 0,
            "byteLength" : 13536,
            "byteOffset" : 0
        },
        {
            "buffer" : 0,
            "byteLength" : 13536,
            "byteOffset" : 13536
        },
        {
            "buffer" : 0,
            "byteLength" : 9024,
            "byteOffset" : 27072
        },
        {
            "buffer" : 0,
            "byteLength" : 2256,
            "byteOffset" : 36096
        },
        {
            "buffer" : 0,
            "byteLength" : 984,
            "byteOffset" : 38352
        },
        {
            "buffer" : 0,
            "byteLength" : 2160,
            "byteOffset" : 39336
        },
        {
            "buffer" : 0,
            "byteLength" : 2160,
            "byteOffset" : 41496
        },
        {
            "buffer" : 0,
            "byteLength" : 1440,
            "byteOffset" : 43656
        },
        {
            "buffer" : 0,
            "byteLength" : 360,
            "byteOffset" : 45096
        },
        {
            "buffer" : 0,
            "byteLength" : 15120,
            "byteOffset" : 45456
        },
        {
            "buffer" : 0,
            "byteLength" : 15120,
            "byteOffset" : 60576
        },
        {
            "buffer" : 0,
            "byteLength" : 10080,
            "byteOffset" : 75696
        },
        {
            "buffer" : 0,
            "byteLength" : 2520,
            "byteOffset" : 85776
        },
        {
            "buffer" : 0,
            "byteLength" : 985,
            "byteOffset" : 88296
        },
        {
            "buffer" : 0,
            "byteLength" : 2160,
            "byteOffset" : 89284
        },
        {
            "buffer" : 0,
            "byteLength" : 2160,
            "byteOffset" : 91444
        },
        {
            "buffer" : 0,
            "byteLength" : 1440,
            "byteOffset" : 93604
        },
        {
            "buffer" : 0,
            "byteLength" : 196,
            "byteOffset" : 95044
        },
        {
            "buffer" : 0,
            "byteLength" : 784,
            "byteOffset" : 95240
        }
    ],
    "buffers" : [
        {
            "byteLength" : 96024,
            "uri" : "data:application/octet-stream;base64,"
        }
    ]
}
