{
    "asset" : {
        "generator" : "Khronos glTF Blender I/O v1.0.5",
        "version" : "2.0"
    },
    "scene" : 0,
    "scenes" : [
        {
            "name" : "Scene",
            "nodes" : [
                0,
                1,
                17
            ]
        }
    ],
    "nodes" : [
        {
            "name" : "Light",
            "rotation" : [
                0.16907575726509094,
                0.7558803558349609,
                -0.27217137813568115,
                0.570947527885437
            ],
            "translation" : [
                4.076245307922363,
                5.903861999511719,
                -1.0054539442062378
            ]
        },
        {
            "name" : "Camera",
            "rotation" : [
                0.483536034822464,
                0.33687159419059753,
                -0.20870360732078552,
                0.7804827094078064
            ],
            "translation" : [
                7.358891487121582,
                4.958309173583984,
                6.925790786743164
            ]
        },
        {
            "name" : "Camera.001",
            "rotation" : [
                0.483536034822464,
                -0.20870360732078552,
                -0.33687159419059753,
                0.7804827094078064
            ],
            "translation" : [
                7.358891487121582,
                6.925790786743164,
                -4.958309173583984
            ]
        },
        {
            "name" : "Light.001",
            "rotation" : [
                0.16907577216625214,
                -0.27217140793800354,
                -0.7558803558349609,
                0.5709474682807922
            ],
            "translation" : [
                4.076245307922363,
                -1.0054539442062378,
                -5.903861999511719
            ]
        },
        {
            "name" : "Camera.002",
            "rotation" : [
                0.483536034822464,
                -0.33687159419059753,
                0.20870360732078552,
                0.7804827094078064
            ],
            "translation" : [
                7.358891487121582,
                -4.958309173583984,
                -6.925790786743164
            ]
        },
        {
            "name" : "Camera.003",
            "rotation" : [
                0.8937963247299194,
                -0.09062900394201279,
                0.3857799768447876,
                0.20997236669063568
            ],
            "translation" : [
                7.358891487121582,
                -4.958308696746826,
                -6.925792217254639
            ]
        },
        {
            "name" : "Light.002",
            "rotation" : [
                0.16907575726509094,
                -0.7558803558349609,
                0.2721714377403259,
                0.5709474682807922
            ],
            "translation" : [
                4.076245307922363,
                -5.903861999511719,
                1.0054539442062378
            ]
        },
        {
            "name" : "Light.003",
            "rotation" : [
                0.5232754349708557,
                -0.34203392267227173,
                0.7269424200057983,
                0.2841660678386688
            ],
            "translation" : [
                4.12216854095459,
                -5.903862476348877,
                1.274198293685913
            ]
        },
        {
            "mesh" : 0,
            "name" : "Object_0",
            "translation" : [
                0,
                0,
                -0.5141274929046631
            ]
        },
        {
            "children" : [
                8
            ],
            "name" : "Node",
            "translation" : [
                -0.9703099727630615,
                2.776634454727173,
                0.3903646171092987
            ]
        },
        {
            "name" : "Node.002",
            "rotation" : [
                1,
                0,
                0,
                -1.3435885648505064e-07
            ],
            "translation" : [
                -1.1172446012496948,
                1.9825098514556885,
                1.2741001844406128
            ]
        },
        {
            "name" : "Node.003",
            "rotation" : [
                1,
                0,
                0,
                -1.3435885648505064e-07
            ],
            "translation" : [
                4.11012077331543,
                0,
                0.26874521374702454
            ]
        },
        {
            "name" : "Node.011",
            "translation" : [
                -0.5570660829544067,
                2.6374874114990234,
                -3.1793551445007324
            ]
        },
        {
            "name" : "Node.012",
            "translation" : [
                -0.7560184597969055,
                -0.04965084418654442,
                -3.3963918685913086
            ]
        },
        {
            "name" : "Node.013",
            "rotation" : [
                0,
                0,
                0.46583518385887146,
                0.8848715424537659
            ],
            "scale" : [
                0.6323096752166748,
                0.63230961561203,
                0.6323097348213196
            ],
            "translation" : [
                -1.1995996236801147,
                -0.43679079413414,
                -3.238746166229248
            ]
        },
        {
            "name" : "Node.014",
            "translation" : [
                -0.7560184597969055,
                -0.012304708361625671,
                -3.3963918685913086
            ]
        },
        {
            "children" : [
                4,
                5,
                6,
                7,
                9,
                10,
                11,
                12,
                13,
                14,
                15
            ],
            "name" : "Yup2Zup.001",
            "rotation" : [
                0.7071068286895752,
                0,
                0,
                0.7071068286895752
            ]
        },
        {
            "children" : [
                2,
                3,
                16
            ],
            "name" : "Yup2Zup",
            "rotation" : [
                0.7071067690849304,
                0,
                0,
                0.7071067690849304
            ]
        }
    ],
    "animations" : [
        {
            "channels" : [
                {
                    "sampler" : 0,
                    "target" : {
                        "node" : 8,
                        "path" : "rotation"
                    }
                }
            ],
            "name" : "Object_0Action_Object_0_Object_0",
            "samplers" : [
                {
                    "input" : 25,
                    "interpolation" : "LINEAR",
                    "output" : 26
                }
            ]
        }
    ],
    "materials" : [
        {
            "name" : "palette",
            "pbrMetallicRoughness" : {
                "baseColorTexture" : {
                    "index" : 0,
                    "texCoord" : 0
                },
                "metallicFactor" : 0.5,
                "roughnessFactor" : 0.5
            }
        },
        {
            "name" : "palette.005",
            "pbrMetallicRoughness" : {
                "baseColorTexture" : {
                    "index" : 1,
                    "texCoord" : 0
                },
                "metallicFactor" : 0.5,
                "roughnessFactor" : 0.5
            }
        },
        {
            "name" : "palette.008",
            "pbrMetallicRoughness" : {
                "baseColorTexture" : {
                    "index" : 2,
                    "texCoord" : 0
                },
                "metallicFactor" : 0.5,
                "roughnessFactor" : 0.5
            }
        },
        {
            "name" : "palette.009",
            "pbrMetallicRoughness" : {
                "baseColorTexture" : {
                    "index" : 3,
                    "texCoord" : 0
                },
                "metallicFactor" : 0.5,
                "roughnessFactor" : 0.5
            }
        },
        {
            "name" : "palette.010",
            "pbrMetallicRoughness" : {
                "baseColorTexture" : {
                    "index" : 4,
                    "texCoord" : 0
                },
                "metallicFactor" : 0.5,
                "roughnessFactor" : 0.5
            }
        },
        {
            "name" : "palette.011",
            "pbrMetallicRoughness" : {
                "baseColorTexture" : {
                    "index" : 5,
                    "texCoord" : 0
                },
                "metallicFactor" : 0.5,
                "roughnessFactor" : 0.5
            }
        },
        {
            "name" : "palette.003",
            "pbrMetallicRoughness" : {
                "baseColorTexture" : {
                    "index" : 6,
                    "texCoord" : 0
                },
                "metallicFactor" : 0.5,
                "roughnessFactor" : 0.5
            }
        }
    ],
    "meshes" : [
        {
            "name" : "Mesh_0",
            "primitives" : [
                {
                    "attributes" : {
                        "POSITION" : 0,
                        "NORMAL" : 1,
                        "TEXCOORD_0" : 2
                    },
                    "indices" : 3,
                    "material" : 0
                },
                {
                    "attributes" : {
                        "POSITION" : 4,
                        "NORMAL" : 5,
                        "TEXCOORD_0" : 6
                    },
                    "indices" : 7,
                    "material" : 1
                },
                {
                    "attributes" : {
                        "POSITION" : 8,
                        "NORMAL" : 9,
                        "TEXCOORD_0" : 10
                    },
                    "indices" : 11,
                    "material" : 2
                },
                {
                    "attributes" : {
                        "POSITION" : 12,
                        "NORMAL" : 13,
                        "TEXCOORD_0" : 14
                    },
                    "indices" : 15,
                    "material" : 3
                },
                {
                    "attributes" : {
                        "POSITION" : 16,
                        "NORMAL" : 17,
                        "TEXCOORD_0" : 18
                    },
                    "indices" : 15,
                    "material" : 4
                },
                {
                    "attributes" : {
                        "POSITION" : 19,
                        "NORMAL" : 20,
                        "TEXCOORD_0" : 21
                    },
                    "indices" : 15,
                    "material" : 5
                },
                {
                    "attributes" : {
                        "POSITION" : 22,
                        "NORMAL" : 23,
                        "TEXCOORD_0" : 24
                    },
                    "indices" : 7,
                    "material" : 6
                }
            ]
        }
    ],
    "textures" : [
        {
            "source" : 0
        },
        {
            "source" : 0
        },
        {
            "source" : 1
        },
        {
            "source" : 2
        },
        {
            "source" : 2
        },
        {
            "source" : 2
        },
        {
            "source" : 0
        }
    ],
    "images" : [
        {
            "bufferView" : 4,
            "mimeType" : "image/png",
            "name" : "Image_0"
        },
        {
            "bufferView" : 13,
            "mimeType" : "image/png",
            "name" : "Image_1"
        },
        {
            "bufferView" : 18,
            "mimeType" : "image/png",
            "name" : "Image_2"
        }
    ],
    "accessors" : [
        {
            "bufferView" : 0,
            "componentType" : 5126,
            "count" : 2712,
            "max" : [
                1.9788662195205688,
                -1.6612060070037842,
                1.6009217500686646
            ],
            "min" : [
                0.07886626571416855,
                -4.461206436157227,
                0.10092173516750336
            ],
            "type" : "VEC3"
        },
        {
            "bufferView" : 1,
            "componentType" : 5126,
            "count" : 2712,
            "type" : "VEC3"
        },
        {
            "bufferView" : 2,
            "componentType" : 5126,
            "count" : 2712,
            "type" : "VEC2"
        },
        {
            "bufferView" : 3,
            "componentType" : 5123,
            "count" : 2712,
            "type" : "SCALAR"
        },
        {
            "bufferView" : 5,
            "componentType" : 5126,
            "count" : 180,
            "max" : [
                0.4733150899410248,
                -2.60709285736084,
                0.03565838932991028
            ],
            "min" : [
                0.0733150839805603,
                -3.0070929527282715,
                -0.36434176564216614
            ],
            "type" : "VEC3"
        },
        {
            "bufferView" : 6,
            "componentType" : 5126,
            "count" : 180,
            "type" : "VEC3"
        },
        {
            "bufferView" : 7,
            "componentType" : 5126,
            "count" : 180,
            "type" : "VEC2"
        },
        {
            "bufferView" : 8,
            "componentType" : 5123,
            "count" : 180,
            "type" : "SCALAR"
        },
        {
            "bufferView" : 9,
            "componentType" : 5126,
            "count" : 924,
            "max" : [
                1.9089547395706177,
                -1.6368858814239502,
                -0.20128905773162842
            ],
            "min" : [
                0.04558432102203369,
                -3.8390510082244873,
                -1.5564674139022827
            ],
            "type" : "VEC3"
        },
        {
            "bufferView" : 10,
            "componentType" : 5126,
            "count" : 924,
            "type" : "VEC3"
        },
        {
            "bufferView" : 11,
            "componentType" : 5126,
            "count" : 924,
            "type" : "VEC2"
        },
        {
            "bufferView" : 12,
            "componentType" : 5123,
            "count" : 924,
            "type" : "SCALAR"
        },
        {
            "bufferView" : 14,
            "componentType" : 5126,
            "count" : 660,
            "max" : [
                0.9080168604850769,
                -3.183419704437256,
                -0.5020527839660645
            ],
            "min" : [
                0.38772284984588623,
                -3.8771448135375977,
                -1.0223467350006104
            ],
            "type" : "VEC3"
        },
        {
            "bufferView" : 15,
            "componentType" : 5126,
            "count" : 660,
            "type" : "VEC3"
        },
        {
            "bufferView" : 16,
            "componentType" : 5126,
            "count" : 660,
            "type" : "VEC2"
        },
        {
            "bufferView" : 17,
            "componentType" : 5123,
            "count" : 660,
            "type" : "SCALAR"
        },
        {
            "bufferView" : 19,
            "componentType" : 5126,
            "count" : 660,
            "max" : [
                1.6882719993591309,
                -3.181103229522705,
                -0.680006206035614
            ],
            "min" : [
                0.7764269113540649,
                -4.027589797973633,
                -1.2490853071212769
            ],
            "type" : "VEC3"
        },
        {
            "bufferView" : 20,
            "componentType" : 5126,
            "count" : 660,
            "type" : "VEC3"
        },
        {
            "bufferView" : 21,
            "componentType" : 5126,
            "count" : 660,
            "type" : "VEC2"
        },
        {
            "bufferView" : 22,
            "componentType" : 5126,
            "count" : 660,
            "max" : [
                1.0908656120300293,
                -3.3414268493652344,
                -0.7961887121200562
            ],
            "min" : [
                0.6451829075813293,
                -4.037588119506836,
                -1.3886113166809082
            ],
            "type" : "VEC3"
        },
        {
            "bufferView" : 23,
            "componentType" : 5126,
            "count" : 660,
            "type" : "VEC3"
        },
        {
            "bufferView" : 24,
            "componentType" : 5126,
            "count" : 660,
            "type" : "VEC2"
        },
        {
            "bufferView" : 25,
            "componentType" : 5126,
            "count" : 180,
            "max" : [
                1.9555457830429077,
                -2.5922863483428955,
                0.02945035696029663
            ],
            "min" : [
                1.5555458068847656,
                -2.992286443710327,
                -0.3705497980117798
            ],
            "type" : "VEC3"
        },
        {
            "bufferView" : 26,
            "componentType" : 5126,
            "count" : 180,
            "type" : "VEC3"
        },
        {
            "bufferView" : 27,
            "componentType" : 5126,
            "count" : 180,
            "type" : "VEC2"
        },
        {
            "bufferView" : 28,
            "componentType" : 5126,
            "count" : 48,
            "max" : [
                2
            ],
            "min" : [
                0.041666666666666664
            ],
            "type" : "SCALAR"
        },
        {
            "bufferView" : 29,
            "componentType" : 5126,
            "count" : 48,
            "type" : "VEC4"
        }
    ],
    "bufferViews" : [
        {
            "buffer" : 0,
            "byteLength" : 32544,
            "byteOffset" : 0
        },
        {
            "buffer" : 0,
            "byteLength" : 32544,
            "byteOffset" : 32544
        },
        {
            "buffer" : 0,
            "byteLength" : 21696,
            "byteOffset" : 65088
        },
        {
            "buffer" : 0,
            "byteLength" : 5424,
            "byteOffset" : 86784
        },
        {
            "buffer" : 0,
            "byteLength" : 985,
            "byteOffset" : 92208
        },
        {
            "buffer" : 0,
            "byteLength" : 2160,
            "byteOffset" : 93196
        },
        {
            "buffer" : 0,
            "byteLength" : 2160,
            "byteOffset" : 95356
        },
        {
            "buffer" : 0,
            "byteLength" : 1440,
            "byteOffset" : 97516
        },
        {
            "buffer" : 0,
            "byteLength" : 360,
            "byteOffset" : 98956
        },
        {
            "buffer" : 0,
            "byteLength" : 11088,
            "byteOffset" : 99316
        },
        {
            "buffer" : 0,
            "byteLength" : 11088,
            "byteOffset" : 110404
        },
        {
            "buffer" : 0,
            "byteLength" : 7392,
            "byteOffset" : 121492
        },
        {
            "buffer" : 0,
            "byteLength" : 1848,
            "byteOffset" : 128884
        },
        {
            "buffer" : 0,
            "byteLength" : 985,
            "byteOffset" : 130732
        },
        {
            "buffer" : 0,
            "byteLength" : 7920,
            "byteOffset" : 131720
        },
        {
            "buffer" : 0,
            "byteLength" : 7920,
            "byteOffset" : 139640
        },
        {
            "buffer" : 0,
            "byteLength" : 5280,
            "byteOffset" : 147560
        },
        {
            "buffer" : 0,
            "byteLength" : 1320,
            "byteOffset" : 152840
        },
        {
            "buffer" : 0,
            "byteLength" : 985,
            "byteOffset" : 154160
        },
        {
            "buffer" : 0,
            "byteLength" : 7920,
            "byteOffset" : 155148
        },
        {
            "buffer" : 0,
            "byteLength" : 7920,
            "byteOffset" : 163068
        },
        {
            "buffer" : 0,
            "byteLength" : 5280,
            "byteOffset" : 170988
        },
        {
            "buffer" : 0,
            "byteLength" : 7920,
            "byteOffset" : 176268
        },
        {
            "buffer" : 0,
            "byteLength" : 7920,
            "byteOffset" : 184188
        },
        {
            "buffer" : 0,
            "byteLength" : 5280,
            "byteOffset" : 192108
        },
        {
            "buffer" : 0,
            "byteLength" : 2160,
            "byteOffset" : 197388
        },
        {
            "buffer" : 0,
            "byteLength" : 2160,
            "byteOffset" : 199548
        },
        {
            "buffer" : 0,
            "byteLength" : 1440,
            "byteOffset" : 201708
        },
        {
            "buffer" : 0,
            "byteLength" : 192,
            "byteOffset" : 203148
        },
        {
            "buffer" : 0,
            "byteLength" : 768,
            "byteOffset" : 203340
        }
    ],
    "buffers" : [
        {
            "byteLength" : 204108,
            "uri" : "data:application/octet-stream;base64,"
        }
    ]
}
