{
    "asset" : {
        "generator" : "Khronos glTF Blender I/O v1.0.5",
        "version" : "2.0"
    },
    "scene" : 0,
    "scenes" : [
        {
            "name" : "Scene",
            "nodes" : [
                0,
                1,
                20
            ]
        }
    ],
    "nodes" : [
        {
            "name" : "Light",
            "rotation" : [
                0.16907575726509094,
                0.7558803558349609,
                -0.27217137813568115,
                0.570947527885437
            ],
            "translation" : [
                4.076245307922363,
                5.903861999511719,
                -1.0054539442062378
            ]
        },
        {
            "name" : "Camera",
            "rotation" : [
                0.483536034822464,
                0.33687159419059753,
                -0.20870360732078552,
                0.7804827094078064
            ],
            "translation" : [
                7.358891487121582,
                4.958309173583984,
                6.925790786743164
            ]
        },
        {
            "name" : "Camera.001",
            "rotation" : [
                0.483536034822464,
                -0.20870360732078552,
                -0.33687159419059753,
                0.7804827094078064
            ],
            "translation" : [
                7.358891487121582,
                6.925790786743164,
                -4.958309173583984
            ]
        },
        {
            "name" : "Light.001",
            "rotation" : [
                0.16907577216625214,
                -0.27217140793800354,
                -0.7558803558349609,
                0.5709474682807922
            ],
            "translation" : [
                4.076245307922363,
                -1.0054539442062378,
                -5.903861999511719
            ]
        },
        {
            "name" : "Camera.002",
            "rotation" : [
                0.483536034822464,
                -0.33687159419059753,
                0.20870360732078552,
                0.7804827094078064
            ],
            "translation" : [
                7.358891487121582,
                -4.958309173583984,
                -6.925790786743164
            ]
        },
        {
            "name" : "Camera.003",
            "rotation" : [
                0.8937963247299194,
                -0.09062900394201279,
                0.3857799768447876,
                0.20997236669063568
            ],
            "translation" : [
                7.358891487121582,
                -4.958308696746826,
                -6.925792217254639
            ]
        },
        {
            "name" : "Camera.004",
            "rotation" : [
                -0.7804826498031616,
                -0.2087034434080124,
                -0.33687177300453186,
                0.4835362136363983
            ],
            "translation" : [
                7.358891487121582,
                -4.958308219909668,
                -6.925793647766113
            ]
        },
        {
            "name" : "Camera.005",
            "rotation" : [
                0.8937963247299194,
                -0.09062900394201279,
                0.3857799768447876,
                0.20997236669063568
            ],
            "translation" : [
                7.358891487121582,
                -4.958308696746826,
                -6.925792217254639
            ]
        },
        {
            "name" : "Camera.006",
            "rotation" : [
                0.8937963247299194,
                -0.09062900394201279,
                0.3857799768447876,
                0.20997236669063568
            ],
            "translation" : [
                7.358891487121582,
                -4.958308696746826,
                -6.925792217254639
            ]
        },
        {
            "name" : "Light.002",
            "rotation" : [
                0.16907575726509094,
                -0.7558803558349609,
                0.2721714377403259,
                0.5709474682807922
            ],
            "translation" : [
                4.12216854095459,
                -5.903861999511719,
                0.6267497539520264
            ]
        },
        {
            "name" : "Light.003",
            "rotation" : [
                0.5232754349708557,
                -0.34203392267227173,
                0.7269424200057983,
                0.2841660678386688
            ],
            "translation" : [
                4.076245307922363,
                -5.903862476348877,
                1.0054532289505005
            ]
        },
        {
            "name" : "Light.004",
            "rotation" : [
                -0.5709477066993713,
                -0.2721712589263916,
                -0.7558803558349609,
                0.16907550394535065
            ],
            "translation" : [
                4.076245307922363,
                -5.903862953186035,
                1.0054525136947632
            ]
        },
        {
            "name" : "Light.005",
            "rotation" : [
                0.5232754349708557,
                -0.34203392267227173,
                0.7269424200057983,
                0.2841660678386688
            ],
            "translation" : [
                4.076245307922363,
                -5.903862476348877,
                1.0054532289505005
            ]
        },
        {
            "name" : "Light.006",
            "rotation" : [
                0.5232754349708557,
                -0.34203392267227173,
                0.7269424200057983,
                0.2841660678386688
            ],
            "translation" : [
                4.076245307922363,
                -5.903862476348877,
                1.0054532289505005
            ]
        },
        {
            "mesh" : 0,
            "name" : "Object_0",
            "translation" : [
                0,
                0.5141274929046631,
                0
            ]
        },
        {
            "children" : [
                14
            ],
            "name" : "Node",
            "rotation" : [
                -0.7071065902709961,
                0,
                0,
                0.7071069478988647
            ],
            "translation" : [
                -0.9703099727630615,
                2.7766342163085938,
                -0.2570851445198059
            ]
        },
        {
            "name" : "Node.001",
            "rotation" : [
                1,
                0,
                0,
                -1.3435885648505064e-07
            ],
            "translation" : [
                -1.117213487625122,
                2.68916654586792,
                0.42729678750038147
            ]
        },
        {
            "name" : "Node.002",
            "rotation" : [
                0.7071068286895752,
                0,
                0,
                0.7071067094802856
            ],
            "translation" : [
                -1.1172446012496948,
                1.982509732246399,
                0.6266504526138306
            ]
        },
        {
            "name" : "Node.003",
            "rotation" : [
                0.7071068286895752,
                0,
                0,
                0.7071067094802856
            ],
            "translation" : [
                4.11012077331543,
                0,
                -0.3787042200565338
            ]
        },
        {
            "children" : [
                4,
                5,
                6,
                7,
                8,
                9,
                10,
                11,
                12,
                13,
                15,
                16,
                17,
                18
            ],
            "name" : "Yup2Zup.001",
            "rotation" : [
                0.7071068286895752,
                0,
                0,
                0.7071068286895752
            ]
        },
        {
            "children" : [
                2,
                3,
                19
            ],
            "name" : "Yup2Zup",
            "rotation" : [
                0.7071067690849304,
                0,
                0,
                0.7071067690849304
            ]
        }
    ],
    "animations" : [
        {
            "channels" : [
                {
                    "sampler" : 0,
                    "target" : {
                        "node" : 14,
                        "path" : "rotation"
                    }
                }
            ],
            "name" : "Object_0Action_Object_0_Object_0",
            "samplers" : [
                {
                    "input" : 15,
                    "interpolation" : "LINEAR",
                    "output" : 16
                }
            ]
        }
    ],
    "materials" : [
        {
            "name" : "palette",
            "pbrMetallicRoughness" : {
                "baseColorTexture" : {
                    "index" : 0,
                    "texCoord" : 0
                },
                "metallicFactor" : 0.5,
                "roughnessFactor" : 0.5
            }
        },
        {
            "name" : "palette.004",
            "pbrMetallicRoughness" : {
                "baseColorTexture" : {
                    "index" : 1,
                    "texCoord" : 0
                },
                "metallicFactor" : 0.5,
                "roughnessFactor" : 0.5
            }
        },
        {
            "name" : "palette.005",
            "pbrMetallicRoughness" : {
                "baseColorTexture" : {
                    "index" : 2,
                    "texCoord" : 0
                },
                "metallicFactor" : 0.5,
                "roughnessFactor" : 0.5
            }
        },
        {
            "name" : "palette.003",
            "pbrMetallicRoughness" : {
                "baseColorTexture" : {
                    "index" : 3,
                    "texCoord" : 0
                },
                "metallicFactor" : 0.5,
                "roughnessFactor" : 0.5
            }
        }
    ],
    "meshes" : [
        {
            "name" : "Mesh_0",
            "primitives" : [
                {
                    "attributes" : {
                        "POSITION" : 0,
                        "NORMAL" : 1,
                        "TEXCOORD_0" : 2
                    },
                    "indices" : 3,
                    "material" : 0
                },
                {
                    "attributes" : {
                        "POSITION" : 4,
                        "NORMAL" : 5,
                        "TEXCOORD_0" : 6
                    },
                    "indices" : 7,
                    "material" : 1
                },
                {
                    "attributes" : {
                        "POSITION" : 8,
                        "NORMAL" : 9,
                        "TEXCOORD_0" : 10
                    },
                    "indices" : 11,
                    "material" : 2
                },
                {
                    "attributes" : {
                        "POSITION" : 12,
                        "NORMAL" : 13,
                        "TEXCOORD_0" : 14
                    },
                    "indices" : 11,
                    "material" : 3
                }
            ]
        }
    ],
    "textures" : [
        {
            "source" : 0
        },
        {
            "source" : 0
        },
        {
            "source" : 0
        },
        {
            "source" : 0
        }
    ],
    "images" : [
        {
            "bufferView" : 4,
            "mimeType" : "image/png",
            "name" : "Image_0"
        }
    ],
    "accessors" : [
        {
            "bufferView" : 0,
            "componentType" : 5126,
            "count" : 2712,
            "max" : [
                1.9788662195205688,
                -0.10092173516750336,
                -1.6612060070037842
            ],
            "min" : [
                0.07886626571416855,
                -1.6009217500686646,
                -4.461206436157227
            ],
            "type" : "VEC3"
        },
        {
            "bufferView" : 1,
            "componentType" : 5126,
            "count" : 2712,
            "type" : "VEC3"
        },
        {
            "bufferView" : 2,
            "componentType" : 5126,
            "count" : 2712,
            "type" : "VEC2"
        },
        {
            "bufferView" : 3,
            "componentType" : 5123,
            "count" : 2712,
            "type" : "SCALAR"
        },
        {
            "bufferView" : 5,
            "componentType" : 5126,
            "count" : 1260,
            "max" : [
                1.8530964851379395,
                -1.5985100269317627,
                -2.187466621398926
            ],
            "min" : [
                0.25309649109840393,
                -2.4985103607177734,
                -4.187467098236084
            ],
            "type" : "VEC3"
        },
        {
            "bufferView" : 6,
            "componentType" : 5126,
            "count" : 1260,
            "type" : "VEC3"
        },
        {
            "bufferView" : 7,
            "componentType" : 5126,
            "count" : 1260,
            "type" : "VEC2"
        },
        {
            "bufferView" : 8,
            "componentType" : 5123,
            "count" : 1260,
            "type" : "SCALAR"
        },
        {
            "bufferView" : 9,
            "componentType" : 5126,
            "count" : 180,
            "max" : [
                0.2530653774738312,
                -1.3978641033172607,
                -2.1941235065460205
            ],
            "min" : [
                -0.1469346284866333,
                -1.7978641986846924,
                -2.594123601913452
            ],
            "type" : "VEC3"
        },
        {
            "bufferView" : 10,
            "componentType" : 5126,
            "count" : 180,
            "type" : "VEC3"
        },
        {
            "bufferView" : 11,
            "componentType" : 5126,
            "count" : 180,
            "type" : "VEC2"
        },
        {
            "bufferView" : 12,
            "componentType" : 5123,
            "count" : 180,
            "type" : "SCALAR"
        },
        {
            "bufferView" : 13,
            "componentType" : 5126,
            "count" : 180,
            "max" : [
                2.2640540599823,
                -1.4097435474395752,
                -2.592284917831421
            ],
            "min" : [
                1.8640539646148682,
                -1.8097436428070068,
                -2.9922850131988525
            ],
            "type" : "VEC3"
        },
        {
            "bufferView" : 14,
            "componentType" : 5126,
            "count" : 180,
            "type" : "VEC3"
        },
        {
            "bufferView" : 15,
            "componentType" : 5126,
            "count" : 180,
            "type" : "VEC2"
        },
        {
            "bufferView" : 16,
            "componentType" : 5126,
            "count" : 48,
            "max" : [
                2
            ],
            "min" : [
                0.041666666666666664
            ],
            "type" : "SCALAR"
        },
        {
            "bufferView" : 17,
            "componentType" : 5126,
            "count" : 48,
            "type" : "VEC4"
        }
    ],
    "bufferViews" : [
        {
            "buffer" : 0,
            "byteLength" : 32544,
            "byteOffset" : 0
        },
        {
            "buffer" : 0,
            "byteLength" : 32544,
            "byteOffset" : 32544
        },
        {
            "buffer" : 0,
            "byteLength" : 21696,
            "byteOffset" : 65088
        },
        {
            "buffer" : 0,
            "byteLength" : 5424,
            "byteOffset" : 86784
        },
        {
            "buffer" : 0,
            "byteLength" : 985,
            "byteOffset" : 92208
        },
        {
            "buffer" : 0,
            "byteLength" : 15120,
            "byteOffset" : 93196
        },
        {
            "buffer" : 0,
            "byteLength" : 15120,
            "byteOffset" : 108316
        },
        {
            "buffer" : 0,
            "byteLength" : 10080,
            "byteOffset" : 123436
        },
        {
            "buffer" : 0,
            "byteLength" : 2520,
            "byteOffset" : 133516
        },
        {
            "buffer" : 0,
            "byteLength" : 2160,
            "byteOffset" : 136036
        },
        {
            "buffer" : 0,
            "byteLength" : 2160,
            "byteOffset" : 138196
        },
        {
            "buffer" : 0,
            "byteLength" : 1440,
            "byteOffset" : 140356
        },
        {
            "buffer" : 0,
            "byteLength" : 360,
            "byteOffset" : 141796
        },
        {
            "buffer" : 0,
            "byteLength" : 2160,
            "byteOffset" : 142156
        },
        {
            "buffer" : 0,
            "byteLength" : 2160,
            "byteOffset" : 144316
        },
        {
            "buffer" : 0,
            "byteLength" : 1440,
            "byteOffset" : 146476
        },
        {
            "buffer" : 0,
            "byteLength" : 192,
            "byteOffset" : 147916
        },
        {
            "buffer" : 0,
            "byteLength" : 768,
            "byteOffset" : 148108
        }
    ],
    "buffers" : [
        {
            "byteLength" : 148876,
            "uri" : "data:application/octet-stream;base64,"
        }
    ]
}
