{
    "asset" : {
        "generator" : "Khronos glTF Blender I/O v1.0.5",
        "version" : "2.0"
    },
    "scene" : 0,
    "scenes" : [
        {
            "name" : "Scene",
            "nodes" : [
                0,
                1,
                3
            ]
        }
    ],
    "nodes" : [
        {
            "name" : "Light",
            "rotation" : [
                0.16907575726509094,
                0.7558803558349609,
                -0.27217137813568115,
                0.570947527885437
            ],
            "translation" : [
                4.076245307922363,
                5.903861999511719,
                -1.0054539442062378
            ]
        },
        {
            "name" : "Camera",
            "rotation" : [
                0.483536034822464,
                0.33687159419059753,
                -0.20870360732078552,
                0.7804827094078064
            ],
            "translation" : [
                7.358891487121582,
                4.958309173583984,
                6.925790786743164
            ]
        },
        {
            "mesh" : 0,
            "name" : "Object_0"
        },
        {
            "children" : [
                2
            ],
            "name" : "Node",
            "rotation" : [
                0.7071068286895752,
                0,
                0,
                0.7071067094802856
            ],
            "translation" : [
                -1.2026138305664062,
                -2.847177743911743,
                0.8755594491958618
            ]
        }
    ],
    "materials" : [
        {
            "name" : "palette",
            "pbrMetallicRoughness" : {
                "baseColorTexture" : {
                    "index" : 0,
                    "texCoord" : 0
                },
                "metallicFactor" : 0.5,
                "roughnessFactor" : 0.5
            }
        }
    ],
    "meshes" : [
        {
            "name" : "Mesh_0",
            "primitives" : [
                {
                    "attributes" : {
                        "POSITION" : 0,
                        "NORMAL" : 1,
                        "TEXCOORD_0" : 2
                    },
                    "indices" : 3,
                    "material" : 0
                }
            ]
        }
    ],
    "textures" : [
        {
            "source" : 0
        }
    ],
    "images" : [
        {
            "bufferView" : 4,
            "mimeType" : "image/png",
            "name" : "Image_0"
        }
    ],
    "accessors" : [
        {
            "bufferView" : 0,
            "componentType" : 5126,
            "count" : 1260,
            "max" : [
                2,
                -0.4000000059604645,
                -2.0999999046325684
            ],
            "min" : [
                0.4000000059604645,
                -1.2999999523162842,
                -4.099999904632568
            ],
            "type" : "VEC3"
        },
        {
            "bufferView" : 1,
            "componentType" : 5126,
            "count" : 1260,
            "type" : "VEC3"
        },
        {
            "bufferView" : 2,
            "componentType" : 5126,
            "count" : 1260,
            "type" : "VEC2"
        },
        {
            "bufferView" : 3,
            "componentType" : 5123,
            "count" : 1260,
            "type" : "SCALAR"
        }
    ],
    "bufferViews" : [
        {
            "buffer" : 0,
            "byteLength" : 15120,
            "byteOffset" : 0
        },
        {
            "buffer" : 0,
            "byteLength" : 15120,
            "byteOffset" : 15120
        },
        {
            "buffer" : 0,
            "byteLength" : 10080,
            "byteOffset" : 30240
        },
        {
            "buffer" : 0,
            "byteLength" : 2520,
            "byteOffset" : 40320
        },
        {
            "buffer" : 0,
            "byteLength" : 985,
            "byteOffset" : 42840
        }
    ],
    "buffers" : [
        {
            "byteLength" : 43828,
            "uri" : "data:application/octet-stream;base64,"
        }
    ]
}
