{
    "asset" : {
        "generator" : "Khronos glTF Blender I/O v1.0.5",
        "version" : "2.0"
    },
    "scene" : 0,
    "scenes" : [
        {
            "name" : "Scene",
            "nodes" : [
                0,
                1,
                3,
                5,
                7,
                9,
                11,
                13,
                15,
                17,
                18,
                19
            ]
        }
    ],
    "nodes" : [
        {
            "name" : "Light",
            "rotation" : [
                0.16907575726509094,
                0.7558803558349609,
                -0.27217137813568115,
                0.570947527885437
            ],
            "translation" : [
                4.076245307922363,
                5.903861999511719,
                -1.0054539442062378
            ]
        },
        {
            "name" : "Camera",
            "rotation" : [
                0.483536034822464,
                0.33687159419059753,
                -0.20870360732078552,
                0.7804827094078064
            ],
            "translation" : [
                7.358891487121582,
                4.958309173583984,
                6.925790786743164
            ]
        },
        {
            "mesh" : 0,
            "name" : "Object_0.001",
            "scale" : [
                1.7020316123962402,
                1.7020316123962402,
                1.7020316123962402
            ],
            "translation" : [
                -0.33588987588882446,
                -1.8693338632583618,
                -4.12144660949707
            ]
        },
        {
            "children" : [
                2
            ],
            "name" : "Node.008",
            "translation" : [
                -0.5831285119056702,
                -2.646066427230835,
                5.54090690612793
            ]
        },
        {
            "mesh" : 1,
            "name" : "Object_0.004",
            "scale" : [
                0.7144941687583923,
                0.7144942283630371,
                0.7144941687583923
            ],
            "translation" : [
                0.3873859643936157,
                0.6972139477729797,
                -4.083456039428711
            ]
        },
        {
            "children" : [
                4
            ],
            "name" : "Node.009",
            "rotation" : [
                -0.026872852817177773,
                0.05145306512713432,
                0.0560908168554306,
                0.9967368245124817
            ],
            "translation" : [
                -0.4737957715988159,
                -2.0438573360443115,
                5.361147403717041
            ]
        },
        {
            "mesh" : 2,
            "name" : "Object_0.005",
            "translation" : [
                -2.3590972423553467,
                -1.9251139163970947,
                -5.411981582641602
            ]
        },
        {
            "children" : [
                6
            ],
            "name" : "Node.010",
            "rotation" : [
                0.05071346089243889,
                -0.2501216232776642,
                -0.4521337151527405,
                0.8546592593193054
            ],
            "scale" : [
                0.648057758808136,
                0.648057758808136,
                0.6480578780174255
            ],
            "translation" : [
                -1.8088459968566895,
                0.20582710206508636,
                4.215093612670898
            ]
        },
        {
            "mesh" : 3,
            "name" : "Object_0.006",
            "rotation" : [
                -0.22622321546077728,
                -0.019115418195724487,
                -0.03435001149773598,
                0.9732820391654968
            ],
            "scale" : [
                1.1671226024627686,
                0.9213016629219055,
                0.9459866881370544
            ],
            "translation" : [
                -3.5932517051696777,
                -6.124083042144775,
                0.12389373779296875
            ]
        },
        {
            "children" : [
                8
            ],
            "name" : "Node.011",
            "rotation" : [
                0.41350486874580383,
                0.13890191912651062,
                0.6519161462783813,
                0.6202624440193176
            ],
            "scale" : [
                0.629696249961853,
                0.629696249961853,
                0.629696249961853
            ],
            "translation" : [
                -0.8119235634803772,
                1.2556818723678589,
                3.586151123046875
            ]
        },
        {
            "mesh" : 4,
            "name" : "Object_0.007",
            "translation" : [
                0.015319149009883404,
                -2.131206656486029e-06,
                -3.946747064590454
            ]
        },
        {
            "children" : [
                10
            ],
            "name" : "Node.012",
            "translation" : [
                -0.5570660829544067,
                -2.6374876499176025,
                5.008262634277344
            ]
        },
        {
            "mesh" : 5,
            "name" : "Object_0.000",
            "translation" : [
                0,
                -0.4213794469833374,
                0
            ]
        },
        {
            "children" : [
                12
            ],
            "name" : "Node.001",
            "rotation" : [
                0.7071068286895752,
                0,
                0,
                0.7071067094802856
            ],
            "translation" : [
                -0.9042116403579712,
                -3.1161556243896484,
                0.04866799712181091
            ]
        },
        {
            "mesh" : 6,
            "name" : "Object_0",
            "translation" : [
                0,
                0.4213794469833374,
                0
            ]
        },
        {
            "children" : [
                14
            ],
            "name" : "Node.004",
            "rotation" : [
                -0.7071065902709961,
                0,
                0,
                0.7071069478988647
            ],
            "translation" : [
                -0.9028120636940002,
                -2.174118995666504,
                0.46637362241744995
            ]
        },
        {
            "mesh" : 7,
            "name" : "Object_0.002",
            "translation" : [
                -1.5314176082611084,
                -0.07160167396068573,
                -2.174118757247925
            ]
        },
        {
            "children" : [
                16
            ],
            "name" : "Node.005",
            "rotation" : [
                -0.7071065902709961,
                0,
                0,
                0.7071069478988647
            ],
            "translation" : [
                2.1447763442993164,
                0,
                0
            ]
        },
        {
            "name" : "Light.001",
            "rotation" : [
                0.5232754945755005,
                0.34203392267227173,
                -0.7269423604011536,
                0.284166157245636
            ],
            "translation" : [
                4.12216854095459,
                5.903862476348877,
                -1.7035213708877563
            ]
        },
        {
            "name" : "Light.043",
            "rotation" : [
                -0.5709477066993713,
                0.2721712291240692,
                0.7558802962303162,
                0.16907566785812378
            ],
            "translation" : [
                4.076245307922363,
                5.903862953186035,
                -1.0054525136947632
            ]
        }
    ],
    "materials" : [
        {
            "name" : "palette.001",
            "pbrMetallicRoughness" : {
                "baseColorTexture" : {
                    "index" : 0,
                    "texCoord" : 0
                },
                "metallicFactor" : 0.5,
                "roughnessFactor" : 0.5
            }
        },
        {
            "name" : "palette.002",
            "pbrMetallicRoughness" : {
                "baseColorTexture" : {
                    "index" : 1,
                    "texCoord" : 0
                },
                "metallicFactor" : 0.5,
                "roughnessFactor" : 0.5
            }
        },
        {
            "name" : "palette.006",
            "pbrMetallicRoughness" : {
                "baseColorTexture" : {
                    "index" : 2,
                    "texCoord" : 0
                },
                "metallicFactor" : 0.5,
                "roughnessFactor" : 0.5
            }
        },
        {
            "name" : "palette.007",
            "pbrMetallicRoughness" : {
                "baseColorTexture" : {
                    "index" : 3,
                    "texCoord" : 0
                },
                "metallicFactor" : 0.5,
                "roughnessFactor" : 0.5
            }
        },
        {
            "name" : "palette.004",
            "pbrMetallicRoughness" : {
                "baseColorTexture" : {
                    "index" : 4,
                    "texCoord" : 0
                },
                "metallicFactor" : 0.5,
                "roughnessFactor" : 0.5
            }
        },
        {
            "name" : "palette.008",
            "pbrMetallicRoughness" : {
                "baseColorTexture" : {
                    "index" : 5,
                    "texCoord" : 0
                },
                "metallicFactor" : 0.5,
                "roughnessFactor" : 0.5
            }
        },
        {
            "name" : "palette.009",
            "pbrMetallicRoughness" : {
                "baseColorTexture" : {
                    "index" : 6,
                    "texCoord" : 0
                },
                "metallicFactor" : 0.5,
                "roughnessFactor" : 0.5
            }
        },
        {
            "name" : "palette.010",
            "pbrMetallicRoughness" : {
                "baseColorTexture" : {
                    "index" : 7,
                    "texCoord" : 0
                },
                "metallicFactor" : 0.5,
                "roughnessFactor" : 0.5
            }
        }
    ],
    "meshes" : [
        {
            "name" : "Mesh_0.004",
            "primitives" : [
                {
                    "attributes" : {
                        "POSITION" : 0,
                        "NORMAL" : 1,
                        "TEXCOORD_0" : 2
                    },
                    "indices" : 3,
                    "material" : 0
                }
            ]
        },
        {
            "name" : "Mesh_0.005",
            "primitives" : [
                {
                    "attributes" : {
                        "POSITION" : 4,
                        "NORMAL" : 5,
                        "TEXCOORD_0" : 6
                    },
                    "indices" : 7,
                    "material" : 1
                }
            ]
        },
        {
            "name" : "Mesh_0.006",
            "primitives" : [
                {
                    "attributes" : {
                        "POSITION" : 8,
                        "NORMAL" : 9,
                        "TEXCOORD_0" : 10
                    },
                    "indices" : 7,
                    "material" : 2
                }
            ]
        },
        {
            "name" : "Mesh_0.007",
            "primitives" : [
                {
                    "attributes" : {
                        "POSITION" : 11,
                        "NORMAL" : 12,
                        "TEXCOORD_0" : 13
                    },
                    "indices" : 7,
                    "material" : 3
                }
            ]
        },
        {
            "name" : "Mesh_0.001",
            "primitives" : [
                {
                    "attributes" : {
                        "POSITION" : 14,
                        "NORMAL" : 15,
                        "TEXCOORD_0" : 16
                    },
                    "indices" : 17,
                    "material" : 4
                }
            ]
        },
        {
            "name" : "Mesh_0.008",
            "primitives" : [
                {
                    "attributes" : {
                        "POSITION" : 18,
                        "NORMAL" : 19,
                        "TEXCOORD_0" : 20
                    },
                    "indices" : 21,
                    "material" : 5
                }
            ]
        },
        {
            "name" : "Mesh_0.009",
            "primitives" : [
                {
                    "attributes" : {
                        "POSITION" : 22,
                        "NORMAL" : 23,
                        "TEXCOORD_0" : 24
                    },
                    "indices" : 25,
                    "material" : 6
                }
            ]
        },
        {
            "name" : "Mesh_0.010",
            "primitives" : [
                {
                    "attributes" : {
                        "POSITION" : 26,
                        "NORMAL" : 27,
                        "TEXCOORD_0" : 28
                    },
                    "indices" : 25,
                    "material" : 7
                }
            ]
        }
    ],
    "textures" : [
        {
            "source" : 0
        },
        {
            "source" : 1
        },
        {
            "source" : 1
        },
        {
            "source" : 1
        },
        {
            "source" : 0
        },
        {
            "source" : 2
        },
        {
            "source" : 2
        },
        {
            "source" : 2
        }
    ],
    "images" : [
        {
            "bufferView" : 4,
            "mimeType" : "image/png",
            "name" : "Image_0"
        },
        {
            "bufferView" : 9,
            "mimeType" : "image/png",
            "name" : "Image_1"
        },
        {
            "bufferView" : 24,
            "mimeType" : "image/png",
            "name" : "Image_2"
        }
    ],
    "accessors" : [
        {
            "bufferView" : 0,
            "componentType" : 5126,
            "count" : 840,
            "max" : [
                1.100000023841858,
                3.299999952316284,
                -0.10000000149011612
            ],
            "min" : [
                0,
                2,
                -0.8999999761581421
            ],
            "type" : "VEC3"
        },
        {
            "bufferView" : 1,
            "componentType" : 5126,
            "count" : 840,
            "type" : "VEC3"
        },
        {
            "bufferView" : 2,
            "componentType" : 5126,
            "count" : 840,
            "type" : "VEC2"
        },
        {
            "bufferView" : 3,
            "componentType" : 5123,
            "count" : 840,
            "type" : "SCALAR"
        },
        {
            "bufferView" : 5,
            "componentType" : 5126,
            "count" : 396,
            "max" : [
                1.100000023841858,
                3.9000000953674316,
                -0.4000000059604645
            ],
            "min" : [
                0.4000000059604645,
                2,
                -1.100000023841858
            ],
            "type" : "VEC3"
        },
        {
            "bufferView" : 6,
            "componentType" : 5126,
            "count" : 396,
            "type" : "VEC3"
        },
        {
            "bufferView" : 7,
            "componentType" : 5126,
            "count" : 396,
            "type" : "VEC2"
        },
        {
            "bufferView" : 8,
            "componentType" : 5123,
            "count" : 396,
            "type" : "SCALAR"
        },
        {
            "bufferView" : 10,
            "componentType" : 5126,
            "count" : 396,
            "max" : [
                1.100000023841858,
                3.9000000953674316,
                -0.4000000059604645
            ],
            "min" : [
                0.4000000059604645,
                2,
                -1.100000023841858
            ],
            "type" : "VEC3"
        },
        {
            "bufferView" : 11,
            "componentType" : 5126,
            "count" : 396,
            "type" : "VEC3"
        },
        {
            "bufferView" : 12,
            "componentType" : 5126,
            "count" : 396,
            "type" : "VEC2"
        },
        {
            "bufferView" : 13,
            "componentType" : 5126,
            "count" : 396,
            "max" : [
                1.100000023841858,
                3.9000000953674316,
                -0.4000000059604645
            ],
            "min" : [
                0.4000000059604645,
                2,
                -1.100000023841858
            ],
            "type" : "VEC3"
        },
        {
            "bufferView" : 14,
            "componentType" : 5126,
            "count" : 396,
            "type" : "VEC3"
        },
        {
            "bufferView" : 15,
            "componentType" : 5126,
            "count" : 396,
            "type" : "VEC2"
        },
        {
            "bufferView" : 16,
            "componentType" : 5126,
            "count" : 924,
            "max" : [
                1.100000023841858,
                3.299999952316284,
                -0.10000000149011612
            ],
            "min" : [
                0,
                2,
                -0.8999999761581421
            ],
            "type" : "VEC3"
        },
        {
            "bufferView" : 17,
            "componentType" : 5126,
            "count" : 924,
            "type" : "VEC3"
        },
        {
            "bufferView" : 18,
            "componentType" : 5126,
            "count" : 924,
            "type" : "VEC2"
        },
        {
            "bufferView" : 19,
            "componentType" : 5123,
            "count" : 924,
            "type" : "SCALAR"
        },
        {
            "bufferView" : 20,
            "componentType" : 5126,
            "count" : 1800,
            "max" : [
                1.899999976158142,
                0,
                -2
            ],
            "min" : [
                0,
                -1.399999976158142,
                -4.699999809265137
            ],
            "type" : "VEC3"
        },
        {
            "bufferView" : 21,
            "componentType" : 5126,
            "count" : 1800,
            "type" : "VEC3"
        },
        {
            "bufferView" : 22,
            "componentType" : 5126,
            "count" : 1800,
            "type" : "VEC2"
        },
        {
            "bufferView" : 23,
            "componentType" : 5123,
            "count" : 1800,
            "type" : "SCALAR"
        },
        {
            "bufferView" : 25,
            "componentType" : 5126,
            "count" : 180,
            "max" : [
                0.4000000059604645,
                0.4000000059604645,
                2.4000000953674316
            ],
            "min" : [
                0,
                0,
                2
            ],
            "type" : "VEC3"
        },
        {
            "bufferView" : 26,
            "componentType" : 5126,
            "count" : 180,
            "type" : "VEC3"
        },
        {
            "bufferView" : 27,
            "componentType" : 5126,
            "count" : 180,
            "type" : "VEC2"
        },
        {
            "bufferView" : 28,
            "componentType" : 5123,
            "count" : 180,
            "type" : "SCALAR"
        },
        {
            "bufferView" : 29,
            "componentType" : 5126,
            "count" : 180,
            "max" : [
                0.4000000059604645,
                0.4000000059604645,
                2.4000000953674316
            ],
            "min" : [
                0,
                0,
                2
            ],
            "type" : "VEC3"
        },
        {
            "bufferView" : 30,
            "componentType" : 5126,
            "count" : 180,
            "type" : "VEC3"
        },
        {
            "bufferView" : 31,
            "componentType" : 5126,
            "count" : 180,
            "type" : "VEC2"
        }
    ],
    "bufferViews" : [
        {
            "buffer" : 0,
            "byteLength" : 10080,
            "byteOffset" : 0
        },
        {
            "buffer" : 0,
            "byteLength" : 10080,
            "byteOffset" : 10080
        },
        {
            "buffer" : 0,
            "byteLength" : 6720,
            "byteOffset" : 20160
        },
        {
            "buffer" : 0,
            "byteLength" : 1680,
            "byteOffset" : 26880
        },
        {
            "buffer" : 0,
            "byteLength" : 985,
            "byteOffset" : 28560
        },
        {
            "buffer" : 0,
            "byteLength" : 4752,
            "byteOffset" : 29548
        },
        {
            "buffer" : 0,
            "byteLength" : 4752,
            "byteOffset" : 34300
        },
        {
            "buffer" : 0,
            "byteLength" : 3168,
            "byteOffset" : 39052
        },
        {
            "buffer" : 0,
            "byteLength" : 792,
            "byteOffset" : 42220
        },
        {
            "buffer" : 0,
            "byteLength" : 985,
            "byteOffset" : 43012
        },
        {
            "buffer" : 0,
            "byteLength" : 4752,
            "byteOffset" : 44000
        },
        {
            "buffer" : 0,
            "byteLength" : 4752,
            "byteOffset" : 48752
        },
        {
            "buffer" : 0,
            "byteLength" : 3168,
            "byteOffset" : 53504
        },
        {
            "buffer" : 0,
            "byteLength" : 4752,
            "byteOffset" : 56672
        },
        {
            "buffer" : 0,
            "byteLength" : 4752,
            "byteOffset" : 61424
        },
        {
            "buffer" : 0,
            "byteLength" : 3168,
            "byteOffset" : 66176
        },
        {
            "buffer" : 0,
            "byteLength" : 11088,
            "byteOffset" : 69344
        },
        {
            "buffer" : 0,
            "byteLength" : 11088,
            "byteOffset" : 80432
        },
        {
            "buffer" : 0,
            "byteLength" : 7392,
            "byteOffset" : 91520
        },
        {
            "buffer" : 0,
            "byteLength" : 1848,
            "byteOffset" : 98912
        },
        {
            "buffer" : 0,
            "byteLength" : 21600,
            "byteOffset" : 100760
        },
        {
            "buffer" : 0,
            "byteLength" : 21600,
            "byteOffset" : 122360
        },
        {
            "buffer" : 0,
            "byteLength" : 14400,
            "byteOffset" : 143960
        },
        {
            "buffer" : 0,
            "byteLength" : 3600,
            "byteOffset" : 158360
        },
        {
            "buffer" : 0,
            "byteLength" : 986,
            "byteOffset" : 161960
        },
        {
            "buffer" : 0,
            "byteLength" : 2160,
            "byteOffset" : 162948
        },
        {
            "buffer" : 0,
            "byteLength" : 2160,
            "byteOffset" : 165108
        },
        {
            "buffer" : 0,
            "byteLength" : 1440,
            "byteOffset" : 167268
        },
        {
            "buffer" : 0,
            "byteLength" : 360,
            "byteOffset" : 168708
        },
        {
            "buffer" : 0,
            "byteLength" : 2160,
            "byteOffset" : 169068
        },
        {
            "buffer" : 0,
            "byteLength" : 2160,
            "byteOffset" : 171228
        },
        {
            "buffer" : 0,
            "byteLength" : 1440,
            "byteOffset" : 173388
        }
    ],
    "buffers" : [
        {
            "byteLength" : 174828,
            "uri" : "data:application/octet-stream;base64,"
        }
    ]
}
