# MagicaVoxel @ Ephtracy

# group
o 

# material
mtllib Rubber 2.mtl
usemtl palette

# normals
vn -1 0 0
vn 1 0 0
vn 0 0 1
vn 0 0 -1
vn 0 -1 0
vn 0 1 0

# texcoords
vt 0.208984 0.5
vt 0.287109 0.5
vt 0.306641 0.5
vt 0.634766 0.5
vt 0.919922 0.5
vt 0.935547 0.5
vt 0.958984 0.5

# verts
v 8.3 0.7 -2.5
v 8.3 0.7 -2.6
v 8.3 1.2 -2.5
v 8.3 1.2 -2.6
v 8.3 1.3 -2.5
v 8.3 1.3 -2.6
v 8.4 0.8 -2.6
v 8.4 0.8 -2.7
v 8.4 0.8 -3.3
v 8.4 0.8 -3.4
v 8.4 0.9 -2.7
v 8.4 0.9 -3.3
v 8.4 1 -2.6
v 8.4 1 -2.7
v 8.4 1 -3.3
v 8.4 1 -3.4
v 9.2 1.2 -2.7
v 9.2 1.2 -3.3
v 9.2 1.3 -2.8
v 9.2 1.3 -3.2
v 9.2 1.4 -2.8
v 9.2 1.4 -3.2
v 9.2 1.5 -2.7
v 9.2 1.5 -3.3
v 9.3 1 -2.6
v 9.3 1 -2.7
v 9.3 1 -3.3
v 9.3 1 -3.4
v 9.3 1.1 -2.7
v 9.3 1.1 -3.3
v 9.3 1.2 -2.7
v 9.3 1.2 -3.3
v 9.3 1.3 -2.6
v 9.3 1.3 -2.7
v 9.3 1.3 -3.3
v 9.3 1.3 -3.4
v 8.4 0.7 -2.5
v 8.4 0.7 -2.6
v 8.4 0.8 -2.6
v 8.4 1 -2.6
v 8.4 1.2 -2.5
v 8.4 1.2 -2.6
v 8.4 1.3 -2.5
v 8.4 1.3 -2.6
v 9.3 1.4 -2.7
v 9.3 1.4 -2.8
v 9.3 1.4 -3.2
v 9.3 1.4 -3.3
v 9.3 1.5 -2.7
v 9.3 1.5 -3.3
v 10 0.8 -2.6
v 10 0.8 -2.7
v 10 0.8 -3.3
v 10 0.8 -3.4
v 10 0.9 -2.6
v 10 0.9 -2.7
v 10 0.9 -3.3
v 10 0.9 -3.4
v 10 1.1 -2.7
v 10 1.1 -3.3
v 10 1.3 -2.6
v 10 1.3 -2.7
v 10 1.3 -3.3
v 10 1.3 -3.4
v 10 1.4 -2.7
v 10 1.4 -3.3
v 8.3 0.7 -2.5
v 8.3 1.2 -2.5
v 8.3 1.3 -2.5
v 8.4 0.7 -2.5
v 8.4 1.2 -2.5
v 8.4 1.3 -2.5
v 8.4 0.8 -2.6
v 8.4 1 -2.6
v 9 0.8 -2.6
v 9 0.9 -2.6
v 9 1 -2.6
v 9.3 1 -2.6
v 9.3 1.3 -2.6
v 9.4 1 -2.6
v 9.4 1.2 -2.6
v 9.9 1 -2.6
v 9.9 1.2 -2.6
v 10 0.8 -2.6
v 10 0.9 -2.6
v 10 1.3 -2.6
v 9.2 1.2 -2.7
v 9.2 1.5 -2.7
v 9.3 1.2 -2.7
v 9.3 1.3 -2.7
v 9.3 1.4 -2.7
v 9.3 1.5 -2.7
v 10 1.3 -2.7
v 10 1.4 -2.7
v 8.4 0.9 -3.3
v 8.4 1 -3.3
v 8.5 0.9 -3.3
v 8.6 0.9 -3.3
v 8.7 0.9 -3.3
v 8.8 0.9 -3.3
v 8.9 0.9 -3.3
v 9 0.9 -3.3
v 9 1 -3.3
v 9.1 0.9 -3.3
v 9.3 1 -3.3
v 9.3 1.1 -3.3
v 9.4 0.9 -3.3
v 9.4 1 -3.3
v 9.4 1.1 -3.3
v 9.9 0.9 -3.3
v 9.9 1 -3.3
v 9.9 1.1 -3.3
v 10 0.9 -3.3
v 10 1.1 -3.3
v 8.3 0.7 -2.6
v 8.3 1.2 -2.6
v 8.3 1.3 -2.6
v 8.4 0.7 -2.6
v 8.4 0.8 -2.6
v 8.4 1 -2.6
v 8.4 1.2 -2.6
v 8.4 1.3 -2.6
v 8.4 0.9 -2.7
v 8.4 1 -2.7
v 8.5 0.9 -2.7
v 8.6 0.9 -2.7
v 8.7 0.9 -2.7
v 8.8 0.9 -2.7
v 8.9 0.9 -2.7
v 9 0.9 -2.7
v 9 1 -2.7
v 9.1 0.9 -2.7
v 9.3 1 -2.7
v 9.3 1.1 -2.7
v 9.4 0.9 -2.7
v 9.4 1 -2.7
v 9.4 1.1 -2.7
v 9.9 0.9 -2.7
v 9.9 1 -2.7
v 9.9 1.1 -2.7
v 10 0.9 -2.7
v 10 1.1 -2.7
v 9.2 1.2 -3.3
v 9.2 1.5 -3.3
v 9.3 1.2 -3.3
v 9.3 1.3 -3.3
v 9.3 1.4 -3.3
v 9.3 1.5 -3.3
v 10 1.3 -3.3
v 10 1.4 -3.3
v 8.4 0.8 -3.4
v 8.4 1 -3.4
v 9 0.8 -3.4
v 9 0.9 -3.4
v 9 1 -3.4
v 9.3 1 -3.4
v 9.3 1.3 -3.4
v 9.4 1 -3.4
v 9.4 1.2 -3.4
v 9.9 1 -3.4
v 9.9 1.2 -3.4
v 10 0.8 -3.4
v 10 0.9 -3.4
v 10 1.3 -3.4
v 8.3 0.7 -2.5
v 8.4 0.7 -2.5
v 8.3 0.7 -2.6
v 8.4 0.7 -2.6
v 8.4 0.8 -2.6
v 9 0.8 -2.6
v 10 0.8 -2.6
v 8.4 0.8 -2.7
v 8.5 0.8 -2.7
v 8.6 0.8 -2.7
v 8.7 0.8 -2.7
v 8.8 0.8 -2.7
v 8.9 0.8 -2.7
v 9 0.8 -2.7
v 9.1 0.8 -2.7
v 9.4 0.8 -2.7
v 9.9 0.8 -2.7
v 10 0.8 -2.7
v 8.4 0.8 -3.3
v 8.5 0.8 -3.3
v 8.6 0.8 -3.3
v 8.7 0.8 -3.3
v 8.8 0.8 -3.3
v 8.9 0.8 -3.3
v 9 0.8 -3.3
v 9.1 0.8 -3.3
v 9.4 0.8 -3.3
v 9.9 0.8 -3.3
v 10 0.8 -3.3
v 8.4 0.8 -3.4
v 9 0.8 -3.4
v 10 0.8 -3.4
v 9.3 1.1 -2.7
v 9.4 1.1 -2.7
v 9.9 1.1 -2.7
v 10 1.1 -2.7
v 9.3 1.1 -3.3
v 9.4 1.1 -3.3
v 9.9 1.1 -3.3
v 10 1.1 -3.3
v 9.2 1.2 -2.7
v 9.3 1.2 -2.7
v 9.2 1.2 -3.3
v 9.3 1.2 -3.3
v 8.4 0.9 -2.7
v 8.5 0.9 -2.7
v 8.6 0.9 -2.7
v 8.7 0.9 -2.7
v 8.8 0.9 -2.7
v 8.9 0.9 -2.7
v 9 0.9 -2.7
v 9.1 0.9 -2.7
v 9.4 0.9 -2.7
v 9.9 0.9 -2.7
v 10 0.9 -2.7
v 8.4 0.9 -3.3
v 8.5 0.9 -3.3
v 8.6 0.9 -3.3
v 8.7 0.9 -3.3
v 8.8 0.9 -3.3
v 8.9 0.9 -3.3
v 9 0.9 -3.3
v 9.1 0.9 -3.3
v 9.4 0.9 -3.3
v 9.9 0.9 -3.3
v 10 0.9 -3.3
v 8.4 1 -2.6
v 9 1 -2.6
v 9.3 1 -2.6
v 8.4 1 -2.7
v 9 1 -2.7
v 9.3 1 -2.7
v 8.4 1 -3.3
v 9 1 -3.3
v 9.3 1 -3.3
v 8.4 1 -3.4
v 9 1 -3.4
v 9.3 1 -3.4
v 8.3 1.3 -2.5
v 8.4 1.3 -2.5
v 8.3 1.3 -2.6
v 8.4 1.3 -2.6
v 9.3 1.3 -2.6
v 10 1.3 -2.6
v 9.3 1.3 -2.7
v 10 1.3 -2.7
v 9.3 1.3 -3.3
v 10 1.3 -3.3
v 9.3 1.3 -3.4
v 10 1.3 -3.4
v 9.3 1.4 -2.7
v 10 1.4 -2.7
v 9.3 1.4 -2.8
v 9.4 1.4 -2.8
v 9.5 1.4 -2.8
v 9.8 1.4 -2.8
v 9.9 1.4 -2.8
v 9.6 1.4 -2.9
v 9.8 1.4 -2.9
v 9.9 1.4 -2.9
v 9.6 1.4 -3
v 9.8 1.4 -3
v 9.9 1.4 -3
v 9.5 1.4 -3.1
v 9.8 1.4 -3.1
v 9.3 1.4 -3.2
v 9.4 1.4 -3.2
v 9.9 1.4 -3.2
v 9.3 1.4 -3.3
v 10 1.4 -3.3
v 9.2 1.5 -2.7
v 9.3 1.5 -2.7
v 9.2 1.5 -3.3
v 9.3 1.5 -3.3

# faces
f 3/6/1 2/6/1 1/6/1
f 4/6/1 2/6/1 3/6/1
f 5/2/1 4/2/1 3/2/1
f 6/2/1 4/2/1 5/2/1
f 11/4/1 8/4/1 7/4/1
f 11/5/1 9/5/1 8/5/1
f 12/4/1 10/4/1 9/4/1
f 12/5/1 9/5/1 11/5/1
f 13/4/1 11/4/1 7/4/1
f 14/4/1 11/4/1 13/4/1
f 15/4/1 10/4/1 12/4/1
f 16/4/1 10/4/1 15/4/1
f 19/1/1 18/1/1 17/1/1
f 20/1/1 18/1/1 19/1/1
f 21/1/1 19/1/1 17/1/1
f 21/2/1 20/2/1 19/2/1
f 22/1/1 18/1/1 20/1/1
f 22/2/1 20/2/1 21/2/1
f 23/1/1 21/1/1 17/1/1
f 23/1/1 22/1/1 21/1/1
f 24/1/1 18/1/1 22/1/1
f 24/1/1 22/1/1 23/1/1
f 29/2/1 26/2/1 25/2/1
f 30/2/1 28/2/1 27/2/1
f 31/2/1 29/2/1 25/2/1
f 31/2/1 30/2/1 29/2/1
f 32/2/1 28/2/1 30/2/1
f 32/2/1 30/2/1 31/2/1
f 33/2/1 31/2/1 25/2/1
f 34/2/1 31/2/1 33/2/1
f 35/2/1 28/2/1 32/2/1
f 36/2/1 28/2/1 35/2/1
f 37/6/2 38/6/2 39/6/2
f 37/6/2 39/6/2 40/6/2
f 37/6/2 40/6/2 41/6/2
f 41/6/2 40/6/2 42/6/2
f 41/2/2 42/2/2 43/2/2
f 43/2/2 42/2/2 44/2/2
f 45/1/2 46/1/2 49/1/2
f 47/1/2 48/1/2 49/1/2
f 46/1/2 47/1/2 49/1/2
f 49/1/2 48/1/2 50/1/2
f 51/1/2 52/1/2 55/1/2
f 52/7/2 53/7/2 56/7/2
f 55/1/2 52/1/2 56/1/2
f 53/1/2 54/1/2 57/1/2
f 56/7/2 53/7/2 57/7/2
f 57/1/2 54/1/2 58/1/2
f 55/2/2 56/2/2 59/2/2
f 57/2/2 58/2/2 60/2/2
f 55/2/2 59/2/2 61/2/2
f 59/2/2 60/2/2 61/2/2
f 61/2/2 60/2/2 62/2/2
f 60/2/2 58/2/2 63/2/2
f 62/2/2 60/2/2 63/2/2
f 63/2/2 58/2/2 64/2/2
f 62/1/2 63/1/2 65/1/2
f 65/1/2 63/1/2 66/1/2
f 70/6/3 68/6/3 67/6/3
f 71/2/3 69/2/3 68/2/3
f 71/6/3 68/6/3 70/6/3
f 72/2/3 69/2/3 71/2/3
f 75/4/3 74/4/3 73/4/3
f 76/4/3 74/4/3 75/4/3
f 77/4/3 74/4/3 76/4/3
f 78/2/3 77/2/3 76/2/3
f 80/2/3 78/2/3 76/2/3
f 80/2/3 79/2/3 78/2/3
f 81/2/3 79/2/3 80/2/3
f 82/2/3 80/2/3 76/2/3
f 82/1/3 81/1/3 80/1/3
f 83/2/3 79/2/3 81/2/3
f 83/1/3 81/1/3 82/1/3
f 84/1/3 76/1/3 75/1/3
f 85/2/3 82/2/3 76/2/3
f 85/1/3 76/1/3 84/1/3
f 85/2/3 83/2/3 82/2/3
f 86/2/3 79/2/3 83/2/3
f 86/2/3 83/2/3 85/2/3
f 89/1/3 88/1/3 87/1/3
f 90/1/3 88/1/3 89/1/3
f 91/1/3 88/1/3 90/1/3
f 92/1/3 88/1/3 91/1/3
f 93/1/3 91/1/3 90/1/3
f 94/1/3 91/1/3 93/1/3
f 97/4/3 96/4/3 95/4/3
f 98/4/3 96/4/3 97/4/3
f 99/4/3 96/4/3 98/4/3
f 100/4/3 96/4/3 99/4/3
f 101/4/3 96/4/3 100/4/3
f 102/4/3 96/4/3 101/4/3
f 103/4/3 96/4/3 102/4/3
f 104/2/3 103/2/3 102/2/3
f 105/2/3 103/2/3 104/2/3
f 107/2/3 105/2/3 104/2/3
f 107/2/3 106/2/3 105/2/3
f 108/2/3 106/2/3 107/2/3
f 109/2/3 106/2/3 108/2/3
f 110/2/3 108/2/3 107/2/3
f 111/1/3 109/1/3 108/1/3
f 111/2/3 108/2/3 110/2/3
f 112/1/3 109/1/3 111/1/3
f 113/2/3 111/2/3 110/2/3
f 113/2/3 112/2/3 111/2/3
f 114/2/3 112/2/3 113/2/3
f 115/6/4 116/6/4 118/6/4
f 118/6/4 116/6/4 119/6/4
f 119/6/4 116/6/4 120/6/4
f 116/2/4 117/2/4 121/2/4
f 120/6/4 116/6/4 121/6/4
f 121/2/4 117/2/4 122/2/4
f 123/4/4 124/4/4 125/4/4
f 125/4/4 124/4/4 126/4/4
f 126/4/4 124/4/4 127/4/4
f 127/4/4 124/4/4 128/4/4
f 128/4/4 124/4/4 129/4/4
f 129/4/4 124/4/4 130/4/4
f 130/4/4 124/4/4 131/4/4
f 130/2/4 131/2/4 132/2/4
f 132/2/4 131/2/4 133/2/4
f 132/2/4 133/2/4 135/2/4
f 133/2/4 134/2/4 135/2/4
f 135/2/4 134/2/4 136/2/4
f 136/2/4 134/2/4 137/2/4
f 135/2/4 136/2/4 138/2/4
f 136/1/4 137/1/4 139/1/4
f 138/2/4 136/2/4 139/2/4
f 139/1/4 137/1/4 140/1/4
f 138/2/4 139/2/4 141/2/4
f 139/2/4 140/2/4 141/2/4
f 141/2/4 140/2/4 142/2/4
f 143/1/4 144/1/4 145/1/4
f 145/1/4 144/1/4 146/1/4
f 146/1/4 144/1/4 147/1/4
f 147/1/4 144/1/4 148/1/4
f 146/1/4 147/1/4 149/1/4
f 149/1/4 147/1/4 150/1/4
f 151/4/4 152/4/4 153/4/4
f 153/4/4 152/4/4 154/4/4
f 154/4/4 152/4/4 155/4/4
f 154/2/4 155/2/4 156/2/4
f 154/2/4 156/2/4 158/2/4
f 156/2/4 157/2/4 158/2/4
f 158/2/4 157/2/4 159/2/4
f 154/2/4 158/2/4 160/2/4
f 158/1/4 159/1/4 160/1/4
f 159/2/4 157/2/4 161/2/4
f 160/1/4 159/1/4 161/1/4
f 153/1/4 154/1/4 162/1/4
f 154/2/4 160/2/4 163/2/4
f 162/1/4 154/1/4 163/1/4
f 160/2/4 161/2/4 163/2/4
f 161/2/4 157/2/4 164/2/4
f 163/2/4 161/2/4 164/2/4
f 167/6/5 166/6/5 165/6/5
f 168/6/5 166/6/5 167/6/5
f 172/4/5 170/4/5 169/4/5
f 173/4/5 170/4/5 172/4/5
f 174/4/5 170/4/5 173/4/5
f 175/4/5 170/4/5 174/4/5
f 176/4/5 170/4/5 175/4/5
f 177/4/5 170/4/5 176/4/5
f 178/1/5 171/1/5 170/1/5
f 178/4/5 170/4/5 177/4/5
f 179/1/5 171/1/5 178/1/5
f 180/1/5 171/1/5 179/1/5
f 181/1/5 171/1/5 180/1/5
f 182/1/5 171/1/5 181/1/5
f 183/5/5 173/5/5 172/5/5
f 184/7/5 174/7/5 173/7/5
f 184/5/5 173/5/5 183/5/5
f 185/5/5 175/5/5 174/5/5
f 185/7/5 174/7/5 184/7/5
f 186/7/5 176/7/5 175/7/5
f 186/5/5 175/5/5 185/5/5
f 187/5/5 177/5/5 176/5/5
f 187/7/5 176/7/5 186/7/5
f 188/7/5 178/7/5 177/7/5
f 188/5/5 177/5/5 187/5/5
f 189/5/5 179/5/5 178/5/5
f 189/7/5 178/7/5 188/7/5
f 190/7/5 180/7/5 179/7/5
f 190/5/5 179/5/5 189/5/5
f 191/5/5 181/5/5 180/5/5
f 191/7/5 180/7/5 190/7/5
f 192/7/5 182/7/5 181/7/5
f 192/5/5 181/5/5 191/5/5
f 193/7/5 182/7/5 192/7/5
f 194/4/5 186/4/5 185/4/5
f 194/4/5 184/4/5 183/4/5
f 194/4/5 185/4/5 184/4/5
f 194/4/5 187/4/5 186/4/5
f 194/4/5 188/4/5 187/4/5
f 194/4/5 189/4/5 188/4/5
f 195/1/5 193/1/5 192/1/5
f 195/4/5 189/4/5 194/4/5
f 195/1/5 192/1/5 191/1/5
f 195/1/5 190/1/5 189/1/5
f 195/1/5 191/1/5 190/1/5
f 196/1/5 193/1/5 195/1/5
f 201/2/5 198/2/5 197/2/5
f 202/3/5 199/3/5 198/3/5
f 202/2/5 198/2/5 201/2/5
f 203/2/5 200/2/5 199/2/5
f 203/3/5 199/3/5 202/3/5
f 204/2/5 200/2/5 203/2/5
f 207/1/5 206/1/5 205/1/5
f 208/1/5 206/1/5 207/1/5
f 209/5/6 210/5/6 220/5/6
f 210/7/6 211/7/6 221/7/6
f 220/5/6 210/5/6 221/5/6
f 211/5/6 212/5/6 222/5/6
f 221/7/6 211/7/6 222/7/6
f 212/7/6 213/7/6 223/7/6
f 222/5/6 212/5/6 223/5/6
f 213/5/6 214/5/6 224/5/6
f 223/7/6 213/7/6 224/7/6
f 214/7/6 215/7/6 225/7/6
f 224/5/6 214/5/6 225/5/6
f 215/5/6 216/5/6 226/5/6
f 225/7/6 215/7/6 226/7/6
f 216/7/6 217/7/6 227/7/6
f 226/5/6 216/5/6 227/5/6
f 217/5/6 218/5/6 228/5/6
f 227/7/6 217/7/6 228/7/6
f 218/7/6 219/7/6 229/7/6
f 228/5/6 218/5/6 229/5/6
f 229/7/6 219/7/6 230/7/6
f 231/4/6 232/4/6 234/4/6
f 232/2/6 233/2/6 235/2/6
f 234/4/6 232/4/6 235/4/6
f 235/2/6 233/2/6 236/2/6
f 237/4/6 238/4/6 240/4/6
f 238/2/6 239/2/6 241/2/6
f 240/4/6 238/4/6 241/4/6
f 241/2/6 239/2/6 242/2/6
f 243/2/6 244/2/6 245/2/6
f 245/2/6 244/2/6 246/2/6
f 247/2/6 248/2/6 249/2/6
f 249/2/6 248/2/6 250/2/6
f 251/2/6 252/2/6 253/2/6
f 253/2/6 252/2/6 254/2/6
f 255/1/6 256/1/6 257/1/6
f 257/1/6 256/1/6 258/1/6
f 258/1/6 256/1/6 259/1/6
f 259/1/6 256/1/6 260/1/6
f 260/1/6 256/1/6 261/1/6
f 259/2/6 260/2/6 262/2/6
f 260/7/6 261/7/6 263/7/6
f 262/2/6 260/2/6 263/2/6
f 261/1/6 256/1/6 264/1/6
f 263/7/6 261/7/6 264/7/6
f 262/7/6 263/7/6 265/7/6
f 259/2/6 262/2/6 265/2/6
f 263/2/6 264/2/6 266/2/6
f 265/7/6 263/7/6 266/7/6
f 264/1/6 256/1/6 267/1/6
f 266/2/6 264/2/6 267/2/6
f 258/7/6 259/7/6 268/7/6
f 265/2/6 266/2/6 268/2/6
f 259/2/6 265/2/6 268/2/6
f 266/7/6 267/7/6 269/7/6
f 268/2/6 266/2/6 269/2/6
f 257/2/6 258/2/6 270/2/6
f 258/7/6 268/7/6 271/7/6
f 270/2/6 258/2/6 271/2/6
f 268/7/6 269/7/6 271/7/6
f 269/7/6 267/7/6 272/7/6
f 271/7/6 269/7/6 272/7/6
f 267/1/6 256/1/6 272/1/6
f 270/1/6 271/1/6 273/1/6
f 271/1/6 272/1/6 273/1/6
f 272/1/6 256/1/6 274/1/6
f 273/1/6 272/1/6 274/1/6
f 275/1/6 276/1/6 277/1/6
f 277/1/6 276/1/6 278/1/6
